# FamiTracker text export 0.4.2

# Song information
TITLE           "Title"
AUTHOR          "Tuii"
COPYRIGHT       ""

# Song comment
COMMENT ""

# Global settings
MACHINE         0
FRAMERATE       0
EXPANSION       0
VIBRATO         1
SPLIT           32

# Macros
MACRO       0   0  -1  -1   0 : 12 12 11 11 11 11 10 10 10 9 9 9 8 8 8 8 7 7 7 7 7 6 6 6 6 6 5 5 5 5 5 4 4 4 4 4 4 4 3 3 3 3 3 2 2 2 2 2 2 1 1 1 1 1 1 0
MACRO       0   1  -1  -1   0 : 15 10 7 4 3 2 1 0
MACRO       0   2  -1  -1   0 : 8 6 4 2 2 1 1 0
MACRO       0   3  -1  -1   0 : 12
MACRO       0   4  -1  -1   0 : 8 8 8 7 7 7 7 6 6 6 5 5 5 5 5 5 4 4 4 3 3 3 3 3 3 3 3 2 2 2 2 2 2 2 2 2 2 2 1 1 1 1 1 1 1 1 1 1 1 1 1 1 1 0 0 0
MACRO       0   5  -1  -1   0 : 15 13 11 9 8 7 6 5 4 3 3 2 2 1 1 0
MACRO       0   6  -1  -1   0 : 8 7 6 5 4 4 3 3 2 2 1 1 0
MACRO       0   7  -1  -1   0 : 1 1 2 2 3 3 4
MACRO       0   8  -1  -1   0 : 4
MACRO       0   9  -1  -1   0 : 12
MACRO       0  10  -1  -1   0 : 8
MACRO       0  11  -1  -1   0 : 4 4 4 4 4 4 4 4 4 4 4 4 4 3 3 3 3 3 3 3 3 3 3 3 3 3 3 2 2 2 2 2 2 2 2 2 2 2 2 2 1 1 1 1 1 1 1 1 1 1 1 1 1 1 0 0
MACRO       0  12  -1  -1   0 : 2
MACRO       0  13  -1  -1   0 : 4 3 2 1 0 0 0 0
MACRO       0  14  -1  -1   0 : 2 1 0
MACRO       0  15  -1  -1   0 : 15 9 6 3 0
MACRO       0  16  -1  -1   0 : 15 11 8 6 4 3 2 1 1 0
MACRO       1   0   0  -1   0 : 24 24 24 19 19 19 16 16 16 12 12 12 7 7 7 4 4 4 0 0 0 4 4 4 7 7 7 12 12 12 16 16 16 19 19 19
MACRO       1   1   0  -1   0 : 24 24 24 19 19 19 15 15 15 12 12 12 7 7 7 3 3 3 0 0 0 3 3 3 7 7 7 12 12 12 15 15 15 19 19 19
MACRO       1   2   0  -1   0 : 24 24 24 19 19 19 17 17 17 12 12 12 7 7 7 5 5 5 0 0 0 5 5 5 7 7 7 12 12 12 17 17 17 19 19 19
MACRO       2   0   3  -1   0 : 0 0 0 6
MACRO       2   1   0  -1   0 : -6 -3 0 3 6 6 3 0 -3 -6
MACRO       2   2  -1  -1   0 : 2
MACRO       2   3   0  -1   0 : 89
MACRO       2   4   0  -1   0 : 21
MACRO       2   5   0  -1   0 : 8
MACRO       4   0  -1  -1   0 : 2
MACRO       4   1  -1  -1   0 : 1
MACRO       4   2  -1  -1   0 : 0

# DPCM samples

# Instruments
INST2A03   1    10  -1  -1  -1   0 "sus (p,V2)"
INST2A03   2     4  -1   1  -1   0 " lg tail+ vib1 (p, V2)"
INST2A03   3     1  -1  -1  -1   2 "sh tail (ff,V0)"
INST2A03   4     2  -1  -1  -1   2 "sh tail (p,V0)"
INST2A03   5    10  -1   0  -1   0 "down tail (p, V2)"
INST2A03   6     4  -1  -1  -1   2 " lg tail (p, V0)"
INST2A03   7     5  -1  -1  -1   2 "mid tail (f,V0)"
INST2A03   8     6  -1  -1  -1   2 "mid tail (p,V0)"
INST2A03   9     7  -1  -1  -1   2 "sht atk (pp,V0)"
INST2A03  10     8  -1   1  -1   2 "vib1(pp,V0)"
INST2A03  11    10  -1   1  -1   0 "vib1(p,V2)"
INST2A03  12     8  -1  -1  -1   0 "sus (pp,V2)"
INST2A03  13    12  -1  -1  -1   0 "sus (ppp,V2)"
INST2A03  14     4  -1  -1  -1   0 " lg tail (p,V2)"
INST2A03  15     8   1  -1  -1   1 "min arp d-u (pp,V1)"
INST2A03  16     8   0  -1  -1   1 "maj arp d-u (pp,V1)"
INST2A03  17    11  -1  -1  -1   2 " lg tail (p,V0)"
INST2A03  18     8  -1  -1  -1   1 "sus (pp,V1)"
INST2A03  19     8   2  -1  -1   1 "sus4 arp d-u (pp,V1)"
INST2A03  20     8  -1  -1  -1   2 "sus (pp,V0)"
INST2A03  21    13  -1  -1  -1   2 "sh tail (pp,V0)"
INST2A03  23     8  -1   0  -1   0 "down tail (pp,V2)"
INST2A03  24     8  -1  -1  -1   2 "sus (pp,V0)"
INST2A03  25    15  -1   3  -1   2 "t/kck(V0)"
INST2A03  26    16  -1   4  -1   2 "t/sn(V0)"
INST2A03  27     9  -1   5  -1   2 "down tail (f, V0)"

# Tracks

TRACK  60   1 150 "title"
COLUMNS : 2 1 1 1 2

ORDER 00 : 04 04 04 04 04
ORDER 01 : 05 05 05 05 05

PATTERN 00
ROW 00 : ... .. . ... ... : ... .. . ... : G-2 05 . ... : 9-# 06 . ... : C-3 00 . F02 ...
ROW 01 : ... .. . ... ... : ... .. . ... : ... .. . ... : ... .. . ... : ... .. . F01 ...
ROW 02 : ... .. . ... ... : ... .. . ... : ... .. . ... : ... .. . ... : ... .. . ... ...
ROW 03 : ... .. . ... ... : ... .. . ... : ... .. . ... : ... .. . ... : ... .. . F02 ...
ROW 04 : ... .. . ... ... : ... .. . ... : ... .. . ... : ... .. . ... : ... .. . F01 ...
ROW 05 : ... .. . ... ... : ... .. . ... : ... .. . ... : ... .. . ... : ... .. . ... ...
ROW 06 : ... .. . ... ... : ... .. . ... : ... .. . ... : ... .. . ... : ... .. . F02 ...
ROW 07 : ... .. . ... ... : ... .. . ... : ... .. . ... : ... .. . ... : ... .. . F01 ...
ROW 08 : ... .. . ... ... : ... .. . ... : ... .. . ... : ... .. . ... : ... .. . ... ...
ROW 09 : ... .. . ... ... : ... .. . ... : ... .. . ... : ... .. . ... : ... .. . F02 ...
ROW 0A : ... .. . ... ... : ... .. . ... : ... .. . ... : ... .. . ... : ... .. . F01 ...
ROW 0B : ... .. . ... ... : ... .. . ... : ... .. . ... : ... .. . ... : ... .. . ... ...
ROW 0C : ... .. . ... ... : ... .. . ... : ... .. . ... : ... .. . ... : ... .. . F02 ...
ROW 0D : ... .. . ... ... : ... .. . ... : ... .. . ... : ... .. . ... : ... .. . F01 ...
ROW 0E : ... .. . ... ... : ... .. . ... : ... .. . ... : ... .. . ... : ... .. . ... ...
ROW 0F : ... .. . ... ... : ... .. . ... : ... .. . ... : ... .. . ... : ... .. . F02 ...
ROW 10 : ... .. . ... ... : ... .. . ... : ... .. . ... : ... .. . ... : ... .. . F01 ...
ROW 11 : ... .. . ... ... : ... .. . ... : --- .. . ... : ... .. . ... : ... .. . ... ...
ROW 12 : ... .. . ... ... : ... .. . ... : G-2 01 . ... : F-# 03 . ... : C-3 00 . F02 ...
ROW 13 : ... .. . ... ... : ... .. . ... : ... .. . ... : ... .. . ... : ... .. . F01 ...
ROW 14 : ... .. . ... ... : ... .. . ... : ... .. . ... : ... .. . ... : ... .. . ... ...
ROW 15 : ... .. . ... ... : ... .. . ... : ... .. . ... : ... .. . ... : ... .. . F02 ...
ROW 16 : ... .. . ... ... : ... .. . ... : ... .. . ... : ... .. . ... : ... .. . F01 ...
ROW 17 : ... .. . ... ... : ... .. . ... : ... .. . ... : ... .. . ... : ... .. . ... ...
ROW 18 : ... .. . ... ... : ... .. . ... : --- .. . ... : F-# 04 . ... : ... .. . F02 ...
ROW 19 : ... .. . ... ... : ... .. . ... : ... .. . ... : ... .. . ... : ... .. . F01 ...
ROW 1A : ... .. . ... ... : ... .. . ... : ... .. . ... : ... .. . ... : ... .. . ... ...
ROW 1B : ... .. . ... ... : ... .. . ... : ... .. . ... : ... .. . ... : ... .. . F02 ...
ROW 1C : ... .. . ... ... : ... .. . ... : ... .. . ... : ... .. . ... : ... .. . F01 ...
ROW 1D : ... .. . ... ... : ... .. . ... : ... .. . ... : ... .. . ... : ... .. . ... ...
ROW 1E : ... .. . ... ... : ... .. . ... : G-2 01 . ... : F-# 04 . ... : C-3 00 . F02 ...
ROW 1F : ... .. . ... ... : ... .. . ... : ... .. . ... : ... .. . ... : ... .. . F01 ...
ROW 20 : ... .. . ... ... : ... .. . ... : ... .. . ... : ... .. . ... : ... .. . ... ...
ROW 21 : ... .. . ... ... : ... .. . ... : ... .. . ... : ... .. . ... : ... .. . F02 ...
ROW 22 : ... .. . ... ... : ... .. . ... : ... .. . ... : ... .. . ... : ... .. . F01 ...
ROW 23 : ... .. . ... ... : ... .. . ... : --- .. . ... : ... .. . ... : ... .. . ... ...
ROW 24 : ... .. . ... ... : ... .. . ... : G-2 01 . ... : F-# 03 . ... : C-3 00 . F02 ...
ROW 25 : ... .. . ... ... : ... .. . ... : ... .. . ... : ... .. . ... : ... .. . F01 ...
ROW 26 : ... .. . ... ... : ... .. . ... : ... .. . ... : ... .. . ... : ... .. . ... ...
ROW 27 : ... .. . ... ... : ... .. . ... : ... .. . ... : ... .. . ... : ... .. . F02 ...
ROW 28 : ... .. . ... ... : ... .. . ... : ... .. . ... : ... .. . ... : ... .. . F01 ...
ROW 29 : ... .. . ... ... : ... .. . ... : ... .. . ... : ... .. . ... : ... .. . ... ...
ROW 2A : ... .. . ... ... : ... .. . ... : ... .. . ... : F-# 04 . ... : ... .. . F02 ...
ROW 2B : ... .. . ... ... : ... .. . ... : ... .. . ... : ... .. . ... : ... .. . F01 ...
ROW 2C : ... .. . ... ... : ... .. . ... : ... .. . ... : ... .. . ... : ... .. . ... ...
ROW 2D : ... .. . ... ... : ... .. . ... : ... .. . ... : ... .. . ... : ... .. . F02 ...
ROW 2E : ... .. . ... ... : ... .. . ... : ... .. . ... : ... .. . ... : ... .. . F01 ...
ROW 2F : ... .. . ... ... : ... .. . ... : --- .. . ... : ... .. . ... : ... .. . ... ...
ROW 30 : ... .. . ... ... : ... .. . ... : D-2 01 . ... : F-# 03 . ... : D-3 00 . F02 ...
ROW 31 : ... .. . ... ... : ... .. . ... : ... .. . ... : ... .. . ... : ... .. . F01 ...
ROW 32 : ... .. . ... ... : ... .. . ... : ... .. . ... : ... .. . ... : ... .. . ... ...
ROW 33 : ... .. . ... ... : ... .. . ... : ... .. . ... : ... .. . ... : ... .. . F02 ...
ROW 34 : ... .. . ... ... : ... .. . ... : ... .. . ... : ... .. . ... : ... .. . F01 ...
ROW 35 : ... .. . ... ... : ... .. . ... : ... .. . ... : ... .. . ... : ... .. . ... ...
ROW 36 : ... .. . ... ... : ... .. . ... : ... .. . ... : F-# 04 . ... : ... .. . F02 ...
ROW 37 : ... .. . ... ... : ... .. . ... : ... .. . ... : ... .. . ... : ... .. . F01 ...
ROW 38 : ... .. . ... ... : ... .. . ... : ... .. . ... : ... .. . ... : ... .. . ... ...
ROW 39 : ... .. . ... ... : ... .. . ... : ... .. . ... : F-# 03 . ... : ... .. . F02 ...
ROW 3A : ... .. . ... ... : ... .. . ... : ... .. . ... : ... .. . ... : ... .. . F01 ...
ROW 3B : ... .. . ... ... : ... .. . ... : --- .. . ... : ... .. . ... : ... .. . ... ...

PATTERN 01
ROW 00 : ... .. . ... ... : ... .. . ... : G-2 05 . ... : F-# 03 . ... : C-3 00 . F02 ...
ROW 01 : ... .. . ... ... : ... .. . ... : ... .. . ... : ... .. . ... : ... .. . F01 ...
ROW 02 : ... .. . ... ... : ... .. . ... : ... .. . ... : ... .. . ... : ... .. . F02 ...
ROW 03 : ... .. . ... ... : ... .. . ... : ... .. . ... : ... .. . ... : ... .. . F01 ...
ROW 04 : ... .. . ... ... : ... .. . ... : ... .. . ... : ... .. . ... : ... .. . ... ...
ROW 05 : ... .. . ... ... : ... .. . ... : ... .. . ... : ... .. . ... : ... .. . F02 ...
ROW 06 : ... .. . ... ... : ... .. . ... : ... .. . ... : F-# 04 . ... : ... .. . F01 ...
ROW 07 : ... .. . ... ... : ... .. . ... : ... .. . ... : ... .. . ... : ... .. . ... ...
ROW 08 : ... .. . ... ... : ... .. . ... : ... .. . ... : ... .. . ... : ... .. . F02 ...
ROW 09 : ... .. . ... ... : ... .. . ... : ... .. . ... : ... .. . ... : ... .. . F01 ...
ROW 0A : ... .. . ... ... : ... .. . ... : ... .. . ... : ... .. . ... : ... .. . ... ...
ROW 0B : ... .. . ... ... : ... .. . ... : ... .. . ... : ... .. . ... : ... .. . F02 ...
ROW 0C : ... .. . ... ... : ... .. . ... : ... .. . ... : F-# 04 . ... : ... .. . F01 ...
ROW 0D : ... .. . ... ... : ... .. . ... : ... .. . ... : ... .. . ... : ... .. . ... ...
ROW 0E : ... .. . ... ... : ... .. . ... : ... .. . ... : ... .. . ... : ... .. . F02 ...
ROW 0F : ... .. . ... ... : ... .. . ... : ... .. . ... : ... .. . ... : ... .. . F01 ...
ROW 10 : ... .. . ... ... : ... .. . ... : ... .. . ... : ... .. . ... : ... .. . ... ...
ROW 11 : ... .. . ... ... : ... .. . ... : --- .. . ... : ... .. . ... : ... .. . F02 ...
ROW 12 : ... .. . ... ... : ... .. . ... : G-2 01 . ... : F-# 03 . ... : C-3 00 . F01 ...
ROW 13 : ... .. . ... ... : ... .. . ... : ... .. . ... : ... .. . ... : ... .. . ... ...
ROW 14 : ... .. . ... ... : ... .. . ... : ... .. . ... : ... .. . ... : ... .. . F02 ...
ROW 15 : ... .. . ... ... : ... .. . ... : ... .. . ... : ... .. . ... : ... .. . F01 ...
ROW 16 : ... .. . ... ... : ... .. . ... : ... .. . ... : ... .. . ... : ... .. . ... ...
ROW 17 : ... .. . ... ... : ... .. . ... : ... .. . ... : ... .. . ... : ... .. . F02 ...
ROW 18 : ... .. . ... ... : ... .. . ... : --- .. . ... : F-# 04 . ... : ... .. . F01 ...
ROW 19 : ... .. . ... ... : ... .. . ... : ... .. . ... : ... .. . ... : ... .. . ... ...
ROW 1A : ... .. . ... ... : ... .. . ... : ... .. . ... : ... .. . ... : ... .. . F02 ...
ROW 1B : ... .. . ... ... : ... .. . ... : ... .. . ... : ... .. . ... : ... .. . F01 ...
ROW 1C : ... .. . ... ... : ... .. . ... : ... .. . ... : ... .. . ... : ... .. . ... ...
ROW 1D : ... .. . ... ... : ... .. . ... : ... .. . ... : ... .. . ... : ... .. . F02 ...
ROW 1E : ... .. . ... ... : ... .. . ... : G-2 01 . ... : F-# 04 . ... : C-3 00 . F01 ...
ROW 1F : ... .. . ... ... : ... .. . ... : ... .. . ... : ... .. . ... : ... .. . ... ...
ROW 20 : ... .. . ... ... : ... .. . ... : ... .. . ... : ... .. . ... : ... .. . F02 ...
ROW 21 : ... .. . ... ... : ... .. . ... : ... .. . ... : ... .. . ... : ... .. . F01 ...
ROW 22 : ... .. . ... ... : ... .. . ... : ... .. . ... : ... .. . ... : ... .. . ... ...
ROW 23 : ... .. . ... ... : ... .. . ... : --- .. . ... : ... .. . ... : ... .. . F02 ...
ROW 24 : ... .. . ... ... : ... .. . ... : G-2 01 . ... : F-# 03 . ... : C-3 00 . F01 ...
ROW 25 : ... .. . ... ... : ... .. . ... : ... .. . ... : ... .. . ... : ... .. . ... ...
ROW 26 : ... .. . ... ... : ... .. . ... : ... .. . ... : ... .. . ... : ... .. . F02 ...
ROW 27 : ... .. . ... ... : ... .. . ... : ... .. . ... : ... .. . ... : ... .. . F01 ...
ROW 28 : ... .. . ... ... : ... .. . ... : ... .. . ... : ... .. . ... : ... .. . ... ...
ROW 29 : ... .. . ... ... : ... .. . ... : ... .. . ... : ... .. . ... : ... .. . F02 ...
ROW 2A : ... .. . ... ... : ... .. . ... : ... .. . ... : F-# 04 . ... : ... .. . F01 ...
ROW 2B : ... .. . ... ... : ... .. . ... : ... .. . ... : ... .. . ... : ... .. . ... ...
ROW 2C : ... .. . ... ... : ... .. . ... : ... .. . ... : ... .. . ... : ... .. . F02 ...
ROW 2D : ... .. . ... ... : ... .. . ... : ... .. . ... : ... .. . ... : ... .. . F01 ...
ROW 2E : ... .. . ... ... : ... .. . ... : ... .. . ... : ... .. . ... : ... .. . ... ...
ROW 2F : ... .. . ... ... : ... .. . ... : --- .. . ... : ... .. . ... : ... .. . F02 ...
ROW 30 : ... .. . ... ... : ... .. . ... : D-2 01 . ... : F-# 03 . ... : D-3 00 . F01 ...
ROW 31 : ... .. . ... ... : ... .. . ... : ... .. . ... : ... .. . ... : ... .. . ... ...
ROW 32 : ... .. . ... ... : ... .. . ... : ... .. . ... : ... .. . ... : ... .. . F02 ...
ROW 33 : ... .. . ... ... : ... .. . ... : ... .. . ... : ... .. . ... : ... .. . F01 ...
ROW 34 : ... .. . ... ... : ... .. . ... : ... .. . ... : ... .. . ... : ... .. . ... ...
ROW 35 : ... .. . ... ... : ... .. . ... : --- .. . ... : ... .. . ... : ... .. . F02 ...
ROW 36 : ... .. . ... ... : ... .. . ... : D-2 01 . ... : F-# 03 . ... : D-3 00 . F01 ...
ROW 37 : ... .. . ... ... : ... .. . ... : ... .. . ... : ... .. . ... : ... .. . ... ...
ROW 38 : ... .. . ... ... : ... .. . ... : ... .. . ... : ... .. . ... : ... .. . F02 ...
ROW 39 : ... .. . ... ... : ... .. . ... : ... .. . ... : ... .. . ... : ... .. . F01 ...
ROW 3A : ... .. . ... ... : ... .. . ... : ... .. . ... : ... .. . ... : ... .. . ... ...
ROW 3B : ... .. . ... ... : ... .. . ... : --- .. . ... : ... .. . ... : ... .. . F02 ...

PATTERN 02
ROW 00 : ... .. . ... ... : ... .. . ... : G-2 05 . ... : F-# 03 . ... : C-3 00 . F02 ...
ROW 01 : ... .. . ... ... : ... .. . ... : ... .. . ... : ... .. . ... : ... .. . F01 ...
ROW 02 : ... .. . ... ... : ... .. . ... : ... .. . ... : ... .. . ... : ... .. . ... ...
ROW 03 : ... .. . ... ... : ... .. . ... : ... .. . ... : ... .. . ... : ... .. . F02 ...
ROW 04 : ... .. . ... ... : ... .. . ... : ... .. . ... : ... .. . ... : ... .. . F01 ...
ROW 05 : ... .. . ... ... : ... .. . ... : ... .. . ... : ... .. . ... : ... .. . ... ...
ROW 06 : ... .. . ... ... : ... .. . ... : ... .. . ... : F-# 04 . ... : ... .. . F02 ...
ROW 07 : ... .. . ... ... : ... .. . ... : ... .. . ... : ... .. . ... : ... .. . F01 ...
ROW 08 : ... .. . ... ... : ... .. . ... : ... .. . ... : ... .. . ... : ... .. . ... ...
ROW 09 : ... .. . ... ... : ... .. . ... : ... .. . ... : ... .. . ... : ... .. . F02 ...
ROW 0A : ... .. . ... ... : ... .. . ... : ... .. . ... : ... .. . ... : ... .. . F01 ...
ROW 0B : ... .. . ... ... : ... .. . ... : ... .. . ... : ... .. . ... : ... .. . ... ...
ROW 0C : ... .. . ... ... : ... .. . ... : ... .. . ... : F-# 04 . ... : ... .. . F02 ...
ROW 0D : ... .. . ... ... : ... .. . ... : ... .. . ... : ... .. . ... : ... .. . F01 ...
ROW 0E : ... .. . ... ... : ... .. . ... : ... .. . ... : ... .. . ... : ... .. . ... ...
ROW 0F : ... .. . ... ... : ... .. . ... : ... .. . ... : ... .. . ... : ... .. . F02 ...
ROW 10 : ... .. . ... ... : ... .. . ... : ... .. . ... : ... .. . ... : ... .. . F01 ...
ROW 11 : ... .. . ... ... : ... .. . ... : --- .. . ... : ... .. . ... : ... .. . ... ...
ROW 12 : ... .. . ... ... : ... .. . ... : G-2 01 . ... : F-# 03 . ... : C-3 00 . F02 ...
ROW 13 : ... .. . ... ... : ... .. . ... : ... .. . ... : ... .. . ... : ... .. . F01 ...
ROW 14 : ... .. . ... ... : ... .. . ... : ... .. . ... : ... .. . ... : ... .. . ... ...
ROW 15 : ... .. . ... ... : ... .. . ... : ... .. . ... : ... .. . ... : ... .. . F02 ...
ROW 16 : ... .. . ... ... : ... .. . ... : ... .. . ... : ... .. . ... : ... .. . F01 ...
ROW 17 : ... .. . ... ... : ... .. . ... : ... .. . ... : ... .. . ... : ... .. . ... ...
ROW 18 : ... .. . ... ... : ... .. . ... : --- .. . ... : F-# 04 . ... : ... .. . F02 ...
ROW 19 : ... .. . ... ... : ... .. . ... : ... .. . ... : ... .. . ... : ... .. . F01 ...
ROW 1A : ... .. . ... ... : ... .. . ... : ... .. . ... : ... .. . ... : ... .. . ... ...
ROW 1B : ... .. . ... ... : ... .. . ... : ... .. . ... : ... .. . ... : ... .. . F02 ...
ROW 1C : ... .. . ... ... : ... .. . ... : ... .. . ... : ... .. . ... : ... .. . F01 ...
ROW 1D : ... .. . ... ... : ... .. . ... : ... .. . ... : ... .. . ... : ... .. . ... ...
ROW 1E : ... .. . ... ... : ... .. . ... : G-2 01 . ... : F-# 04 . ... : C-3 00 . F02 ...
ROW 1F : ... .. . ... ... : ... .. . ... : ... .. . ... : ... .. . ... : ... .. . F01 ...
ROW 20 : ... .. . ... ... : ... .. . ... : ... .. . ... : ... .. . ... : ... .. . ... ...
ROW 21 : ... .. . ... ... : ... .. . ... : ... .. . ... : ... .. . ... : ... .. . F02 ...
ROW 22 : ... .. . ... ... : ... .. . ... : ... .. . ... : ... .. . ... : ... .. . F01 ...
ROW 23 : ... .. . ... ... : ... .. . ... : --- .. . ... : ... .. . ... : ... .. . ... ...
ROW 24 : ... .. . ... ... : ... .. . ... : G-2 01 . ... : F-# 03 . ... : C-3 00 . F02 ...
ROW 25 : ... .. . ... ... : ... .. . ... : ... .. . ... : ... .. . ... : ... .. . F01 ...
ROW 26 : ... .. . ... ... : ... .. . ... : ... .. . ... : ... .. . ... : ... .. . ... ...
ROW 27 : ... .. . ... ... : ... .. . ... : ... .. . ... : ... .. . ... : ... .. . F02 ...
ROW 28 : ... .. . ... ... : ... .. . ... : ... .. . ... : ... .. . ... : ... .. . F01 ...
ROW 29 : ... .. . ... ... : ... .. . ... : ... .. . ... : ... .. . ... : ... .. . ... ...
ROW 2A : ... .. . ... ... : ... .. . ... : ... .. . ... : F-# 04 . ... : ... .. . F02 ...
ROW 2B : ... .. . ... ... : ... .. . ... : ... .. . ... : ... .. . ... : ... .. . F01 ...
ROW 2C : ... .. . ... ... : ... .. . ... : ... .. . ... : ... .. . ... : ... .. . ... ...
ROW 2D : ... .. . ... ... : ... .. . ... : ... .. . ... : ... .. . ... : ... .. . F02 ...
ROW 2E : ... .. . ... ... : ... .. . ... : ... .. . ... : ... .. . ... : ... .. . F01 ...
ROW 2F : ... .. . ... ... : ... .. . ... : --- .. . ... : ... .. . ... : ... .. . ... ...
ROW 30 : ... .. . ... ... : ... .. . ... : D-2 01 . ... : F-# 03 . ... : D-3 00 . F02 ...
ROW 31 : ... .. . ... ... : ... .. . ... : ... .. . ... : ... .. . ... : ... .. . F01 ...
ROW 32 : ... .. . ... ... : ... .. . ... : ... .. . ... : ... .. . ... : ... .. . ... ...
ROW 33 : ... .. . ... ... : ... .. . ... : ... .. . ... : ... .. . ... : ... .. . F02 ...
ROW 34 : ... .. . ... ... : ... .. . ... : ... .. . ... : ... .. . ... : ... .. . F01 ...
ROW 35 : ... .. . ... ... : ... .. . ... : ... .. . ... : ... .. . ... : ... .. . ... ...
ROW 36 : ... .. . ... ... : ... .. . ... : ... .. . ... : F-# 04 . ... : ... .. . F02 ...
ROW 37 : ... .. . ... ... : ... .. . ... : ... .. . ... : ... .. . ... : ... .. . F01 ...
ROW 38 : ... .. . ... ... : ... .. . ... : ... .. . ... : ... .. . ... : ... .. . ... ...
ROW 39 : ... .. . ... ... : ... .. . ... : ... .. . ... : F-# 03 . ... : ... .. . F02 ...
ROW 3A : ... .. . ... ... : ... .. . ... : ... .. . ... : ... .. . ... : ... .. . F01 ...
ROW 3B : ... .. . ... ... : ... .. . ... : --- .. . ... : ... .. . ... : ... .. . ... ...

PATTERN 03
ROW 00 : ... .. . ... ... : ... .. . ... : G-2 05 . ... : F-# 03 . ... : C-3 00 . F02 ...
ROW 01 : ... .. . ... ... : ... .. . ... : ... .. . ... : ... .. . ... : ... .. . F01 ...
ROW 02 : ... .. . ... ... : ... .. . ... : ... .. . ... : ... .. . ... : ... .. . ... ...
ROW 03 : ... .. . ... ... : ... .. . ... : ... .. . ... : ... .. . ... : ... .. . F02 ...
ROW 04 : ... .. . ... ... : ... .. . ... : ... .. . ... : ... .. . ... : ... .. . F01 ...
ROW 05 : ... .. . ... ... : ... .. . ... : ... .. . ... : ... .. . ... : ... .. . ... ...
ROW 06 : ... .. . ... ... : ... .. . ... : ... .. . ... : F-# 04 . ... : ... .. . F02 ...
ROW 07 : ... .. . ... ... : ... .. . ... : ... .. . ... : ... .. . ... : ... .. . F01 ...
ROW 08 : ... .. . ... ... : ... .. . ... : ... .. . ... : ... .. . ... : ... .. . ... ...
ROW 09 : ... .. . ... ... : ... .. . ... : ... .. . ... : ... .. . ... : ... .. . F02 ...
ROW 0A : ... .. . ... ... : ... .. . ... : ... .. . ... : ... .. . ... : ... .. . F01 ...
ROW 0B : ... .. . ... ... : ... .. . ... : ... .. . ... : ... .. . ... : ... .. . ... ...
ROW 0C : ... .. . ... ... : ... .. . ... : ... .. . ... : F-# 04 . ... : ... .. . F02 ...
ROW 0D : ... .. . ... ... : ... .. . ... : ... .. . ... : ... .. . ... : ... .. . F01 ...
ROW 0E : ... .. . ... ... : ... .. . ... : ... .. . ... : ... .. . ... : ... .. . ... ...
ROW 0F : ... .. . ... ... : ... .. . ... : ... .. . ... : ... .. . ... : ... .. . F02 ...
ROW 10 : ... .. . ... ... : ... .. . ... : ... .. . ... : ... .. . ... : ... .. . F01 ...
ROW 11 : ... .. . ... ... : ... .. . ... : --- .. . ... : ... .. . ... : ... .. . ... ...
ROW 12 : ... .. . ... ... : ... .. . ... : G-2 01 . ... : F-# 03 . ... : C-3 00 . F02 ...
ROW 13 : ... .. . ... ... : ... .. . ... : ... .. . ... : ... .. . ... : ... .. . F01 ...
ROW 14 : ... .. . ... ... : ... .. . ... : ... .. . ... : ... .. . ... : ... .. . ... ...
ROW 15 : ... .. . ... ... : ... .. . ... : ... .. . ... : ... .. . ... : ... .. . F02 ...
ROW 16 : ... .. . ... ... : ... .. . ... : ... .. . ... : ... .. . ... : ... .. . F01 ...
ROW 17 : ... .. . ... ... : ... .. . ... : ... .. . ... : ... .. . ... : ... .. . ... ...
ROW 18 : ... .. . ... ... : ... .. . ... : --- .. . ... : F-# 04 . ... : ... .. . F02 ...
ROW 19 : ... .. . ... ... : ... .. . ... : ... .. . ... : ... .. . ... : ... .. . F01 ...
ROW 1A : ... .. . ... ... : ... .. . ... : ... .. . ... : ... .. . ... : ... .. . ... ...
ROW 1B : ... .. . ... ... : ... .. . ... : ... .. . ... : ... .. . ... : ... .. . F02 ...
ROW 1C : ... .. . ... ... : ... .. . ... : ... .. . ... : ... .. . ... : ... .. . F01 ...
ROW 1D : ... .. . ... ... : ... .. . ... : ... .. . ... : ... .. . ... : ... .. . ... ...
ROW 1E : ... .. . ... ... : ... .. . ... : D-2 01 . ... : F-# 04 . ... : D-3 00 . F02 ...
ROW 1F : ... .. . ... ... : ... .. . ... : ... .. . ... : ... .. . ... : ... .. . F01 ...
ROW 20 : ... .. . ... ... : ... .. . ... : ... .. . ... : ... .. . ... : ... .. . ... ...
ROW 21 : ... .. . ... ... : ... .. . ... : ... .. . ... : ... .. . ... : ... .. . F02 ...
ROW 22 : ... .. . ... ... : ... .. . ... : ... .. . ... : ... .. . ... : ... .. . F01 ...
ROW 23 : ... .. . ... ... : ... .. . ... : --- .. . ... : ... .. . ... : ... .. . ... ...
ROW 24 : ... .. . ... ... : ... .. . ... : D-2 01 . ... : F-# 03 . ... : D-3 00 . F02 ...
ROW 25 : ... .. . ... ... : ... .. . ... : ... .. . ... : ... .. . ... : ... .. . F01 ...
ROW 26 : ... .. . ... ... : ... .. . ... : ... .. . ... : ... .. . ... : ... .. . ... ...
ROW 27 : ... .. . ... ... : ... .. . ... : ... .. . ... : ... .. . ... : ... .. . F02 ...
ROW 28 : ... .. . ... ... : ... .. . ... : ... .. . ... : ... .. . ... : ... .. . F01 ...
ROW 29 : ... .. . ... ... : ... .. . ... : ... .. . ... : ... .. . ... : ... .. . ... ...
ROW 2A : ... .. . ... ... : ... .. . ... : ... .. . ... : F-# 04 . ... : ... .. . F02 ...
ROW 2B : ... .. . ... ... : ... .. . ... : ... .. . ... : ... .. . ... : ... .. . F01 ...
ROW 2C : ... .. . ... ... : ... .. . ... : ... .. . ... : ... .. . ... : ... .. . ... ...
ROW 2D : ... .. . ... ... : ... .. . ... : ... .. . ... : ... .. . ... : ... .. . F02 ...
ROW 2E : ... .. . ... ... : ... .. . ... : ... .. . ... : ... .. . ... : ... .. . F01 ...
ROW 2F : ... .. . ... ... : ... .. . ... : --- .. . ... : ... .. . ... : ... .. . ... ...
ROW 30 : ... .. . ... ... : ... .. . ... : D-2 01 . ... : F-# 03 . ... : D-3 00 . F02 ...
ROW 31 : ... .. . ... ... : ... .. . ... : ... .. . ... : ... .. . ... : ... .. . F01 ...
ROW 32 : ... .. . ... ... : ... .. . ... : ... .. . ... : ... .. . ... : ... .. . ... ...
ROW 33 : ... .. . ... ... : ... .. . ... : ... .. . ... : F-# 04 . ... : ... .. . F02 ...
ROW 34 : ... .. . ... ... : ... .. . ... : ... .. . ... : ... .. . ... : ... .. . F01 ...
ROW 35 : ... .. . ... ... : ... .. . ... : ... .. . ... : ... .. . ... : ... .. . ... ...
ROW 36 : ... .. . ... ... : ... .. . ... : ... .. . ... : F-# 04 . ... : ... .. . F02 ...
ROW 37 : ... .. . ... ... : ... .. . ... : ... .. . ... : ... .. . ... : ... .. . F01 ...
ROW 38 : ... .. . ... ... : ... .. . ... : ... .. . ... : ... .. . ... : ... .. . ... ...
ROW 39 : ... .. . ... ... : ... .. . ... : ... .. . ... : F-# 03 . ... : ... .. . F02 ...
ROW 3A : ... .. . ... ... : ... .. . ... : ... .. . ... : ... .. . ... : ... .. . F01 ...
ROW 3B : ... .. . ... ... : ... .. . ... : --- .. . ... : ... .. . ... : ... .. . ... ...

PATTERN 04
ROW 00 : D-3 09 . ... ... : ... .. . ... : F#3 19 . ... : 9-# 06 . ... : ... .. . ... ...
ROW 01 : ... .. . ... ... : A#2 09 . ... : G-2 01 . ... : ... .. . ... : ... .. . F01 ...
ROW 02 : ... .. . ... ... : ... .. . ... : ... .. . ... : ... .. . ... : ... .. . F02 ...
ROW 03 : ... .. . ... ... : ... .. . ... : ... .. . ... : ... .. . ... : ... .. . F01 ...
ROW 04 : ... .. . ... ... : ... .. . ... : ... .. . ... : ... .. . ... : ... .. . F02 ...
ROW 05 : ... .. . ... ... : ... .. . ... : ... .. . ... : ... .. . ... : ... .. . F01 ...
ROW 06 : ... .. . ... ... : ... .. . ... : ... .. . ... : ... .. . ... : ... .. . F02 ...
ROW 07 : ... .. . ... ... : ... .. . ... : ... .. . ... : ... .. . ... : ... .. . F01 ...
ROW 08 : ... .. . ... ... : ... .. . ... : ... .. . ... : ... .. . ... : ... .. . F02 ...
ROW 09 : ... .. . ... ... : ... .. . ... : ... .. . ... : ... .. . ... : ... .. . F01 ...
ROW 0A : ... .. . ... ... : ... .. . ... : ... .. . ... : ... .. . ... : ... .. . F02 ...
ROW 0B : ... .. . ... ... : ... .. . ... : ... .. . ... : ... .. . ... : ... .. . F01 ...
ROW 0C : ... .. . ... ... : ... .. . ... : G-2 05 . ... : ... .. . ... : ... .. . F02 ...
ROW 0D : ... .. . ... ... : ... .. . ... : ... .. . ... : ... .. . ... : ... .. . F01 ...
ROW 0E : ... .. . ... ... : ... .. . ... : ... .. . ... : ... .. . ... : ... .. . F02 ...
ROW 0F : ... .. . ... ... : ... .. . ... : ... .. . ... : ... .. . ... : ... .. . F01 ...
ROW 10 : ... .. . ... ... : ... .. . ... : ... .. . ... : ... .. . ... : ... .. . F02 ...
ROW 11 : ... .. . ... ... : ... .. . ... : --- .. . ... : --- .. . ... : ... .. . F01 ...
ROW 12 : ... .. . ... ... : ... .. . ... : F#3 19 . ... : C-# 08 . ... : ... .. . F02 ...
ROW 13 : ... .. . ... ... : ... .. . ... : G-2 01 . ... : ... .. . ... : ... .. . F01 ...
ROW 14 : ... .. . ... ... : ... .. . ... : ... .. . ... : ... .. . ... : ... .. . F02 ...
ROW 15 : ... .. . ... ... : ... .. . ... : ... .. . ... : ... .. . ... : ... .. . F01 ...
ROW 16 : ... .. . ... ... : ... .. . ... : ... .. . ... : ... .. . ... : ... .. . F02 ...
ROW 17 : ... .. . ... ... : ... .. . ... : ... .. . ... : ... .. . ... : ... .. . F01 ...
ROW 18 : ... .. . ... ... : ... .. . ... : --- .. . ... : F-# 04 . ... : ... .. . F02 ...
ROW 19 : ... .. . ... ... : ... .. . ... : ... .. . ... : ... .. . ... : ... .. . F01 ...
ROW 1A : ... .. . ... ... : ... .. . ... : ... .. . ... : ... .. . ... : ... .. . F02 ...
ROW 1B : ... .. . ... ... : ... .. . ... : ... .. . ... : ... .. . ... : ... .. . F01 ...
ROW 1C : ... .. . ... ... : ... .. . ... : ... .. . ... : ... .. . ... : ... .. . F02 ...
ROW 1D : ... .. . ... ... : ... .. . ... : ... .. . ... : ... .. . ... : ... .. . F01 ...
ROW 1E : D-3 0A . ... ... : A#2 0A . ... : F#3 19 . ... : F-# 04 . ... : ... .. . ... ...
ROW 1F : ... .. . ... ... : ... .. . ... : G-2 01 . ... : ... .. . ... : ... .. . F01 ...
ROW 20 : ... .. . ... ... : ... .. . ... : ... .. . ... : ... .. . ... : ... .. . F02 ...
ROW 21 : ... .. . ... ... : ... .. . ... : ... .. . ... : ... .. . ... : ... .. . F01 ...
ROW 22 : ... .. . ... ... : ... .. . ... : ... .. . ... : ... .. . ... : ... .. . F02 ...
ROW 23 : ... .. . ... ... : ... .. . ... : --- .. . ... : ... .. . ... : ... .. . F01 ...
ROW 24 : ... .. . ... ... : ... .. . ... : F#3 19 . ... : F-# 03 . ... : ... .. . F02 ...
ROW 25 : ... .. . ... ... : ... .. . ... : G-2 01 . ... : ... .. . ... : ... .. . F01 ...
ROW 26 : ... .. . ... ... : ... .. . ... : ... .. . ... : ... .. . ... : ... .. . F02 ...
ROW 27 : ... .. . ... ... : ... .. . ... : ... .. . ... : ... .. . ... : ... .. . F01 ...
ROW 28 : ... .. . ... ... : ... .. . ... : ... .. . ... : ... .. . ... : ... .. . F02 ...
ROW 29 : ... .. . ... ... : ... .. . ... : ... .. . ... : ... .. . ... : ... .. . F01 ...
ROW 2A : ... .. . ... ... : ... .. . ... : G-2 05 . ... : F-# 04 . ... : ... .. . F02 ...
ROW 2B : ... .. . ... ... : ... .. . ... : ... .. . ... : ... .. . ... : ... .. . F01 ...
ROW 2C : ... .. . ... ... : ... .. . ... : ... .. . ... : ... .. . ... : ... .. . F02 ...
ROW 2D : ... .. . ... ... : ... .. . ... : ... .. . ... : ... .. . ... : ... .. . F01 ...
ROW 2E : ... .. . ... ... : ... .. . ... : ... .. . ... : ... .. . ... : ... .. . F02 ...
ROW 2F : ... .. . ... ... : ... .. . ... : --- .. . ... : ... .. . ... : ... .. . F01 ...
ROW 30 : ... .. . ... ... : ... .. . ... : F#3 19 . ... : C-# 08 . ... : ... .. . F02 ...
ROW 31 : ... .. . ... ... : ... .. . ... : D-2 01 . ... : ... .. . ... : ... .. . F01 ...
ROW 32 : ... .. . ... ... : ... .. . ... : ... .. . ... : ... .. . ... : ... .. . F02 ...
ROW 33 : ... .. . ... ... : ... .. . ... : ... .. . ... : ... .. . ... : ... .. . F01 ...
ROW 34 : ... .. . ... ... : ... .. . ... : ... .. . ... : ... .. . ... : ... .. . F02 ...
ROW 35 : ... .. . ... ... : ... .. . ... : ... .. . ... : ... .. . ... : ... .. . F01 ...
ROW 36 : ... .. . ... ... : ... .. . ... : D-2 05 . ... : F-# 04 . ... : ... .. . F02 ...
ROW 37 : ... .. . ... ... : ... .. . ... : ... .. . ... : ... .. . ... : ... .. . F01 ...
ROW 38 : ... .. . ... ... : ... .. . ... : ... .. . ... : ... .. . ... : ... .. . F02 ...
ROW 39 : ... .. . ... ... : ... .. . ... : ... .. . ... : F-# 03 . ... : ... .. . F01 ...
ROW 3A : ... .. . ... ... : ... .. . ... : ... .. . ... : ... .. . ... : ... .. . F02 ...
ROW 3B : ... .. . ... ... : ... .. . ... : --- .. . ... : ... .. . ... : ... .. . F01 ...

PATTERN 05
ROW 00 : D-3 09 . ... ... : ... .. . ... : F#3 19 . ... : 9-# 06 . ... : ... .. . ... ...
ROW 01 : ... .. . ... ... : A#2 09 . ... : G-2 01 . ... : ... .. . ... : ... .. . F01 ...
ROW 02 : ... .. . ... ... : ... .. . ... : ... .. . ... : ... .. . ... : ... .. . F02 ...
ROW 03 : ... .. . ... ... : ... .. . ... : ... .. . ... : ... .. . ... : ... .. . F01 ...
ROW 04 : ... .. . ... ... : ... .. . ... : ... .. . ... : ... .. . ... : ... .. . F02 ...
ROW 05 : ... .. . ... ... : ... .. . ... : ... .. . ... : ... .. . ... : ... .. . F01 ...
ROW 06 : ... .. . ... ... : ... .. . ... : ... .. . ... : ... .. . ... : ... .. . F02 ...
ROW 07 : ... .. . ... ... : ... .. . ... : ... .. . ... : ... .. . ... : ... .. . F01 ...
ROW 08 : ... .. . ... ... : ... .. . ... : ... .. . ... : ... .. . ... : ... .. . F02 ...
ROW 09 : ... .. . ... ... : ... .. . ... : ... .. . ... : ... .. . ... : ... .. . F01 ...
ROW 0A : ... .. . ... ... : ... .. . ... : ... .. . ... : ... .. . ... : ... .. . F02 ...
ROW 0B : ... .. . ... ... : ... .. . ... : ... .. . ... : ... .. . ... : ... .. . F01 ...
ROW 0C : ... .. . ... ... : ... .. . ... : G-2 05 . ... : ... .. . ... : ... .. . F02 ...
ROW 0D : ... .. . ... ... : ... .. . ... : ... .. . ... : ... .. . ... : ... .. . F01 ...
ROW 0E : ... .. . ... ... : ... .. . ... : ... .. . ... : ... .. . ... : ... .. . F02 ...
ROW 0F : ... .. . ... ... : ... .. . ... : ... .. . ... : ... .. . ... : ... .. . F01 ...
ROW 10 : ... .. . ... ... : ... .. . ... : ... .. . ... : ... .. . ... : ... .. . F02 ...
ROW 11 : ... .. . ... ... : ... .. . ... : --- .. . ... : --- .. . ... : ... .. . F01 ...
ROW 12 : ... .. . ... ... : ... .. . ... : F#3 19 . ... : C-# 08 . ... : ... .. . F02 ...
ROW 13 : ... .. . ... ... : ... .. . ... : G-2 01 . ... : ... .. . ... : ... .. . F01 ...
ROW 14 : ... .. . ... ... : ... .. . ... : ... .. . ... : ... .. . ... : ... .. . F02 ...
ROW 15 : ... .. . ... ... : ... .. . ... : ... .. . ... : ... .. . ... : ... .. . F01 ...
ROW 16 : ... .. . ... ... : ... .. . ... : ... .. . ... : ... .. . ... : ... .. . F02 ...
ROW 17 : ... .. . ... ... : ... .. . ... : ... .. . ... : ... .. . ... : ... .. . F01 ...
ROW 18 : ... .. . ... ... : ... .. . ... : --- .. . ... : F-# 04 . ... : ... .. . F02 ...
ROW 19 : ... .. . ... ... : ... .. . ... : ... .. . ... : ... .. . ... : ... .. . F01 ...
ROW 1A : ... .. . ... ... : ... .. . ... : ... .. . ... : ... .. . ... : ... .. . F02 ...
ROW 1B : ... .. . ... ... : ... .. . ... : ... .. . ... : ... .. . ... : ... .. . F01 ...
ROW 1C : ... .. . ... ... : ... .. . ... : ... .. . ... : ... .. . ... : ... .. . F02 ...
ROW 1D : ... .. . ... ... : ... .. . ... : ... .. . ... : ... .. . ... : ... .. . F01 ...
ROW 1E : D-3 0A . ... ... : A#2 0A . ... : F#3 19 . ... : F-# 04 . ... : ... .. . ... ...
ROW 1F : ... .. . ... ... : ... .. . ... : G-2 01 . ... : ... .. . ... : ... .. . F01 ...
ROW 20 : ... .. . ... ... : ... .. . ... : ... .. . ... : ... .. . ... : ... .. . F02 ...
ROW 21 : ... .. . ... ... : ... .. . ... : ... .. . ... : ... .. . ... : ... .. . F01 ...
ROW 22 : ... .. . ... ... : ... .. . ... : ... .. . ... : ... .. . ... : ... .. . F02 ...
ROW 23 : ... .. . ... ... : ... .. . ... : --- .. . ... : ... .. . ... : ... .. . F01 ...
ROW 24 : ... .. . ... ... : ... .. . ... : F#3 19 . ... : F-# 03 . ... : ... .. . F02 ...
ROW 25 : ... .. . ... ... : ... .. . ... : G-2 01 . ... : ... .. . ... : ... .. . F01 ...
ROW 26 : ... .. . ... ... : ... .. . ... : ... .. . ... : ... .. . ... : ... .. . F02 ...
ROW 27 : ... .. . ... ... : ... .. . ... : ... .. . ... : ... .. . ... : ... .. . F01 ...
ROW 28 : ... .. . ... ... : ... .. . ... : ... .. . ... : ... .. . ... : ... .. . F02 ...
ROW 29 : ... .. . ... ... : ... .. . ... : ... .. . ... : ... .. . ... : ... .. . F01 ...
ROW 2A : ... .. . ... ... : ... .. . ... : G-2 05 . ... : F-# 04 . ... : ... .. . F02 ...
ROW 2B : ... .. . ... ... : ... .. . ... : ... .. . ... : ... .. . ... : ... .. . F01 ...
ROW 2C : ... .. . ... ... : ... .. . ... : ... .. . ... : ... .. . ... : ... .. . F02 ...
ROW 2D : ... .. . ... ... : ... .. . ... : ... .. . ... : ... .. . ... : ... .. . F01 ...
ROW 2E : ... .. . ... ... : ... .. . ... : ... .. . ... : ... .. . ... : ... .. . F02 ...
ROW 2F : ... .. . ... ... : ... .. . ... : --- .. . ... : ... .. . ... : ... .. . F01 ...
ROW 30 : ... .. . ... ... : ... .. . ... : F#3 19 . ... : C-# 08 . ... : ... .. . F02 ...
ROW 31 : ... .. . ... ... : ... .. . ... : D-2 01 . ... : ... .. . ... : ... .. . F01 ...
ROW 32 : ... .. . ... ... : ... .. . ... : ... .. . ... : ... .. . ... : ... .. . F02 ...
ROW 33 : ... .. . ... ... : ... .. . ... : ... .. . ... : ... .. . ... : ... .. . F01 ...
ROW 34 : ... .. . ... ... : ... .. . ... : ... .. . ... : ... .. . ... : ... .. . F02 ...
ROW 35 : ... .. . ... ... : ... .. . ... : ... .. . ... : ... .. . ... : ... .. . F01 ...
ROW 36 : ... .. . ... ... : ... .. . ... : D-2 05 . ... : F-# 04 . ... : ... .. . F02 ...
ROW 37 : ... .. . ... ... : ... .. . ... : ... .. . ... : ... .. . ... : ... .. . F01 ...
ROW 38 : ... .. . ... ... : ... .. . ... : ... .. . ... : ... .. . ... : ... .. . F02 ...
ROW 39 : ... .. . ... ... : ... .. . ... : ... .. . ... : F-# 03 . ... : ... .. . F01 ...
ROW 3A : ... .. . ... ... : ... .. . ... : ... .. . ... : ... .. . ... : ... .. . F02 ...
ROW 3B : ... .. . ... ... : ... .. . ... : --- .. . ... : ... .. . ... : ... .. . F01 ...

PATTERN 06
ROW 00 : F-3 09 . ... ... : ... .. . ... : F#3 19 . ... : F-# 03 . ... : ... .. . F02 ...
ROW 01 : ... .. . ... ... : A#2 09 . ... : G-2 01 . ... : ... .. . ... : ... .. . F01 ...
ROW 02 : ... .. . ... ... : ... .. . ... : ... .. . ... : ... .. . ... : ... .. . F02 ...
ROW 03 : ... .. . ... ... : ... .. . ... : ... .. . ... : ... .. . ... : ... .. . F01 ...
ROW 04 : ... .. . ... ... : ... .. . ... : ... .. . ... : ... .. . ... : ... .. . F02 ...
ROW 05 : ... .. . ... ... : ... .. . ... : ... .. . ... : ... .. . ... : ... .. . F01 ...
ROW 06 : ... .. . ... ... : ... .. . ... : ... .. . ... : F-# 04 . ... : ... .. . F02 ...
ROW 07 : ... .. . ... ... : ... .. . ... : ... .. . ... : ... .. . ... : ... .. . F01 ...
ROW 08 : ... .. . ... ... : ... .. . ... : ... .. . ... : ... .. . ... : ... .. . F02 ...
ROW 09 : ... .. . ... ... : ... .. . ... : ... .. . ... : ... .. . ... : ... .. . F01 ...
ROW 0A : ... .. . ... ... : ... .. . ... : ... .. . ... : ... .. . ... : ... .. . F02 ...
ROW 0B : ... .. . ... ... : ... .. . ... : ... .. . ... : ... .. . ... : ... .. . F01 ...
ROW 0C : ... .. . ... ... : ... .. . ... : G-2 05 . ... : F-# 04 . ... : ... .. . F02 ...
ROW 0D : ... .. . ... ... : ... .. . ... : ... .. . ... : ... .. . ... : ... .. . F01 ...
ROW 0E : ... .. . ... ... : ... .. . ... : ... .. . ... : ... .. . ... : ... .. . F02 ...
ROW 0F : ... .. . ... ... : ... .. . ... : ... .. . ... : ... .. . ... : ... .. . F01 ...
ROW 10 : ... .. . ... ... : ... .. . ... : ... .. . ... : ... .. . ... : ... .. . F02 ...
ROW 11 : ... .. . ... ... : ... .. . ... : --- .. . ... : ... .. . ... : ... .. . F01 ...
ROW 12 : ... .. . ... ... : ... .. . ... : F#3 19 . ... : C-# 08 . ... : ... .. . F02 ...
ROW 13 : ... .. . ... ... : ... .. . ... : G-2 01 . ... : ... .. . ... : ... .. . F01 ...
ROW 14 : ... .. . ... ... : ... .. . ... : ... .. . ... : ... .. . ... : ... .. . F02 ...
ROW 15 : ... .. . ... ... : ... .. . ... : ... .. . ... : ... .. . ... : ... .. . F01 ...
ROW 16 : ... .. . ... ... : ... .. . ... : ... .. . ... : ... .. . ... : ... .. . F02 ...
ROW 17 : ... .. . ... ... : ... .. . ... : ... .. . ... : ... .. . ... : ... .. . F01 ...
ROW 18 : ... .. . ... ... : ... .. . ... : --- .. . ... : F-# 04 . ... : ... .. . F02 ...
ROW 19 : ... .. . ... ... : ... .. . ... : ... .. . ... : ... .. . ... : ... .. . F01 ...
ROW 1A : ... .. . ... ... : ... .. . ... : ... .. . ... : ... .. . ... : ... .. . F02 ...
ROW 1B : ... .. . ... ... : ... .. . ... : ... .. . ... : ... .. . ... : ... .. . F01 ...
ROW 1C : ... .. . ... ... : ... .. . ... : ... .. . ... : ... .. . ... : ... .. . F02 ...
ROW 1D : ... .. . ... ... : ... .. . ... : ... .. . ... : ... .. . ... : ... .. . F01 ...
ROW 1E : F-3 0A . ... ... : A#2 0A . ... : F#3 19 . ... : F-# 04 . ... : ... .. . ... ...
ROW 1F : ... .. . ... ... : ... .. . ... : G-2 01 . ... : ... .. . ... : ... .. . F01 ...
ROW 20 : ... .. . ... ... : ... .. . ... : ... .. . ... : ... .. . ... : ... .. . F02 ...
ROW 21 : ... .. . ... ... : ... .. . ... : ... .. . ... : ... .. . ... : ... .. . F01 ...
ROW 22 : ... .. . ... ... : ... .. . ... : ... .. . ... : ... .. . ... : ... .. . F02 ...
ROW 23 : ... .. . ... ... : ... .. . ... : --- .. . ... : ... .. . ... : ... .. . F01 ...
ROW 24 : ... .. . ... ... : ... .. . ... : F#3 19 . ... : F-# 03 . ... : ... .. . F02 ...
ROW 25 : ... .. . ... ... : ... .. . ... : G-2 01 . ... : ... .. . ... : ... .. . F01 ...
ROW 26 : ... .. . ... ... : ... .. . ... : ... .. . ... : ... .. . ... : ... .. . F02 ...
ROW 27 : ... .. . ... ... : ... .. . ... : ... .. . ... : ... .. . ... : ... .. . F01 ...
ROW 28 : ... .. . ... ... : ... .. . ... : ... .. . ... : ... .. . ... : ... .. . F02 ...
ROW 29 : ... .. . ... ... : ... .. . ... : ... .. . ... : ... .. . ... : ... .. . F01 ...
ROW 2A : ... .. . ... ... : ... .. . ... : G-2 05 . ... : F-# 04 . ... : ... .. . F02 ...
ROW 2B : ... .. . ... ... : ... .. . ... : ... .. . ... : ... .. . ... : ... .. . F01 ...
ROW 2C : ... .. . ... ... : ... .. . ... : ... .. . ... : ... .. . ... : ... .. . F02 ...
ROW 2D : ... .. . ... ... : ... .. . ... : ... .. . ... : ... .. . ... : ... .. . F01 ...
ROW 2E : ... .. . ... ... : ... .. . ... : ... .. . ... : ... .. . ... : ... .. . F02 ...
ROW 2F : ... .. . ... ... : ... .. . ... : --- .. . ... : ... .. . ... : ... .. . F01 ...
ROW 30 : ... .. . ... ... : ... .. . ... : F#3 19 . ... : C-# 08 . ... : ... .. . F02 ...
ROW 31 : ... .. . ... ... : ... .. . ... : D-2 01 . ... : ... .. . ... : ... .. . F01 ...
ROW 32 : ... .. . ... ... : ... .. . ... : ... .. . ... : ... .. . ... : ... .. . F02 ...
ROW 33 : ... .. . ... ... : ... .. . ... : ... .. . ... : ... .. . ... : ... .. . F01 ...
ROW 34 : ... .. . ... ... : ... .. . ... : ... .. . ... : ... .. . ... : ... .. . F02 ...
ROW 35 : ... .. . ... ... : ... .. . ... : ... .. . ... : ... .. . ... : ... .. . F01 ...
ROW 36 : ... .. . ... ... : ... .. . ... : D-2 05 . ... : F-# 04 . ... : ... .. . F02 ...
ROW 37 : ... .. . ... ... : ... .. . ... : ... .. . ... : ... .. . ... : ... .. . F01 ...
ROW 38 : ... .. . ... ... : ... .. . ... : ... .. . ... : ... .. . ... : ... .. . F02 ...
ROW 39 : ... .. . ... ... : ... .. . ... : ... .. . ... : F-# 03 . ... : ... .. . F01 ...
ROW 3A : ... .. . ... ... : ... .. . ... : ... .. . ... : ... .. . ... : ... .. . F02 ...
ROW 3B : ... .. . ... ... : ... .. . ... : --- .. . ... : ... .. . ... : ... .. . F01 ...

PATTERN 07
ROW 00 : E-3 09 . ... ... : ... .. . ... : F#3 19 . ... : F-# 03 . ... : ... .. . F02 ...
ROW 01 : ... .. . ... ... : C-3 09 . ... : G-2 01 . ... : ... .. . ... : ... .. . F01 ...
ROW 02 : ... .. . ... ... : ... .. . ... : ... .. . ... : ... .. . ... : ... .. . F02 ...
ROW 03 : ... .. . ... ... : ... .. . ... : ... .. . ... : ... .. . ... : ... .. . F01 ...
ROW 04 : ... .. . ... ... : ... .. . ... : ... .. . ... : ... .. . ... : ... .. . F02 ...
ROW 05 : ... .. . ... ... : ... .. . ... : ... .. . ... : ... .. . ... : ... .. . F01 ...
ROW 06 : ... .. . ... ... : ... .. . ... : ... .. . ... : F-# 04 . ... : ... .. . F02 ...
ROW 07 : ... .. . ... ... : ... .. . ... : ... .. . ... : ... .. . ... : ... .. . F01 ...
ROW 08 : ... .. . ... ... : ... .. . ... : ... .. . ... : ... .. . ... : ... .. . F02 ...
ROW 09 : ... .. . ... ... : ... .. . ... : ... .. . ... : ... .. . ... : ... .. . F01 ...
ROW 0A : ... .. . ... ... : ... .. . ... : ... .. . ... : ... .. . ... : ... .. . F02 ...
ROW 0B : ... .. . ... ... : ... .. . ... : --- .. . ... : ... .. . ... : ... .. . F01 ...
ROW 0C : ... .. . ... ... : ... .. . ... : G-2 05 . ... : F-# 04 . ... : ... .. . F02 ...
ROW 0D : ... .. . ... ... : ... .. . ... : ... .. . ... : ... .. . ... : ... .. . F01 ...
ROW 0E : ... .. . ... ... : ... .. . ... : ... .. . ... : ... .. . ... : ... .. . F02 ...
ROW 0F : ... .. . ... ... : ... .. . ... : ... .. . ... : ... .. . ... : ... .. . F01 ...
ROW 10 : ... .. . ... ... : ... .. . ... : ... .. . ... : ... .. . ... : ... .. . F02 ...
ROW 11 : ... .. . ... ... : ... .. . ... : ... .. . ... : ... .. . ... : ... .. . F01 ...
ROW 12 : ... .. . ... ... : ... .. . ... : F#3 19 . ... : C-# 08 . ... : ... .. . F02 ...
ROW 13 : ... .. . ... ... : ... .. . ... : G-2 01 . ... : ... .. . ... : ... .. . F01 ...
ROW 14 : ... .. . ... ... : ... .. . ... : ... .. . ... : ... .. . ... : ... .. . F02 ...
ROW 15 : ... .. . ... ... : ... .. . ... : ... .. . ... : ... .. . ... : ... .. . F01 ...
ROW 16 : ... .. . ... ... : ... .. . ... : ... .. . ... : ... .. . ... : ... .. . F02 ...
ROW 17 : ... .. . ... ... : ... .. . ... : ... .. . ... : ... .. . ... : ... .. . F01 ...
ROW 18 : ... .. . ... ... : ... .. . ... : --- .. . ... : F-# 04 . ... : ... .. . F02 ...
ROW 19 : ... .. . ... ... : ... .. . ... : ... .. . ... : ... .. . ... : ... .. . F01 ...
ROW 1A : ... .. . ... ... : ... .. . ... : ... .. . ... : ... .. . ... : ... .. . F02 ...
ROW 1B : ... .. . ... ... : ... .. . ... : ... .. . ... : ... .. . ... : ... .. . F01 ...
ROW 1C : ... .. . ... ... : ... .. . ... : ... .. . ... : ... .. . ... : ... .. . F02 ...
ROW 1D : ... .. . ... ... : ... .. . ... : ... .. . ... : ... .. . ... : ... .. . F01 ...
ROW 1E : E-3 0A . ... ... : C-3 0A . ... : F#3 19 . ... : F-# 04 . ... : ... .. . ... ...
ROW 1F : ... .. . ... ... : ... .. . ... : D-2 01 . ... : ... .. . ... : ... .. . F01 ...
ROW 20 : ... .. . ... ... : ... .. . ... : ... .. . ... : ... .. . ... : ... .. . F02 ...
ROW 21 : ... .. . ... ... : ... .. . ... : ... .. . ... : ... .. . ... : ... .. . F01 ...
ROW 22 : ... .. . ... ... : ... .. . ... : ... .. . ... : ... .. . ... : ... .. . F02 ...
ROW 23 : ... .. . ... ... : ... .. . ... : --- .. . ... : ... .. . ... : ... .. . F01 ...
ROW 24 : ... .. . ... ... : ... .. . ... : F#3 19 . ... : F-# 03 . ... : ... .. . F02 ...
ROW 25 : ... .. . ... ... : ... .. . ... : D-2 01 . ... : ... .. . ... : ... .. . F01 ...
ROW 26 : ... .. . ... ... : ... .. . ... : ... .. . ... : ... .. . ... : ... .. . F02 ...
ROW 27 : ... .. . ... ... : ... .. . ... : ... .. . ... : ... .. . ... : ... .. . F01 ...
ROW 28 : ... .. . ... ... : ... .. . ... : ... .. . ... : ... .. . ... : ... .. . F02 ...
ROW 29 : ... .. . ... ... : ... .. . ... : ... .. . ... : ... .. . ... : ... .. . F01 ...
ROW 2A : ... .. . ... ... : ... .. . ... : D-2 05 . ... : F-# 04 . ... : ... .. . F02 ...
ROW 2B : ... .. . ... ... : ... .. . ... : ... .. . ... : ... .. . ... : ... .. . F01 ...
ROW 2C : ... .. . ... ... : ... .. . ... : ... .. . ... : ... .. . ... : ... .. . F02 ...
ROW 2D : ... .. . ... ... : ... .. . ... : ... .. . ... : ... .. . ... : ... .. . F01 ...
ROW 2E : ... .. . ... ... : ... .. . ... : ... .. . ... : ... .. . ... : ... .. . F02 ...
ROW 2F : ... .. . ... ... : ... .. . ... : --- .. . ... : ... .. . ... : ... .. . F01 ...
ROW 30 : G-3 01 . ... ... : ... .. . ... : F#3 19 . ... : C-# 07 . ... : ... .. . F02 ...
ROW 31 : ... .. . ... ... : ... .. . ... : D-2 01 . ... : ... .. . ... : ... .. . F01 ...
ROW 32 : ... .. . ... ... : ... .. . ... : ... .. . ... : ... .. . ... : ... .. . F02 ...
ROW 33 : ... .. . ... ... : ... .. . ... : ... .. . ... : ... .. . ... : ... .. . F01 ...
ROW 34 : ... .. . ... ... : ... .. . ... : F#3 19 . ... : C-# 07 . ... : ... .. . F02 ...
ROW 35 : ... .. . ... ... : ... .. . ... : D-2 05 . ... : ... .. . ... : ... .. . F01 ...
ROW 36 : C-4 01 . ... ... : ... .. . ... : ... .. . ... : ... .. . ... : ... .. . F02 ...
ROW 37 : C#4 01 . ... ... : ... .. . ... : ... .. . ... : ... .. . ... : ... .. . F01 ...
ROW 38 : D-4 01 . ... ... : ... .. . ... : F#3 19 . ... : C-# 07 . ... : ... .. . F02 ...
ROW 39 : ... .. . ... ... : ... .. . ... : D-2 05 . ... : ... .. . ... : ... .. . F01 ...
ROW 3A : ... .. . ... ... : ... .. . ... : ... .. . ... : ... .. . ... : ... .. . F02 ...
ROW 3B : ... .. . ... ... : ... .. . ... : ... .. . ... : ... .. . ... : ... .. . F01 ...

PATTERN 08
ROW 00 : ... .. . ... ... : G-2 0F . ... : F#3 19 . ... : 9-# 06 . ... : ... .. . F02 ...
ROW 01 : ... .. . ... ... : ... .. . ... : G-2 01 . ... : ... .. . ... : ... .. . F01 ...
ROW 02 : ... .. . ... ... : ... .. . ... : ... .. . ... : ... .. . ... : ... .. . F02 ...
ROW 03 : ... .. . ... ... : ... .. . ... : ... .. . ... : ... .. . ... : ... .. . F01 ...
ROW 04 : ... .. . ... ... : ... .. . ... : ... .. . ... : ... .. . ... : ... .. . F02 ...
ROW 05 : ... .. . ... ... : ... .. . ... : ... .. . ... : ... .. . ... : ... .. . F01 ...
ROW 06 : ... .. . ... ... : ... .. . ... : ... .. . ... : ... .. . ... : ... .. . F02 ...
ROW 07 : ... .. . ... ... : ... .. . ... : ... .. . ... : ... .. . ... : ... .. . F01 ...
ROW 08 : ... .. . ... ... : ... .. . ... : ... .. . ... : ... .. . ... : ... .. . F02 ...
ROW 09 : ... .. . ... ... : ... .. . ... : ... .. . ... : ... .. . ... : ... .. . F01 ...
ROW 0A : ... .. . ... ... : ... .. . ... : ... .. . ... : ... .. . ... : ... .. . F02 ...
ROW 0B : ... .. . ... ... : ... .. . ... : ... .. . ... : ... .. . ... : ... .. . F01 ...
ROW 0C : ... .. . ... ... : ... .. . ... : G-2 05 . ... : ... .. . ... : ... .. . F02 ...
ROW 0D : ... .. . ... ... : ... .. . ... : ... .. . ... : ... .. . ... : ... .. . F01 ...
ROW 0E : ... .. . ... ... : ... .. . ... : ... .. . ... : ... .. . ... : ... .. . F02 ...
ROW 0F : ... .. . ... ... : ... .. . ... : ... .. . ... : ... .. . ... : ... .. . F01 ...
ROW 10 : ... .. . ... ... : ... .. . ... : ... .. . ... : ... .. . ... : ... .. . F02 ...
ROW 11 : ... .. . ... ... : ... .. . ... : --- .. . ... : --- .. . ... : ... .. . F01 ...
ROW 12 : D-4 0B . ... ... : ... .. . ... : F#3 19 . ... : C-# 08 . ... : ... .. . F02 ...
ROW 13 : ... .. . ... ... : ... .. . ... : G-2 01 . ... : ... .. . ... : ... .. . F01 ...
ROW 14 : ... .. . ... ... : ... .. . ... : ... .. . ... : ... .. . ... : ... .. . F02 ...
ROW 15 : ... .. . ... ... : ... .. . ... : ... .. . ... : ... .. . ... : ... .. . F01 ...
ROW 16 : ... .. . ... ... : ... .. . ... : ... .. . ... : ... .. . ... : ... .. . F02 ...
ROW 17 : ... .. . ... ... : ... .. . ... : ... .. . ... : ... .. . ... : ... .. . F01 ...
ROW 18 : ... .. . ... ... : ... .. . ... : --- .. . ... : F-# 04 . ... : ... .. . F02 ...
ROW 19 : ... .. . ... ... : ... .. . ... : ... .. . ... : ... .. . ... : ... .. . F01 ...
ROW 1A : ... .. . ... ... : ... .. . ... : ... .. . ... : ... .. . ... : ... .. . F02 ...
ROW 1B : ... .. . ... ... : ... .. . ... : ... .. . ... : ... .. . ... : ... .. . F01 ...
ROW 1C : ... .. . ... ... : ... .. . ... : ... .. . ... : ... .. . ... : ... .. . F02 ...
ROW 1D : ... .. . ... ... : ... .. . ... : ... .. . ... : ... .. . ... : ... .. . F01 ...
ROW 1E : ... .. . ... ... : ... .. . ... : F#3 19 . ... : F-# 04 . ... : ... .. . F02 ...
ROW 1F : ... .. . ... ... : ... .. . ... : G-2 01 . ... : ... .. . ... : ... .. . F01 ...
ROW 20 : ... .. . ... ... : ... .. . ... : ... .. . ... : ... .. . ... : ... .. . F02 ...
ROW 21 : ... .. . ... ... : ... .. . ... : ... .. . ... : ... .. . ... : ... .. . F01 ...
ROW 22 : ... .. . ... ... : ... .. . ... : ... .. . ... : ... .. . ... : ... .. . F02 ...
ROW 23 : ... .. . ... ... : ... .. . ... : --- .. . ... : ... .. . ... : ... .. . F01 ...
ROW 24 : D-4 02 . ... ... : ... .. . ... : F#3 19 . ... : F-# 03 . ... : ... .. . F02 ...
ROW 25 : ... .. . ... ... : ... .. . ... : G-2 01 . ... : ... .. . ... : ... .. . F01 ...
ROW 26 : ... .. . ... ... : ... .. . ... : ... .. . ... : ... .. . ... : ... .. . F02 ...
ROW 27 : ... .. . ... ... : D-3 12 . ... : ... .. . ... : ... .. . ... : ... .. . F01 ...
ROW 28 : ... .. . ... ... : ... .. . ... : ... .. . ... : ... .. . ... : ... .. . F02 ...
ROW 29 : ... .. . ... ... : ... .. . ... : ... .. . ... : ... .. . ... : ... .. . F01 ...
ROW 2A : ... .. . ... ... : G-3 12 . ... : G-2 05 . ... : F-# 04 . ... : ... .. . F02 ...
ROW 2B : ... .. . ... ... : ... .. . ... : ... .. . ... : ... .. . ... : ... .. . F01 ...
ROW 2C : ... .. . ... ... : ... .. . ... : ... .. . ... : ... .. . ... : ... .. . F02 ...
ROW 2D : ... .. . ... ... : A#3 12 . ... : ... .. . ... : ... .. . ... : ... .. . F01 ...
ROW 2E : ... .. . ... ... : ... .. . ... : ... .. . ... : ... .. . ... : ... .. . F02 ...
ROW 2F : --- .. . ... ... : ... .. . ... : --- .. . ... : ... .. . ... : ... .. . F01 ...
ROW 30 : C-4 01 . ... ... : D-4 12 . ... : F#3 19 . ... : C-# 08 . ... : ... .. . ... ...
ROW 31 : ... .. . ... ... : ... .. . ... : D-2 01 . ... : ... .. . ... : ... .. . F01 ...
ROW 32 : ... .. . ... ... : ... .. . ... : ... .. . ... : ... .. . ... : ... .. . F02 ...
ROW 33 : ... .. . ... ... : G-4 12 . ... : ... .. . ... : ... .. . ... : ... .. . F01 ...
ROW 34 : ... .. . ... ... : ... .. . ... : ... .. . ... : ... .. . ... : ... .. . F02 ...
ROW 35 : --- .. . ... ... : ... .. . ... : ... .. . ... : ... .. . ... : ... .. . F01 ...
ROW 36 : D-4 01 . ... ... : A#4 12 . ... : D-2 05 . ... : F-# 04 . ... : ... .. . ... ...
ROW 37 : ... .. . ... ... : ... .. . ... : ... .. . ... : ... .. . ... : ... .. . F01 ...
ROW 38 : ... .. . ... ... : ... .. . ... : ... .. . ... : ... .. . ... : ... .. . F02 ...
ROW 39 : ... .. . ... ... : D-5 12 . ... : ... .. . ... : F-# 04 . ... : ... .. . F01 ...
ROW 3A : ... .. . ... ... : ... .. . ... : ... .. . ... : ... .. . ... : ... .. . F02 ...
ROW 3B : --- .. . ... ... : ... .. . ... : --- .. . ... : ... .. . ... : ... .. . F01 ...

PATTERN 09
ROW 00 : D-4 01 . ... ... : C-3 10 . ... : F#3 19 . ... : ... .. . ... : ... .. . F02 ...
ROW 01 : ... .. . ... ... : ... .. . ... : G-2 01 . ... : ... .. . ... : ... .. . F01 ...
ROW 02 : ... .. . ... ... : ... .. . ... : ... .. . ... : ... .. . ... : ... .. . F02 ...
ROW 03 : ... .. . ... ... : ... .. . ... : ... .. . ... : ... .. . ... : ... .. . F01 ...
ROW 04 : ... .. . ... ... : ... .. . ... : ... .. . ... : ... .. . ... : ... .. . F02 ...
ROW 05 : ... .. . ... ... : ... .. . ... : ... .. . ... : ... .. . ... : ... .. . F01 ...
ROW 06 : D-4 01 . ... ... : ... .. . ... : ... .. . ... : F-# 04 . ... : ... .. . F02 ...
ROW 07 : ... .. . ... ... : ... .. . ... : ... .. . ... : ... .. . ... : ... .. . F01 ...
ROW 08 : ... .. . ... ... : ... .. . ... : ... .. . ... : ... .. . ... : ... .. . F02 ...
ROW 09 : ... .. . ... ... : ... .. . ... : ... .. . ... : ... .. . ... : ... .. . F01 ...
ROW 0A : ... .. . ... ... : ... .. . ... : ... .. . ... : ... .. . ... : ... .. . F02 ...
ROW 0B : --- .. . ... ... : ... .. . ... : --- .. . ... : ... .. . ... : ... .. . F01 ...
ROW 0C : E-4 01 . ... ... : ... .. . ... : G-2 05 . ... : F-# 04 . ... : ... .. . F02 ...
ROW 0D : ... .. . ... ... : ... .. . ... : ... .. . ... : ... .. . ... : ... .. . F01 ...
ROW 0E : ... .. . ... ... : ... .. . ... : ... .. . ... : ... .. . ... : ... .. . F02 ...
ROW 0F : ... .. . ... ... : ... .. . ... : ... .. . ... : ... .. . ... : ... .. . F01 ...
ROW 10 : ... .. . ... ... : ... .. . ... : ... .. . ... : ... .. . ... : ... .. . F02 ...
ROW 11 : ... .. . ... ... : ... .. . ... : ... .. . ... : ... .. . ... : ... .. . F01 ...
ROW 12 : A#3 01 . ... ... : ... .. . ... : F#3 19 . ... : C-# 08 . ... : ... .. . F02 ...
ROW 13 : B-3 01 . ... ... : ... .. . ... : G-2 01 . ... : ... .. . ... : ... .. . F01 ...
ROW 14 : C-4 01 . ... ... : ... .. . ... : ... .. . ... : ... .. . ... : ... .. . F02 ...
ROW 15 : ... .. . ... ... : ... .. . ... : ... .. . ... : ... .. . ... : ... .. . F01 ...
ROW 16 : ... .. . ... ... : ... .. . ... : ... .. . ... : ... .. . ... : ... .. . F02 ...
ROW 17 : ... .. . ... ... : ... .. . ... : ... .. . ... : ... .. . ... : ... .. . F01 ...
ROW 18 : ... .. . ... ... : ... .. . ... : --- .. . ... : F-# 04 . ... : ... .. . F02 ...
ROW 19 : ... .. . ... ... : ... .. . ... : ... .. . ... : ... .. . ... : ... .. . F01 ...
ROW 1A : ... .. . ... ... : ... .. . ... : ... .. . ... : ... .. . ... : ... .. . F02 ...
ROW 1B : ... .. . ... ... : ... .. . ... : ... .. . ... : ... .. . ... : ... .. . F01 ...
ROW 1C : ... .. . ... ... : ... .. . ... : ... .. . ... : ... .. . ... : ... .. . F02 ...
ROW 1D : ... .. . ... ... : ... .. . ... : ... .. . ... : ... .. . ... : ... .. . F01 ...
ROW 1E : C-4 0B . ... ... : ... .. . ... : F#3 19 . ... : F-# 04 . ... : ... .. . F02 ...
ROW 1F : ... .. . ... ... : ... .. . ... : G-2 01 . ... : ... .. . ... : ... .. . F01 ...
ROW 20 : ... .. . ... ... : ... .. . ... : ... .. . ... : ... .. . ... : ... .. . F02 ...
ROW 21 : ... .. . ... ... : ... .. . ... : ... .. . ... : ... .. . ... : ... .. . F01 ...
ROW 22 : ... .. . ... ... : ... .. . ... : ... .. . ... : ... .. . ... : ... .. . F02 ...
ROW 23 : ... .. . ... ... : ... .. . ... : --- .. . ... : ... .. . ... : ... .. . F01 ...
ROW 24 : ... .. . ... ... : C-6 12 . ... : F#3 19 . ... : F-# 03 . ... : ... .. . F02 ...
ROW 25 : ... .. . ... ... : ... .. . ... : G-2 01 . ... : ... .. . ... : ... .. . F01 ...
ROW 26 : ... .. . ... ... : ... .. . ... : ... .. . ... : ... .. . ... : ... .. . F02 ...
ROW 27 : ... .. . ... ... : G-5 12 . ... : ... .. . ... : ... .. . ... : ... .. . F01 ...
ROW 28 : ... .. . ... ... : ... .. . ... : ... .. . ... : ... .. . ... : ... .. . F02 ...
ROW 29 : ... .. . ... ... : ... .. . ... : ... .. . ... : ... .. . ... : ... .. . F01 ...
ROW 2A : C-4 02 . ... ... : E-5 12 . ... : G-2 05 . ... : F-# 04 . ... : ... .. . ... ...
ROW 2B : ... .. . ... ... : ... .. . ... : ... .. . ... : ... .. . ... : ... .. . F01 ...
ROW 2C : ... .. . ... ... : ... .. . ... : ... .. . ... : ... .. . ... : ... .. . F02 ...
ROW 2D : ... .. . ... ... : G-5 12 . ... : ... .. . ... : ... .. . ... : ... .. . F01 ...
ROW 2E : ... .. . ... ... : ... .. . ... : ... .. . ... : ... .. . ... : ... .. . F02 ...
ROW 2F : --- .. . ... ... : ... .. . ... : --- .. . ... : ... .. . ... : ... .. . F01 ...
ROW 30 : A#3 01 . ... ... : E-5 12 . ... : F#3 19 . ... : C-# 08 . ... : ... .. . ... ...
ROW 31 : ... .. . ... ... : ... .. . ... : D-2 01 . ... : ... .. . ... : ... .. . F01 ...
ROW 32 : ... .. . ... ... : ... .. . ... : ... .. . ... : ... .. . ... : ... .. . F02 ...
ROW 33 : ... .. . ... ... : C-5 12 . ... : ... .. . ... : ... .. . ... : ... .. . F01 ...
ROW 34 : ... .. . ... ... : ... .. . ... : ... .. . ... : ... .. . ... : ... .. . F02 ...
ROW 35 : --- .. . ... ... : ... .. . ... : --- .. . ... : ... .. . ... : ... .. . F01 ...
ROW 36 : A-3 01 . ... ... : E-5 12 . ... : F#3 19 . ... : C-# 08 . ... : ... .. . ... ...
ROW 37 : ... .. . ... ... : ... .. . ... : D-2 01 . ... : ... .. . ... : ... .. . F01 ...
ROW 38 : ... .. . ... ... : ... .. . ... : ... .. . ... : ... .. . ... : ... .. . F02 ...
ROW 39 : ... .. . ... ... : C-5 12 . ... : ... .. . ... : ... .. . ... : ... .. . F01 ...
ROW 3A : ... .. . ... ... : ... .. . ... : ... .. . ... : ... .. . ... : ... .. . F02 ...
ROW 3B : --- .. . ... ... : ... .. . ... : --- .. . ... : ... .. . ... : ... .. . F01 ...

PATTERN 0A
ROW 00 : A#3 01 . ... ... : ... .. . ... : F#3 19 . ... : F-# 03 . ... : ... .. . F02 ...
ROW 01 : ... .. . ... ... : D#3 10 . ... : G-2 01 . ... : ... .. . ... : ... .. . F01 ...
ROW 02 : ... .. . ... ... : ... .. . ... : ... .. . ... : ... .. . ... : ... .. . F02 ...
ROW 03 : ... .. . ... ... : ... .. . ... : ... .. . ... : ... .. . ... : ... .. . F01 ...
ROW 04 : ... .. . ... ... : ... .. . ... : ... .. . ... : ... .. . ... : ... .. . F02 ...
ROW 05 : ... .. . ... ... : ... .. . ... : ... .. . ... : ... .. . ... : ... .. . F01 ...
ROW 06 : A-3 01 . ... ... : ... .. . ... : ... .. . ... : F-# 04 . ... : ... .. . F02 ...
ROW 07 : ... .. . ... ... : ... .. . ... : ... .. . ... : ... .. . ... : ... .. . F01 ...
ROW 08 : ... .. . ... ... : ... .. . ... : ... .. . ... : ... .. . ... : ... .. . F02 ...
ROW 09 : ... .. . ... ... : ... .. . ... : ... .. . ... : ... .. . ... : ... .. . F01 ...
ROW 0A : ... .. . ... ... : ... .. . ... : ... .. . ... : ... .. . ... : ... .. . F02 ...
ROW 0B : --- .. . ... ... : ... .. . ... : ... .. . ... : ... .. . ... : ... .. . F01 ...
ROW 0C : G-3 01 . ... ... : ... .. . ... : G-2 05 . ... : F-# 04 . ... : ... .. . F02 ...
ROW 0D : ... .. . ... ... : ... .. . ... : ... .. . ... : ... .. . ... : ... .. . F01 ...
ROW 0E : ... .. . ... ... : ... .. . ... : ... .. . ... : ... .. . ... : ... .. . F02 ...
ROW 0F : ... .. . ... ... : ... .. . ... : ... .. . ... : ... .. . ... : ... .. . F01 ...
ROW 10 : ... .. . ... ... : ... .. . ... : ... .. . ... : ... .. . ... : ... .. . F02 ...
ROW 11 : ... .. . ... ... : ... .. . ... : --- .. . ... : ... .. . ... : ... .. . F01 ...
ROW 12 : ... .. . ... ... : ... .. . ... : F#3 19 . ... : C-# 08 . ... : ... .. . F02 ...
ROW 13 : ... .. . ... ... : ... .. . ... : G-2 01 . ... : ... .. . ... : ... .. . F01 ...
ROW 14 : ... .. . ... ... : ... .. . ... : ... .. . ... : ... .. . ... : ... .. . F02 ...
ROW 15 : ... .. . ... ... : ... .. . ... : ... .. . ... : ... .. . ... : ... .. . F01 ...
ROW 16 : ... .. . ... ... : ... .. . ... : ... .. . ... : ... .. . ... : ... .. . F02 ...
ROW 17 : ... .. . ... ... : ... .. . ... : ... .. . ... : ... .. . ... : ... .. . F01 ...
ROW 18 : ... .. . ... ... : ... .. . ... : --- .. . ... : F-# 04 . ... : ... .. . F02 ...
ROW 19 : ... .. . ... ... : ... .. . ... : ... .. . ... : ... .. . ... : ... .. . F01 ...
ROW 1A : ... .. . ... ... : ... .. . ... : ... .. . ... : ... .. . ... : ... .. . F02 ...
ROW 1B : ... .. . ... ... : ... .. . ... : ... .. . ... : ... .. . ... : ... .. . F01 ...
ROW 1C : ... .. . ... ... : ... .. . ... : ... .. . ... : ... .. . ... : ... .. . F02 ...
ROW 1D : ... .. . ... ... : ... .. . ... : ... .. . ... : ... .. . ... : ... .. . F01 ...
ROW 1E : G-3 0B . ... ... : ... .. . ... : F#3 19 . ... : F-# 04 . ... : ... .. . F02 ...
ROW 1F : ... .. . ... ... : ... .. . ... : G-2 01 . ... : ... .. . ... : ... .. . F01 ...
ROW 20 : ... .. . ... ... : ... .. . ... : ... .. . ... : ... .. . ... : ... .. . F02 ...
ROW 21 : ... .. . ... ... : ... .. . ... : ... .. . ... : ... .. . ... : ... .. . F01 ...
ROW 22 : ... .. . ... ... : ... .. . ... : ... .. . ... : ... .. . ... : ... .. . F02 ...
ROW 23 : ... .. . ... ... : ... .. . ... : --- .. . ... : ... .. . ... : ... .. . F01 ...
ROW 24 : ... .. . ... ... : D#3 12 . ... : F#3 19 . ... : F-# 03 . ... : ... .. . F02 ...
ROW 25 : ... .. . ... ... : ... .. . ... : G-2 01 . ... : ... .. . ... : ... .. . F01 ...
ROW 26 : ... .. . ... ... : ... .. . ... : ... .. . ... : ... .. . ... : ... .. . F02 ...
ROW 27 : ... .. . ... ... : ... .. . ... : ... .. . ... : ... .. . ... : ... .. . F01 ...
ROW 28 : ... .. . ... ... : G-3 12 . ... : ... .. . ... : ... .. . ... : ... .. . F02 ...
ROW 29 : ... .. . ... ... : ... .. . ... : ... .. . ... : ... .. . ... : ... .. . F01 ...
ROW 2A : ... .. . ... ... : ... .. . ... : G-2 05 . ... : F-# 04 . ... : ... .. . F02 ...
ROW 2B : ... .. . ... ... : ... .. . ... : ... .. . ... : ... .. . ... : ... .. . F01 ...
ROW 2C : ... .. . ... ... : A#3 12 . ... : ... .. . ... : ... .. . ... : ... .. . F02 ...
ROW 2D : ... .. . ... ... : ... .. . ... : ... .. . ... : ... .. . ... : ... .. . F01 ...
ROW 2E : ... .. . ... ... : ... .. . ... : ... .. . ... : ... .. . ... : ... .. . F02 ...
ROW 2F : ... .. . ... ... : ... .. . ... : --- .. . ... : ... .. . ... : ... .. . F01 ...
ROW 30 : ... .. . ... ... : D#4 12 . ... : F#3 19 . ... : C-# 08 . ... : ... .. . F02 ...
ROW 31 : ... .. . ... ... : ... .. . ... : D-2 01 . ... : ... .. . ... : ... .. . F01 ...
ROW 32 : ... .. . ... ... : ... .. . ... : ... .. . ... : ... .. . ... : ... .. . F02 ...
ROW 33 : ... .. . ... ... : ... .. . ... : ... .. . ... : ... .. . ... : ... .. . F01 ...
ROW 34 : ... .. . ... ... : G-4 12 . ... : ... .. . ... : ... .. . ... : ... .. . F02 ...
ROW 35 : ... .. . ... ... : ... .. . ... : ... .. . ... : ... .. . ... : ... .. . F01 ...
ROW 36 : ... .. . ... ... : ... .. . ... : D-2 05 . ... : F-# 04 . ... : ... .. . F02 ...
ROW 37 : ... .. . ... ... : ... .. . ... : ... .. . ... : ... .. . ... : ... .. . F01 ...
ROW 38 : ... .. . ... ... : A#4 12 . ... : ... .. . ... : ... .. . ... : ... .. . F02 ...
ROW 39 : ... .. . ... ... : ... .. . ... : ... .. . ... : F-# 03 . ... : ... .. . F01 ...
ROW 3A : ... .. . ... ... : ... .. . ... : ... .. . ... : ... .. . ... : ... .. . F02 ...
ROW 3B : ... .. . ... ... : ... .. . ... : --- .. . ... : ... .. . ... : ... .. . F01 ...

PATTERN 0B
ROW 00 : G-3 02 . ... ... : ... .. . ... : F#3 19 . ... : F-# 03 . ... : ... .. . F02 ...
ROW 01 : ... .. . ... ... : F-3 10 . ... : G-2 01 . ... : ... .. . ... : ... .. . F01 ...
ROW 02 : ... .. . ... ... : ... .. . ... : ... .. . ... : ... .. . ... : ... .. . F02 ...
ROW 03 : ... .. . ... ... : ... .. . ... : ... .. . ... : ... .. . ... : ... .. . F01 ...
ROW 04 : ... .. . ... ... : ... .. . ... : ... .. . ... : ... .. . ... : ... .. . F02 ...
ROW 05 : ... .. . ... ... : ... .. . ... : ... .. . ... : ... .. . ... : ... .. . F01 ...
ROW 06 : ... .. . ... ... : ... .. . ... : ... .. . ... : F-# 04 . ... : ... .. . F02 ...
ROW 07 : ... .. . ... ... : ... .. . ... : ... .. . ... : ... .. . ... : ... .. . F01 ...
ROW 08 : ... .. . ... ... : ... .. . ... : ... .. . ... : ... .. . ... : ... .. . F02 ...
ROW 09 : ... .. . ... ... : ... .. . ... : ... .. . ... : ... .. . ... : ... .. . F01 ...
ROW 0A : ... .. . ... ... : ... .. . ... : ... .. . ... : ... .. . ... : ... .. . F02 ...
ROW 0B : ... .. . ... ... : ... .. . ... : ... .. . ... : ... .. . ... : ... .. . F01 ...
ROW 0C : ... .. . ... ... : ... .. . ... : G-2 05 . ... : F-# 04 . ... : ... .. . F02 ...
ROW 0D : ... .. . ... ... : ... .. . ... : ... .. . ... : ... .. . ... : ... .. . F01 ...
ROW 0E : ... .. . ... ... : ... .. . ... : ... .. . ... : ... .. . ... : ... .. . F02 ...
ROW 0F : ... .. . ... ... : ... .. . ... : ... .. . ... : ... .. . ... : ... .. . F01 ...
ROW 10 : ... .. . ... ... : ... .. . ... : ... .. . ... : ... .. . ... : ... .. . F02 ...
ROW 11 : ... .. . ... ... : ... .. . ... : --- .. . ... : ... .. . ... : ... .. . F01 ...
ROW 12 : ... .. . ... ... : ... .. . ... : F#3 19 . ... : C-# 08 . ... : ... .. . F02 ...
ROW 13 : ... .. . ... ... : ... .. . ... : G-2 01 . ... : ... .. . ... : ... .. . F01 ...
ROW 14 : ... .. . ... ... : ... .. . ... : ... .. . ... : ... .. . ... : ... .. . F02 ...
ROW 15 : ... .. . ... ... : ... .. . ... : ... .. . ... : ... .. . ... : ... .. . F01 ...
ROW 16 : ... .. . ... ... : ... .. . ... : ... .. . ... : ... .. . ... : ... .. . F02 ...
ROW 17 : ... .. . ... ... : ... .. . ... : ... .. . ... : ... .. . ... : ... .. . F01 ...
ROW 18 : ... .. . ... ... : ... .. . ... : --- .. . ... : F-# 04 . ... : ... .. . F02 ...
ROW 19 : ... .. . ... ... : ... .. . ... : ... .. . ... : ... .. . ... : ... .. . F01 ...
ROW 1A : ... .. . ... ... : ... .. . ... : ... .. . ... : ... .. . ... : ... .. . F02 ...
ROW 1B : ... .. . ... ... : ... .. . ... : ... .. . ... : ... .. . ... : ... .. . F01 ...
ROW 1C : ... .. . ... ... : ... .. . ... : ... .. . ... : ... .. . ... : ... .. . F02 ...
ROW 1D : ... .. . ... ... : ... .. . ... : ... .. . ... : ... .. . ... : ... .. . F01 ...
ROW 1E : ... .. . ... ... : ... .. . ... : F#3 19 . ... : F-# 04 . ... : ... .. . F02 ...
ROW 1F : ... .. . ... ... : ... .. . ... : D-2 01 . ... : ... .. . ... : ... .. . F01 ...
ROW 20 : ... .. . ... ... : ... .. . ... : ... .. . ... : ... .. . ... : ... .. . F02 ...
ROW 21 : ... .. . ... ... : ... .. . ... : ... .. . ... : ... .. . ... : ... .. . F01 ...
ROW 22 : ... .. . ... ... : ... .. . ... : ... .. . ... : ... .. . ... : ... .. . F02 ...
ROW 23 : ... .. . ... ... : ... .. . ... : --- .. . ... : ... .. . ... : ... .. . F01 ...
ROW 24 : ... .. . ... ... : ... .. . ... : F#3 19 . ... : F-# 03 . ... : ... .. . F02 ...
ROW 25 : ... .. . ... ... : ... .. . ... : D-2 01 . ... : ... .. . ... : ... .. . F01 ...
ROW 26 : ... .. . ... ... : ... .. . ... : ... .. . ... : ... .. . ... : ... .. . F02 ...
ROW 27 : ... .. . ... ... : ... .. . ... : ... .. . ... : ... .. . ... : ... .. . F01 ...
ROW 28 : ... .. . ... ... : ... .. . ... : ... .. . ... : ... .. . ... : ... .. . F02 ...
ROW 29 : ... .. . ... ... : ... .. . ... : ... .. . ... : ... .. . ... : ... .. . F01 ...
ROW 2A : ... .. . ... ... : ... .. . ... : D-2 05 . ... : F-# 04 . ... : ... .. . F02 ...
ROW 2B : ... .. . ... ... : ... .. . ... : ... .. . ... : ... .. . ... : ... .. . F01 ...
ROW 2C : ... .. . ... ... : ... .. . ... : ... .. . ... : ... .. . ... : ... .. . F02 ...
ROW 2D : ... .. . ... ... : ... .. . ... : ... .. . ... : ... .. . ... : ... .. . F01 ...
ROW 2E : ... .. . ... ... : ... .. . ... : ... .. . ... : ... .. . ... : ... .. . F02 ...
ROW 2F : --- .. . ... ... : ... .. . ... : --- .. . ... : ... .. . ... : ... .. . F01 ...
ROW 30 : F-3 01 . ... ... : F#2 18 . ... : F#3 19 . ... : C-# 08 . ... : ... .. . ... ...
ROW 31 : ... .. . ... ... : ... .. . ... : D-2 01 . ... : ... .. . ... : ... .. . F01 ...
ROW 32 : ... .. . ... ... : ... .. . ... : ... .. . ... : ... .. . ... : ... .. . F02 ...
ROW 33 : ... .. . ... ... : G-2 18 . ... : ... .. . ... : ... .. . ... : ... .. . F01 ...
ROW 34 : ... .. . ... ... : ... .. . ... : F#3 19 . ... : C-# 08 . ... : ... .. . F02 ...
ROW 35 : --- .. . ... ... : ... .. . ... : D-2 01 . ... : ... .. . ... : ... .. . F01 ...
ROW 36 : D-3 01 . ... ... : G#2 18 . ... : ... .. . ... : ... .. . ... : ... .. . F02 ...
ROW 37 : ... .. . ... ... : ... .. . ... : ... .. . ... : ... .. . ... : ... .. . F01 ...
ROW 38 : ... .. . ... ... : ... .. . ... : F#3 19 . ... : C-# 08 . ... : ... .. . F02 ...
ROW 39 : ... .. . ... ... : A-2 18 . ... : D-2 01 . ... : ... .. . ... : ... .. . F01 ...
ROW 3A : ... .. . ... ... : ... .. . ... : ... .. . ... : ... .. . ... : ... .. . F02 ...
ROW 3B : ... .. . ... ... : ... .. . ... : ... .. . ... : ... .. . ... : ... .. . F01 ...

PATTERN 0C
ROW 00 : ... .. . ... ... : A#2 18 . ... : F#3 19 . ... : 9-# 06 . ... : ... .. . F02 ...
ROW 01 : ... .. . ... ... : ... .. . ... : G-2 01 . ... : ... .. . ... : ... .. . F01 ...
ROW 02 : ... .. . ... ... : ... .. . ... : ... .. . ... : ... .. . ... : ... .. . F02 ...
ROW 03 : ... .. . ... ... : ... .. . ... : ... .. . ... : ... .. . ... : ... .. . F01 ...
ROW 04 : ... .. . ... ... : ... .. . ... : ... .. . ... : ... .. . ... : ... .. . F02 ...
ROW 05 : ... .. . ... ... : ... .. . ... : ... .. . ... : ... .. . ... : ... .. . F01 ...
ROW 06 : ... .. . ... ... : ... .. . ... : ... .. . ... : ... .. . ... : ... .. . F02 ...
ROW 07 : ... .. . ... ... : ... .. . ... : ... .. . ... : ... .. . ... : ... .. . F01 ...
ROW 08 : ... .. . ... ... : ... .. . ... : ... .. . ... : ... .. . ... : ... .. . F02 ...
ROW 09 : ... .. . ... ... : ... .. . ... : ... .. . ... : ... .. . ... : ... .. . F01 ...
ROW 0A : ... .. . ... ... : ... .. . ... : ... .. . ... : ... .. . ... : ... .. . F02 ...
ROW 0B : --- .. . ... ... : ... .. . ... : ... .. . ... : ... .. . ... : ... .. . F01 ...
ROW 0C : D-3 01 . ... ... : ... .. . ... : G-2 05 . ... : ... .. . ... : ... .. . F02 ...
ROW 0D : ... .. . ... ... : ... .. . ... : ... .. . ... : ... .. . ... : ... .. . F01 ...
ROW 0E : ... .. . ... ... : ... .. . ... : ... .. . ... : ... .. . ... : ... .. . F02 ...
ROW 0F : ... .. . ... ... : ... .. . ... : ... .. . ... : ... .. . ... : ... .. . F01 ...
ROW 10 : ... .. . ... ... : ... .. . ... : ... .. . ... : ... .. . ... : ... .. . F02 ...
ROW 11 : ... .. . ... ... : ... .. . ... : ... .. . ... : --- .. . ... : ... .. . F01 ...
ROW 12 : ... .. . ... ... : ... .. . ... : F#3 19 . ... : C-# 08 . ... : ... .. . F02 ...
ROW 13 : ... .. . ... ... : ... .. . ... : G-2 01 . ... : ... .. . ... : ... .. . F01 ...
ROW 14 : ... .. . ... ... : ... .. . ... : ... .. . ... : ... .. . ... : ... .. . F02 ...
ROW 15 : ... .. . ... ... : ... .. . ... : ... .. . ... : ... .. . ... : ... .. . F01 ...
ROW 16 : ... .. . ... ... : ... .. . ... : ... .. . ... : ... .. . ... : ... .. . F02 ...
ROW 17 : --- .. . ... ... : ... .. . ... : ... .. . ... : ... .. . ... : ... .. . F01 ...
ROW 18 : D-3 0C . ... ... : ... .. . ... : --- .. . ... : F-# 04 . ... : ... .. . F02 ...
ROW 19 : ... .. . ... ... : ... .. . ... : ... .. . ... : ... .. . ... : ... .. . F01 ...
ROW 1A : ... .. . ... ... : ... .. . ... : ... .. . ... : ... .. . ... : ... .. . F02 ...
ROW 1B : ... .. . ... ... : ... .. . ... : ... .. . ... : ... .. . ... : ... .. . F01 ...
ROW 1C : ... .. . ... ... : ... .. . ... : ... .. . ... : ... .. . ... : ... .. . F02 ...
ROW 1D : ... .. . ... ... : ... .. . ... : ... .. . ... : ... .. . ... : ... .. . F01 ...
ROW 1E : ... .. . ... ... : A#2 0A . ... : F#3 19 . ... : F-# 04 . ... : ... .. . F02 ...
ROW 1F : ... .. . ... ... : ... .. . ... : G-2 01 . ... : ... .. . ... : ... .. . F01 ...
ROW 20 : ... .. . ... ... : ... .. . ... : ... .. . ... : ... .. . ... : ... .. . F02 ...
ROW 21 : ... .. . ... ... : ... .. . ... : ... .. . ... : ... .. . ... : ... .. . F01 ...
ROW 22 : ... .. . ... ... : ... .. . ... : ... .. . ... : ... .. . ... : ... .. . F02 ...
ROW 23 : --- .. . ... ... : ... .. . ... : ... .. . ... : ... .. . ... : ... .. . F01 ...
ROW 24 : D-3 0A . ... ... : ... .. . ... : F#3 19 . ... : F-# 03 . ... : ... .. . F02 ...
ROW 25 : ... .. . ... ... : ... .. . ... : G-2 01 . ... : ... .. . ... : ... .. . F01 ...
ROW 26 : ... .. . ... ... : ... .. . ... : ... .. . ... : ... .. . ... : ... .. . F02 ...
ROW 27 : ... .. . ... ... : ... .. . ... : ... .. . ... : ... .. . ... : ... .. . F01 ...
ROW 28 : ... .. . ... ... : ... .. . ... : ... .. . ... : ... .. . ... : ... .. . F02 ...
ROW 29 : ... .. . ... ... : ... .. . ... : ... .. . ... : ... .. . ... : ... .. . F01 ...
ROW 2A : ... .. . ... ... : ... .. . ... : G-2 05 . ... : F-# 04 . ... : ... .. . F02 ...
ROW 2B : ... .. . ... ... : ... .. . ... : ... .. . ... : ... .. . ... : ... .. . F01 ...
ROW 2C : ... .. . ... ... : ... .. . ... : ... .. . ... : ... .. . ... : ... .. . F02 ...
ROW 2D : ... .. . ... ... : ... .. . ... : ... .. . ... : ... .. . ... : ... .. . F01 ...
ROW 2E : ... .. . ... ... : ... .. . ... : ... .. . ... : ... .. . ... : ... .. . F02 ...
ROW 2F : ... .. . ... ... : ... .. . ... : ... .. . ... : ... .. . ... : ... .. . F01 ...
ROW 30 : ... .. . ... ... : ... .. . ... : F#3 19 . ... : C-# 08 . ... : ... .. . F02 ...
ROW 31 : ... .. . ... ... : ... .. . ... : D-2 01 . ... : ... .. . ... : ... .. . F01 ...
ROW 32 : ... .. . ... ... : ... .. . ... : ... .. . ... : ... .. . ... : ... .. . F02 ...
ROW 33 : ... .. . ... ... : ... .. . ... : ... .. . ... : ... .. . ... : ... .. . F01 ...
ROW 34 : ... .. . ... ... : ... .. . ... : ... .. . ... : ... .. . ... : ... .. . F02 ...
ROW 35 : ... .. . ... ... : ... .. . ... : ... .. . ... : ... .. . ... : ... .. . F01 ...
ROW 36 : ... .. . ... ... : ... .. . ... : D-2 05 . ... : F-# 04 . ... : ... .. . F02 ...
ROW 37 : ... .. . ... ... : ... .. . ... : ... .. . ... : ... .. . ... : ... .. . F01 ...
ROW 38 : ... .. . ... ... : ... .. . ... : ... .. . ... : ... .. . ... : ... .. . F02 ...
ROW 39 : ... .. . ... ... : ... .. . ... : ... .. . ... : F-# 03 . ... : ... .. . F01 ...
ROW 3A : ... .. . ... ... : ... .. . ... : ... .. . ... : ... .. . ... : ... .. . F02 ...
ROW 3B : ... .. . ... ... : ... .. . ... : --- .. . ... : ... .. . ... : ... .. . F01 ...

PATTERN 0D
ROW 00 : E-3 09 . ... ... : ... .. . ... : F#3 19 . ... : F-# 03 . ... : ... .. . F02 ...
ROW 01 : ... .. . ... ... : C-3 09 . ... : G-2 01 . ... : ... .. . ... : ... .. . F01 ...
ROW 02 : ... .. . ... ... : ... .. . ... : ... .. . ... : ... .. . ... : ... .. . F02 ...
ROW 03 : ... .. . ... ... : ... .. . ... : ... .. . ... : ... .. . ... : ... .. . F01 ...
ROW 04 : ... .. . ... ... : ... .. . ... : ... .. . ... : ... .. . ... : ... .. . F02 ...
ROW 05 : ... .. . ... ... : ... .. . ... : ... .. . ... : ... .. . ... : ... .. . F01 ...
ROW 06 : ... .. . ... ... : ... .. . ... : ... .. . ... : F-# 04 . ... : ... .. . F02 ...
ROW 07 : ... .. . ... ... : ... .. . ... : ... .. . ... : ... .. . ... : ... .. . F01 ...
ROW 08 : ... .. . ... ... : ... .. . ... : ... .. . ... : ... .. . ... : ... .. . F02 ...
ROW 09 : ... .. . ... ... : ... .. . ... : ... .. . ... : ... .. . ... : ... .. . F01 ...
ROW 0A : ... .. . ... ... : ... .. . ... : ... .. . ... : ... .. . ... : ... .. . F02 ...
ROW 0B : ... .. . ... ... : ... .. . ... : ... .. . ... : ... .. . ... : ... .. . F01 ...
ROW 0C : ... .. . ... ... : ... .. . ... : G-2 05 . ... : F-# 04 . ... : ... .. . F02 ...
ROW 0D : ... .. . ... ... : ... .. . ... : ... .. . ... : ... .. . ... : ... .. . F01 ...
ROW 0E : ... .. . ... ... : ... .. . ... : ... .. . ... : ... .. . ... : ... .. . F02 ...
ROW 0F : ... .. . ... ... : ... .. . ... : ... .. . ... : ... .. . ... : ... .. . F01 ...
ROW 10 : ... .. . ... ... : ... .. . ... : ... .. . ... : ... .. . ... : ... .. . F02 ...
ROW 11 : ... .. . ... ... : ... .. . ... : ... .. . ... : ... .. . ... : ... .. . F01 ...
ROW 12 : ... .. . ... ... : ... .. . ... : F#3 19 . ... : C-# 08 . ... : ... .. . F02 ...
ROW 13 : ... .. . ... ... : ... .. . ... : G-2 01 . ... : ... .. . ... : ... .. . F01 ...
ROW 14 : ... .. . ... ... : ... .. . ... : ... .. . ... : ... .. . ... : ... .. . F02 ...
ROW 15 : ... .. . ... ... : ... .. . ... : ... .. . ... : ... .. . ... : ... .. . F01 ...
ROW 16 : ... .. . ... ... : ... .. . ... : ... .. . ... : ... .. . ... : ... .. . F02 ...
ROW 17 : ... .. . ... ... : ... .. . ... : ... .. . ... : ... .. . ... : ... .. . F01 ...
ROW 18 : ... .. . ... ... : ... .. . ... : --- .. . ... : F-# 04 . ... : ... .. . F02 ...
ROW 19 : ... .. . ... ... : ... .. . ... : ... .. . ... : ... .. . ... : ... .. . F01 ...
ROW 1A : ... .. . ... ... : ... .. . ... : ... .. . ... : ... .. . ... : ... .. . F02 ...
ROW 1B : ... .. . ... ... : ... .. . ... : ... .. . ... : ... .. . ... : ... .. . F01 ...
ROW 1C : ... .. . ... ... : ... .. . ... : ... .. . ... : ... .. . ... : ... .. . F02 ...
ROW 1D : ... .. . ... ... : ... .. . ... : ... .. . ... : ... .. . ... : ... .. . F01 ...
ROW 1E : E-3 0A . ... ... : C-3 0A . ... : F#3 19 . ... : F-# 04 . ... : ... .. . ... ...
ROW 1F : ... .. . ... ... : ... .. . ... : G-2 01 . ... : ... .. . ... : ... .. . F01 ...
ROW 20 : ... .. . ... ... : ... .. . ... : ... .. . ... : ... .. . ... : ... .. . F02 ...
ROW 21 : ... .. . ... ... : ... .. . ... : ... .. . ... : ... .. . ... : ... .. . F01 ...
ROW 22 : ... .. . ... ... : ... .. . ... : ... .. . ... : ... .. . ... : ... .. . F02 ...
ROW 23 : ... .. . ... ... : ... .. . ... : ... .. . ... : ... .. . ... : ... .. . F01 ...
ROW 24 : ... .. . ... ... : ... .. . ... : F#3 19 . ... : F-# 03 . ... : ... .. . F02 ...
ROW 25 : ... .. . ... ... : ... .. . ... : G-2 01 . ... : ... .. . ... : ... .. . F01 ...
ROW 26 : ... .. . ... ... : ... .. . ... : ... .. . ... : ... .. . ... : ... .. . F02 ...
ROW 27 : ... .. . ... ... : ... .. . ... : ... .. . ... : ... .. . ... : ... .. . F01 ...
ROW 28 : ... .. . ... ... : ... .. . ... : ... .. . ... : ... .. . ... : ... .. . F02 ...
ROW 29 : ... .. . ... ... : ... .. . ... : ... .. . ... : ... .. . ... : ... .. . F01 ...
ROW 2A : ... .. . ... ... : ... .. . ... : G-2 05 . ... : F-# 04 . ... : ... .. . F02 ...
ROW 2B : ... .. . ... ... : ... .. . ... : ... .. . ... : ... .. . ... : ... .. . F01 ...
ROW 2C : ... .. . ... ... : ... .. . ... : ... .. . ... : ... .. . ... : ... .. . F02 ...
ROW 2D : ... .. . ... ... : ... .. . ... : ... .. . ... : ... .. . ... : ... .. . F01 ...
ROW 2E : ... .. . ... ... : ... .. . ... : ... .. . ... : ... .. . ... : ... .. . F02 ...
ROW 2F : ... .. . ... ... : ... .. . ... : ... .. . ... : ... .. . ... : ... .. . F01 ...
ROW 30 : ... .. . ... ... : ... .. . ... : F#3 19 . ... : C-# 08 . ... : ... .. . F02 ...
ROW 31 : ... .. . ... ... : ... .. . ... : D-2 01 . ... : ... .. . ... : ... .. . F01 ...
ROW 32 : ... .. . ... ... : ... .. . ... : ... .. . ... : ... .. . ... : ... .. . F02 ...
ROW 33 : ... .. . ... ... : ... .. . ... : ... .. . ... : ... .. . ... : ... .. . F01 ...
ROW 34 : ... .. . ... ... : ... .. . ... : ... .. . ... : ... .. . ... : ... .. . F02 ...
ROW 35 : ... .. . ... ... : ... .. . ... : ... .. . ... : ... .. . ... : ... .. . F01 ...
ROW 36 : ... .. . ... ... : ... .. . ... : F#3 19 . ... : C-# 08 . ... : ... .. . F02 ...
ROW 37 : ... .. . ... ... : ... .. . ... : D-2 01 . ... : ... .. . ... : ... .. . F01 ...
ROW 38 : ... .. . ... ... : ... .. . ... : ... .. . ... : ... .. . ... : ... .. . F02 ...
ROW 39 : ... .. . ... ... : ... .. . ... : ... .. . ... : ... .. . ... : ... .. . F01 ...
ROW 3A : ... .. . ... ... : ... .. . ... : ... .. . ... : ... .. . ... : ... .. . F02 ...
ROW 3B : ... .. . ... ... : ... .. . ... : --- .. . ... : ... .. . ... : ... .. . F01 ...

PATTERN 0E
ROW 00 : F-3 09 . ... ... : ... .. . ... : F#3 19 . ... : F-# 03 . ... : ... .. . F02 ...
ROW 01 : ... .. . ... ... : A#2 09 . ... : G-2 01 . ... : ... .. . ... : ... .. . F01 ...
ROW 02 : ... .. . ... ... : ... .. . ... : ... .. . ... : ... .. . ... : ... .. . F02 ...
ROW 03 : ... .. . ... ... : ... .. . ... : ... .. . ... : ... .. . ... : ... .. . F01 ...
ROW 04 : ... .. . ... ... : ... .. . ... : ... .. . ... : ... .. . ... : ... .. . F02 ...
ROW 05 : ... .. . ... ... : ... .. . ... : ... .. . ... : ... .. . ... : ... .. . F01 ...
ROW 06 : ... .. . ... ... : ... .. . ... : ... .. . ... : F-# 04 . ... : ... .. . F02 ...
ROW 07 : ... .. . ... ... : ... .. . ... : ... .. . ... : ... .. . ... : ... .. . F01 ...
ROW 08 : ... .. . ... ... : ... .. . ... : ... .. . ... : ... .. . ... : ... .. . F02 ...
ROW 09 : ... .. . ... ... : ... .. . ... : ... .. . ... : ... .. . ... : ... .. . F01 ...
ROW 0A : ... .. . ... ... : ... .. . ... : ... .. . ... : ... .. . ... : ... .. . F02 ...
ROW 0B : ... .. . ... ... : ... .. . ... : ... .. . ... : ... .. . ... : ... .. . F01 ...
ROW 0C : ... .. . ... ... : ... .. . ... : G-2 05 . ... : F-# 04 . ... : ... .. . F02 ...
ROW 0D : ... .. . ... ... : ... .. . ... : ... .. . ... : ... .. . ... : ... .. . F01 ...
ROW 0E : ... .. . ... ... : ... .. . ... : ... .. . ... : ... .. . ... : ... .. . F02 ...
ROW 0F : ... .. . ... ... : ... .. . ... : ... .. . ... : ... .. . ... : ... .. . F01 ...
ROW 10 : ... .. . ... ... : ... .. . ... : ... .. . ... : ... .. . ... : ... .. . F02 ...
ROW 11 : ... .. . ... ... : ... .. . ... : ... .. . ... : ... .. . ... : ... .. . F01 ...
ROW 12 : ... .. . ... ... : ... .. . ... : F#3 19 . ... : C-# 08 . ... : ... .. . F02 ...
ROW 13 : ... .. . ... ... : ... .. . ... : G-2 01 . ... : ... .. . ... : ... .. . F01 ...
ROW 14 : ... .. . ... ... : ... .. . ... : ... .. . ... : ... .. . ... : ... .. . F02 ...
ROW 15 : ... .. . ... ... : ... .. . ... : ... .. . ... : ... .. . ... : ... .. . F01 ...
ROW 16 : ... .. . ... ... : ... .. . ... : ... .. . ... : ... .. . ... : ... .. . F02 ...
ROW 17 : ... .. . ... ... : ... .. . ... : ... .. . ... : ... .. . ... : ... .. . F01 ...
ROW 18 : ... .. . ... ... : ... .. . ... : --- .. . ... : F-# 04 . ... : ... .. . F02 ...
ROW 19 : ... .. . ... ... : ... .. . ... : ... .. . ... : ... .. . ... : ... .. . F01 ...
ROW 1A : ... .. . ... ... : ... .. . ... : ... .. . ... : ... .. . ... : ... .. . F02 ...
ROW 1B : ... .. . ... ... : ... .. . ... : ... .. . ... : ... .. . ... : ... .. . F01 ...
ROW 1C : ... .. . ... ... : ... .. . ... : ... .. . ... : ... .. . ... : ... .. . F02 ...
ROW 1D : ... .. . ... ... : ... .. . ... : ... .. . ... : ... .. . ... : ... .. . F01 ...
ROW 1E : F-3 0A . ... ... : A#2 0A . ... : F#3 19 . ... : F-# 04 . ... : ... .. . ... ...
ROW 1F : ... .. . ... ... : ... .. . ... : G-2 01 . ... : ... .. . ... : ... .. . F01 ...
ROW 20 : ... .. . ... ... : ... .. . ... : ... .. . ... : ... .. . ... : ... .. . F02 ...
ROW 21 : ... .. . ... ... : ... .. . ... : ... .. . ... : ... .. . ... : ... .. . F01 ...
ROW 22 : ... .. . ... ... : ... .. . ... : ... .. . ... : ... .. . ... : ... .. . F02 ...
ROW 23 : ... .. . ... ... : ... .. . ... : ... .. . ... : ... .. . ... : ... .. . F01 ...
ROW 24 : ... .. . ... ... : ... .. . ... : F#3 19 . ... : F-# 03 . ... : ... .. . F02 ...
ROW 25 : ... .. . ... ... : ... .. . ... : G-2 01 . ... : ... .. . ... : ... .. . F01 ...
ROW 26 : ... .. . ... ... : ... .. . ... : ... .. . ... : ... .. . ... : ... .. . F02 ...
ROW 27 : ... .. . ... ... : ... .. . ... : ... .. . ... : ... .. . ... : ... .. . F01 ...
ROW 28 : ... .. . ... ... : ... .. . ... : ... .. . ... : ... .. . ... : ... .. . F02 ...
ROW 29 : ... .. . ... ... : ... .. . ... : ... .. . ... : ... .. . ... : ... .. . F01 ...
ROW 2A : ... .. . ... ... : ... .. . ... : G-2 05 . ... : F-# 04 . ... : ... .. . F02 ...
ROW 2B : ... .. . ... ... : ... .. . ... : ... .. . ... : ... .. . ... : ... .. . F01 ...
ROW 2C : ... .. . ... ... : ... .. . ... : ... .. . ... : ... .. . ... : ... .. . F02 ...
ROW 2D : ... .. . ... ... : ... .. . ... : ... .. . ... : ... .. . ... : ... .. . F01 ...
ROW 2E : ... .. . ... ... : ... .. . ... : ... .. . ... : ... .. . ... : ... .. . F02 ...
ROW 2F : ... .. . ... ... : ... .. . ... : ... .. . ... : ... .. . ... : ... .. . F01 ...
ROW 30 : ... .. . ... ... : ... .. . ... : F#3 19 . ... : C-# 08 . ... : ... .. . F02 ...
ROW 31 : ... .. . ... ... : ... .. . ... : D-2 01 . ... : ... .. . ... : ... .. . F01 ...
ROW 32 : ... .. . ... ... : ... .. . ... : ... .. . ... : ... .. . ... : ... .. . F02 ...
ROW 33 : ... .. . ... ... : ... .. . ... : ... .. . ... : ... .. . ... : ... .. . F01 ...
ROW 34 : ... .. . ... ... : ... .. . ... : ... .. . ... : ... .. . ... : ... .. . F02 ...
ROW 35 : ... .. . ... ... : ... .. . ... : ... .. . ... : ... .. . ... : ... .. . F01 ...
ROW 36 : ... .. . ... ... : ... .. . ... : D-2 05 . ... : F-# 04 . ... : ... .. . F02 ...
ROW 37 : ... .. . ... ... : ... .. . ... : ... .. . ... : ... .. . ... : ... .. . F01 ...
ROW 38 : ... .. . ... ... : ... .. . ... : ... .. . ... : ... .. . ... : ... .. . F02 ...
ROW 39 : ... .. . ... ... : ... .. . ... : ... .. . ... : F-# 03 . ... : ... .. . F01 ...
ROW 3A : ... .. . ... ... : ... .. . ... : ... .. . ... : ... .. . ... : ... .. . F02 ...
ROW 3B : ... .. . ... ... : ... .. . ... : --- .. . ... : ... .. . ... : ... .. . F01 ...

PATTERN 0F
ROW 00 : E-3 09 . ... ... : ... .. . ... : F#3 19 . ... : F-# 03 . ... : ... .. . F02 ...
ROW 01 : ... .. . ... ... : C-3 09 . ... : G-2 01 . ... : ... .. . ... : ... .. . F01 ...
ROW 02 : ... .. . ... ... : ... .. . ... : ... .. . ... : ... .. . ... : ... .. . F02 ...
ROW 03 : ... .. . ... ... : ... .. . ... : ... .. . ... : ... .. . ... : ... .. . F01 ...
ROW 04 : ... .. . ... ... : ... .. . ... : ... .. . ... : ... .. . ... : ... .. . F02 ...
ROW 05 : ... .. . ... ... : ... .. . ... : ... .. . ... : ... .. . ... : ... .. . F01 ...
ROW 06 : ... .. . ... ... : ... .. . ... : ... .. . ... : F-# 04 . ... : ... .. . F02 ...
ROW 07 : ... .. . ... ... : ... .. . ... : ... .. . ... : ... .. . ... : ... .. . F01 ...
ROW 08 : ... .. . ... ... : ... .. . ... : ... .. . ... : ... .. . ... : ... .. . F02 ...
ROW 09 : ... .. . ... ... : ... .. . ... : ... .. . ... : ... .. . ... : ... .. . F01 ...
ROW 0A : ... .. . ... ... : ... .. . ... : ... .. . ... : ... .. . ... : ... .. . F02 ...
ROW 0B : ... .. . ... ... : ... .. . ... : ... .. . ... : ... .. . ... : ... .. . F01 ...
ROW 0C : ... .. . ... ... : ... .. . ... : G-2 05 . ... : F-# 04 . ... : ... .. . F02 ...
ROW 0D : ... .. . ... ... : ... .. . ... : ... .. . ... : ... .. . ... : ... .. . F01 ...
ROW 0E : ... .. . ... ... : ... .. . ... : ... .. . ... : ... .. . ... : ... .. . F02 ...
ROW 0F : ... .. . ... ... : ... .. . ... : ... .. . ... : ... .. . ... : ... .. . F01 ...
ROW 10 : ... .. . ... ... : ... .. . ... : ... .. . ... : ... .. . ... : ... .. . F02 ...
ROW 11 : ... .. . ... ... : ... .. . ... : ... .. . ... : ... .. . ... : ... .. . F01 ...
ROW 12 : ... .. . ... ... : ... .. . ... : F#3 19 . ... : C-# 08 . ... : ... .. . F02 ...
ROW 13 : ... .. . ... ... : ... .. . ... : G-2 01 . ... : ... .. . ... : ... .. . F01 ...
ROW 14 : ... .. . ... ... : ... .. . ... : ... .. . ... : ... .. . ... : ... .. . F02 ...
ROW 15 : ... .. . ... ... : ... .. . ... : ... .. . ... : ... .. . ... : ... .. . F01 ...
ROW 16 : ... .. . ... ... : ... .. . ... : ... .. . ... : ... .. . ... : ... .. . F02 ...
ROW 17 : ... .. . ... ... : ... .. . ... : ... .. . ... : ... .. . ... : ... .. . F01 ...
ROW 18 : ... .. . ... ... : ... .. . ... : --- .. . ... : F-# 04 . ... : ... .. . F02 ...
ROW 19 : ... .. . ... ... : ... .. . ... : ... .. . ... : ... .. . ... : ... .. . F01 ...
ROW 1A : ... .. . ... ... : ... .. . ... : ... .. . ... : ... .. . ... : ... .. . F02 ...
ROW 1B : ... .. . ... ... : ... .. . ... : ... .. . ... : ... .. . ... : ... .. . F01 ...
ROW 1C : ... .. . ... ... : ... .. . ... : ... .. . ... : ... .. . ... : ... .. . F02 ...
ROW 1D : ... .. . ... ... : ... .. . ... : ... .. . ... : ... .. . ... : ... .. . F01 ...
ROW 1E : E-3 0A . ... ... : C-3 0A . ... : F#3 19 . ... : F-# 04 . ... : ... .. . ... ...
ROW 1F : ... .. . ... ... : ... .. . ... : D-2 01 . ... : ... .. . ... : ... .. . F01 ...
ROW 20 : ... .. . ... ... : ... .. . ... : ... .. . ... : ... .. . ... : ... .. . F02 ...
ROW 21 : ... .. . ... ... : ... .. . ... : ... .. . ... : ... .. . ... : ... .. . F01 ...
ROW 22 : ... .. . ... ... : ... .. . ... : ... .. . ... : ... .. . ... : ... .. . F02 ...
ROW 23 : ... .. . ... ... : ... .. . ... : ... .. . ... : ... .. . ... : ... .. . F01 ...
ROW 24 : ... .. . ... ... : ... .. . ... : F#3 19 . ... : F-# 03 . ... : ... .. . F02 ...
ROW 25 : ... .. . ... ... : ... .. . ... : D-2 01 . ... : ... .. . ... : ... .. . F01 ...
ROW 26 : ... .. . ... ... : ... .. . ... : ... .. . ... : ... .. . ... : ... .. . F02 ...
ROW 27 : ... .. . ... ... : ... .. . ... : ... .. . ... : ... .. . ... : ... .. . F01 ...
ROW 28 : ... .. . ... ... : ... .. . ... : ... .. . ... : ... .. . ... : ... .. . F02 ...
ROW 29 : ... .. . ... ... : ... .. . ... : ... .. . ... : ... .. . ... : ... .. . F01 ...
ROW 2A : ... .. . ... ... : ... .. . ... : D-2 05 . ... : F-# 04 . ... : ... .. . F02 ...
ROW 2B : ... .. . ... ... : ... .. . ... : ... .. . ... : ... .. . ... : ... .. . F01 ...
ROW 2C : ... .. . ... ... : ... .. . ... : ... .. . ... : ... .. . ... : ... .. . F02 ...
ROW 2D : ... .. . ... ... : ... .. . ... : ... .. . ... : ... .. . ... : ... .. . F01 ...
ROW 2E : ... .. . ... ... : ... .. . ... : ... .. . ... : ... .. . ... : ... .. . F02 ...
ROW 2F : ... .. . ... ... : ... .. . ... : ... .. . ... : ... .. . ... : ... .. . F01 ...
ROW 30 : G-3 01 . ... ... : ... .. . ... : F#3 19 . ... : C-# 07 . ... : ... .. . F02 ...
ROW 31 : ... .. . ... ... : ... .. . ... : D-2 01 . ... : ... .. . ... : ... .. . F01 ...
ROW 32 : ... .. . ... ... : ... .. . ... : ... .. . ... : ... .. . ... : ... .. . F02 ...
ROW 33 : ... .. . ... ... : ... .. . ... : ... .. . ... : ... .. . ... : ... .. . F01 ...
ROW 34 : ... .. . ... ... : ... .. . ... : F#3 19 . ... : C-# 07 . ... : ... .. . F02 ...
ROW 35 : ... .. . ... ... : ... .. . ... : D-2 05 . ... : ... .. . ... : ... .. . F01 ...
ROW 36 : C-4 01 . ... ... : ... .. . ... : ... .. . ... : ... .. . ... : ... .. . F02 ...
ROW 37 : C#4 01 . ... ... : ... .. . ... : ... .. . ... : ... .. . ... : ... .. . F01 ...
ROW 38 : D-4 01 . ... ... : ... .. . ... : F#3 19 . ... : C-# 07 . ... : ... .. . F02 ...
ROW 39 : ... .. . ... ... : ... .. . ... : D-2 05 . ... : ... .. . ... : ... .. . F01 ...
ROW 3A : ... .. . ... ... : ... .. . ... : ... .. . ... : ... .. . ... : ... .. . F02 ...
ROW 3B : ... .. . ... ... : --- .. . ... : ... .. . ... : ... .. . ... : ... .. . F01 ...

PATTERN 10
ROW 00 : ... .. . ... ... : G-2 0F . ... : F#3 19 . ... : 9-# 06 . ... : ... .. . F02 ...
ROW 01 : ... .. . ... ... : ... .. . ... : G-2 01 . ... : ... .. . ... : ... .. . F01 ...
ROW 02 : ... .. . ... ... : ... .. . ... : ... .. . ... : ... .. . ... : ... .. . F02 ...
ROW 03 : ... .. . ... ... : ... .. . ... : ... .. . ... : ... .. . ... : ... .. . F01 ...
ROW 04 : ... .. . ... ... : ... .. . ... : ... .. . ... : ... .. . ... : ... .. . F02 ...
ROW 05 : ... .. . ... ... : ... .. . ... : ... .. . ... : ... .. . ... : ... .. . F01 ...
ROW 06 : ... .. . ... ... : ... .. . ... : ... .. . ... : ... .. . ... : ... .. . F02 ...
ROW 07 : ... .. . ... ... : ... .. . ... : ... .. . ... : ... .. . ... : ... .. . F01 ...
ROW 08 : ... .. . ... ... : ... .. . ... : ... .. . ... : ... .. . ... : ... .. . F02 ...
ROW 09 : ... .. . ... ... : ... .. . ... : ... .. . ... : ... .. . ... : ... .. . F01 ...
ROW 0A : ... .. . ... ... : ... .. . ... : ... .. . ... : ... .. . ... : ... .. . F02 ...
ROW 0B : ... .. . ... ... : ... .. . ... : ... .. . ... : ... .. . ... : ... .. . F01 ...
ROW 0C : ... .. . ... ... : ... .. . ... : G-2 05 . ... : ... .. . ... : ... .. . F02 ...
ROW 0D : ... .. . ... ... : ... .. . ... : ... .. . ... : ... .. . ... : ... .. . F01 ...
ROW 0E : ... .. . ... ... : ... .. . ... : ... .. . ... : ... .. . ... : ... .. . F02 ...
ROW 0F : ... .. . ... ... : ... .. . ... : ... .. . ... : ... .. . ... : ... .. . F01 ...
ROW 10 : ... .. . ... ... : ... .. . ... : ... .. . ... : ... .. . ... : ... .. . F02 ...
ROW 11 : ... .. . ... ... : ... .. . ... : ... .. . ... : --- .. . ... : ... .. . F01 ...
ROW 12 : D-4 0B . ... ... : ... .. . ... : F#3 19 . ... : C-# 08 . ... : ... .. . F02 ...
ROW 13 : ... .. . ... ... : ... .. . ... : G-2 01 . ... : ... .. . ... : ... .. . F01 ...
ROW 14 : ... .. . ... ... : ... .. . ... : ... .. . ... : ... .. . ... : ... .. . F02 ...
ROW 15 : ... .. . ... ... : ... .. . ... : ... .. . ... : ... .. . ... : ... .. . F01 ...
ROW 16 : ... .. . ... ... : ... .. . ... : ... .. . ... : ... .. . ... : ... .. . F02 ...
ROW 17 : ... .. . ... ... : ... .. . ... : ... .. . ... : ... .. . ... : ... .. . F01 ...
ROW 18 : ... .. . ... ... : ... .. . ... : --- .. . ... : F-# 04 . ... : ... .. . F02 ...
ROW 19 : ... .. . ... ... : ... .. . ... : ... .. . ... : ... .. . ... : ... .. . F01 ...
ROW 1A : ... .. . ... ... : ... .. . ... : ... .. . ... : ... .. . ... : ... .. . F02 ...
ROW 1B : ... .. . ... ... : ... .. . ... : ... .. . ... : ... .. . ... : ... .. . F01 ...
ROW 1C : ... .. . ... ... : ... .. . ... : ... .. . ... : ... .. . ... : ... .. . F02 ...
ROW 1D : ... .. . ... ... : ... .. . ... : ... .. . ... : ... .. . ... : ... .. . F01 ...
ROW 1E : ... .. . ... ... : ... .. . ... : F#3 19 . ... : F-# 04 . ... : ... .. . F02 ...
ROW 1F : ... .. . ... ... : ... .. . ... : G-2 01 . ... : ... .. . ... : ... .. . F01 ...
ROW 20 : ... .. . ... ... : ... .. . ... : ... .. . ... : ... .. . ... : ... .. . F02 ...
ROW 21 : ... .. . ... ... : ... .. . ... : ... .. . ... : ... .. . ... : ... .. . F01 ...
ROW 22 : ... .. . ... ... : ... .. . ... : ... .. . ... : ... .. . ... : ... .. . F02 ...
ROW 23 : ... .. . ... ... : ... .. . ... : --- .. . ... : ... .. . ... : ... .. . F01 ...
ROW 24 : D-4 02 . ... ... : ... .. . ... : F#3 19 . ... : F-# 03 . ... : ... .. . F02 ...
ROW 25 : ... .. . ... ... : ... .. . ... : G-2 01 . ... : ... .. . ... : ... .. . F01 ...
ROW 26 : ... .. . ... ... : ... .. . ... : ... .. . ... : ... .. . ... : ... .. . F02 ...
ROW 27 : ... .. . ... ... : D-3 12 . ... : ... .. . ... : ... .. . ... : ... .. . F01 ...
ROW 28 : ... .. . ... ... : ... .. . ... : ... .. . ... : ... .. . ... : ... .. . F02 ...
ROW 29 : ... .. . ... ... : ... .. . ... : ... .. . ... : ... .. . ... : ... .. . F01 ...
ROW 2A : ... .. . ... ... : G-3 12 . ... : G-2 05 . ... : F-# 04 . ... : ... .. . F02 ...
ROW 2B : ... .. . ... ... : ... .. . ... : ... .. . ... : ... .. . ... : ... .. . F01 ...
ROW 2C : ... .. . ... ... : ... .. . ... : ... .. . ... : ... .. . ... : ... .. . F02 ...
ROW 2D : ... .. . ... ... : A#3 12 . ... : ... .. . ... : ... .. . ... : ... .. . F01 ...
ROW 2E : ... .. . ... ... : ... .. . ... : ... .. . ... : ... .. . ... : ... .. . F02 ...
ROW 2F : --- .. . ... ... : ... .. . ... : --- .. . ... : ... .. . ... : ... .. . F01 ...
ROW 30 : C-4 01 . ... ... : D-4 12 . ... : F#3 19 . ... : C-# 08 . ... : ... .. . ... ...
ROW 31 : ... .. . ... ... : ... .. . ... : D-2 01 . ... : ... .. . ... : ... .. . F01 ...
ROW 32 : ... .. . ... ... : ... .. . ... : ... .. . ... : ... .. . ... : ... .. . F02 ...
ROW 33 : ... .. . ... ... : G-4 12 . ... : ... .. . ... : ... .. . ... : ... .. . F01 ...
ROW 34 : ... .. . ... ... : ... .. . ... : ... .. . ... : ... .. . ... : ... .. . F02 ...
ROW 35 : --- .. . ... ... : ... .. . ... : ... .. . ... : ... .. . ... : ... .. . F01 ...
ROW 36 : D-4 01 . ... ... : A#4 12 . ... : D-2 05 . ... : F-# 04 . ... : ... .. . ... ...
ROW 37 : ... .. . ... ... : ... .. . ... : ... .. . ... : ... .. . ... : ... .. . F01 ...
ROW 38 : ... .. . ... ... : ... .. . ... : ... .. . ... : ... .. . ... : ... .. . F02 ...
ROW 39 : ... .. . ... ... : D-5 12 . ... : ... .. . ... : F-# 03 . ... : ... .. . F01 ...
ROW 3A : ... .. . ... ... : ... .. . ... : ... .. . ... : ... .. . ... : ... .. . F02 ...
ROW 3B : --- .. . ... ... : ... .. . ... : --- .. . ... : ... .. . ... : ... .. . F01 ...

PATTERN 11
ROW 00 : D-4 01 . ... ... : C-3 10 . ... : F#3 19 . ... : ... .. . ... : ... .. . F02 ...
ROW 01 : ... .. . ... ... : ... .. . ... : G-2 01 . ... : ... .. . ... : ... .. . F01 ...
ROW 02 : ... .. . ... ... : ... .. . ... : ... .. . ... : ... .. . ... : ... .. . F02 ...
ROW 03 : ... .. . ... ... : ... .. . ... : ... .. . ... : ... .. . ... : ... .. . F01 ...
ROW 04 : ... .. . ... ... : ... .. . ... : ... .. . ... : ... .. . ... : ... .. . F02 ...
ROW 05 : ... .. . ... ... : ... .. . ... : ... .. . ... : ... .. . ... : ... .. . F01 ...
ROW 06 : D-4 01 . ... ... : ... .. . ... : ... .. . ... : F-# 04 . ... : ... .. . F02 ...
ROW 07 : ... .. . ... ... : ... .. . ... : ... .. . ... : ... .. . ... : ... .. . F01 ...
ROW 08 : ... .. . ... ... : ... .. . ... : ... .. . ... : ... .. . ... : ... .. . F02 ...
ROW 09 : ... .. . ... ... : ... .. . ... : ... .. . ... : ... .. . ... : ... .. . F01 ...
ROW 0A : ... .. . ... ... : ... .. . ... : ... .. . ... : ... .. . ... : ... .. . F02 ...
ROW 0B : --- .. . ... ... : ... .. . ... : ... .. . ... : ... .. . ... : ... .. . F01 ...
ROW 0C : E-4 01 . ... ... : ... .. . ... : G-2 05 . ... : F-# 04 . ... : ... .. . F02 ...
ROW 0D : ... .. . ... ... : ... .. . ... : ... .. . ... : ... .. . ... : ... .. . F01 ...
ROW 0E : ... .. . ... ... : ... .. . ... : ... .. . ... : ... .. . ... : ... .. . F02 ...
ROW 0F : ... .. . ... ... : ... .. . ... : ... .. . ... : ... .. . ... : ... .. . F01 ...
ROW 10 : ... .. . ... ... : ... .. . ... : ... .. . ... : ... .. . ... : ... .. . F02 ...
ROW 11 : ... .. . ... ... : ... .. . ... : --- .. . ... : ... .. . ... : ... .. . F01 ...
ROW 12 : A#3 01 . ... ... : ... .. . ... : F#3 19 . ... : C-# 08 . ... : ... .. . F02 ...
ROW 13 : B-3 01 . ... ... : ... .. . ... : G-2 01 . ... : ... .. . ... : ... .. . F01 ...
ROW 14 : C-4 01 . ... ... : ... .. . ... : ... .. . ... : ... .. . ... : ... .. . F02 ...
ROW 15 : ... .. . ... ... : ... .. . ... : ... .. . ... : ... .. . ... : ... .. . F01 ...
ROW 16 : ... .. . ... ... : ... .. . ... : ... .. . ... : ... .. . ... : ... .. . F02 ...
ROW 17 : ... .. . ... ... : ... .. . ... : ... .. . ... : ... .. . ... : ... .. . F01 ...
ROW 18 : ... .. . ... ... : ... .. . ... : --- .. . ... : F-# 04 . ... : ... .. . F02 ...
ROW 19 : ... .. . ... ... : ... .. . ... : ... .. . ... : ... .. . ... : ... .. . F01 ...
ROW 1A : ... .. . ... ... : ... .. . ... : ... .. . ... : ... .. . ... : ... .. . F02 ...
ROW 1B : ... .. . ... ... : ... .. . ... : ... .. . ... : ... .. . ... : ... .. . F01 ...
ROW 1C : ... .. . ... ... : ... .. . ... : ... .. . ... : ... .. . ... : ... .. . F02 ...
ROW 1D : ... .. . ... ... : ... .. . ... : ... .. . ... : ... .. . ... : ... .. . F01 ...
ROW 1E : C-4 0B . ... ... : ... .. . ... : F#3 19 . ... : F-# 04 . ... : ... .. . F02 ...
ROW 1F : ... .. . ... ... : ... .. . ... : C-2 01 . ... : ... .. . ... : ... .. . F01 ...
ROW 20 : ... .. . ... ... : ... .. . ... : ... .. . ... : ... .. . ... : ... .. . F02 ...
ROW 21 : ... .. . ... ... : ... .. . ... : ... .. . ... : ... .. . ... : ... .. . F01 ...
ROW 22 : ... .. . ... ... : ... .. . ... : ... .. . ... : ... .. . ... : ... .. . F02 ...
ROW 23 : ... .. . ... ... : ... .. . ... : --- .. . ... : ... .. . ... : ... .. . F01 ...
ROW 24 : ... .. . ... ... : C-6 12 . ... : F#3 19 . ... : F-# 03 . ... : ... .. . F02 ...
ROW 25 : ... .. . ... ... : ... .. . ... : G-2 01 . ... : ... .. . ... : ... .. . F01 ...
ROW 26 : ... .. . ... ... : ... .. . ... : ... .. . ... : ... .. . ... : ... .. . F02 ...
ROW 27 : ... .. . ... ... : G-5 12 . ... : ... .. . ... : ... .. . ... : ... .. . F01 ...
ROW 28 : ... .. . ... ... : ... .. . ... : ... .. . ... : ... .. . ... : ... .. . F02 ...
ROW 29 : ... .. . ... ... : ... .. . ... : ... .. . ... : ... .. . ... : ... .. . F01 ...
ROW 2A : C-4 02 . ... ... : E-5 12 . ... : G-2 05 . ... : F-# 04 . ... : ... .. . ... ...
ROW 2B : ... .. . ... ... : ... .. . ... : ... .. . ... : ... .. . ... : ... .. . F01 ...
ROW 2C : ... .. . ... ... : ... .. . ... : ... .. . ... : ... .. . ... : ... .. . F02 ...
ROW 2D : ... .. . ... ... : C-5 12 . ... : ... .. . ... : ... .. . ... : ... .. . F01 ...
ROW 2E : ... .. . ... ... : ... .. . ... : ... .. . ... : ... .. . ... : ... .. . F02 ...
ROW 2F : --- .. . ... ... : ... .. . ... : --- .. . ... : ... .. . ... : ... .. . F01 ...
ROW 30 : A#3 01 . ... ... : G-4 12 . ... : F#3 19 . ... : C-# 08 . ... : ... .. . ... ...
ROW 31 : ... .. . ... ... : ... .. . ... : G-2 01 . ... : ... .. . ... : ... .. . F01 ...
ROW 32 : ... .. . ... ... : ... .. . ... : ... .. . ... : ... .. . ... : ... .. . F02 ...
ROW 33 : ... .. . ... ... : E-4 12 . ... : ... .. . ... : ... .. . ... : ... .. . F01 ...
ROW 34 : ... .. . ... ... : ... .. . ... : ... .. . ... : ... .. . ... : ... .. . F02 ...
ROW 35 : --- .. . ... ... : ... .. . ... : --- .. . ... : ... .. . ... : ... .. . F01 ...
ROW 36 : A-3 01 . ... ... : C-4 12 . ... : F#3 19 . ... : C-# 08 . ... : ... .. . ... ...
ROW 37 : ... .. . ... ... : ... .. . ... : A-2 01 . ... : ... .. . ... : ... .. . F01 ...
ROW 38 : ... .. . ... ... : ... .. . ... : ... .. . ... : ... .. . ... : ... .. . F02 ...
ROW 39 : ... .. . ... ... : G-3 12 . ... : ... .. . ... : ... .. . ... : ... .. . F01 ...
ROW 3A : ... .. . ... ... : ... .. . ... : ... .. . ... : ... .. . ... : ... .. . F02 ...
ROW 3B : --- .. . ... ... : ... .. . ... : --- .. . ... : ... .. . ... : ... .. . F01 ...

PATTERN 12
ROW 00 : A#3 01 . ... ... : ... .. . ... : F#3 19 . ... : F-# 03 . ... : ... .. . F02 ...
ROW 01 : ... .. . ... ... : A#2 10 . ... : A#2 00 . ... : ... .. . ... : ... .. . F01 ...
ROW 02 : ... .. . ... ... : ... .. . ... : ... .. . ... : ... .. . ... : ... .. . F02 ...
ROW 03 : ... .. . ... ... : ... .. . ... : ... .. . ... : ... .. . ... : ... .. . F01 ...
ROW 04 : ... .. . ... ... : ... .. . ... : ... .. . ... : ... .. . ... : ... .. . F02 ...
ROW 05 : ... .. . ... ... : ... .. . ... : ... .. . ... : ... .. . ... : ... .. . F01 ...
ROW 06 : C-4 01 . ... ... : ... .. . ... : ... .. . ... : F-# 04 . ... : ... .. . F02 ...
ROW 07 : ... .. . ... ... : ... .. . ... : ... .. . ... : ... .. . ... : ... .. . F01 ...
ROW 08 : ... .. . ... ... : ... .. . ... : ... .. . ... : ... .. . ... : ... .. . F02 ...
ROW 09 : ... .. . ... ... : ... .. . ... : ... .. . ... : ... .. . ... : ... .. . F01 ...
ROW 0A : ... .. . ... ... : ... .. . ... : ... .. . ... : ... .. . ... : ... .. . F02 ...
ROW 0B : --- .. . ... ... : ... .. . ... : ... .. . ... : ... .. . ... : ... .. . F01 ...
ROW 0C : C-4 01 . ... ... : ... .. . ... : A#2 05 . ... : F-# 04 . ... : ... .. . F02 ...
ROW 0D : C#4 01 . ... ... : ... .. . ... : ... .. . ... : ... .. . ... : ... .. . F01 ...
ROW 0E : D-4 01 . ... ... : ... .. . ... : ... .. . ... : ... .. . ... : ... .. . F02 ...
ROW 0F : ... .. . ... ... : ... .. . ... : ... .. . ... : ... .. . ... : ... .. . F01 ...
ROW 10 : ... .. . ... ... : ... .. . ... : ... .. . ... : ... .. . ... : ... .. . F02 ...
ROW 11 : ... .. . ... ... : ... .. . ... : --- .. . ... : ... .. . ... : ... .. . F01 ...
ROW 12 : ... .. . ... ... : ... .. . ... : F#3 19 . ... : C-# 08 . ... : ... .. . F02 ...
ROW 13 : ... .. . ... ... : ... .. . ... : A#2 00 . ... : ... .. . ... : ... .. . F01 ...
ROW 14 : ... .. . ... ... : ... .. . ... : ... .. . ... : ... .. . ... : ... .. . F02 ...
ROW 15 : ... .. . ... ... : ... .. . ... : ... .. . ... : ... .. . ... : ... .. . F01 ...
ROW 16 : ... .. . ... ... : ... .. . ... : ... .. . ... : ... .. . ... : ... .. . F02 ...
ROW 17 : ... .. . ... ... : ... .. . ... : ... .. . ... : ... .. . ... : ... .. . F01 ...
ROW 18 : ... .. . ... ... : ... .. . ... : --- .. . ... : F-# 04 . ... : ... .. . F02 ...
ROW 19 : ... .. . ... ... : ... .. . ... : ... .. . ... : ... .. . ... : ... .. . F01 ...
ROW 1A : ... .. . ... ... : ... .. . ... : ... .. . ... : ... .. . ... : ... .. . F02 ...
ROW 1B : ... .. . ... ... : ... .. . ... : ... .. . ... : ... .. . ... : ... .. . F01 ...
ROW 1C : ... .. . ... ... : ... .. . ... : ... .. . ... : ... .. . ... : ... .. . F02 ...
ROW 1D : ... .. . ... ... : ... .. . ... : ... .. . ... : ... .. . ... : ... .. . F01 ...
ROW 1E : D-4 0B . ... ... : ... .. . ... : F#3 19 . ... : F-# 04 . ... : ... .. . F02 ...
ROW 1F : ... .. . ... ... : ... .. . ... : A#2 00 . ... : ... .. . ... : ... .. . F01 ...
ROW 20 : ... .. . ... ... : ... .. . ... : ... .. . ... : ... .. . ... : ... .. . F02 ...
ROW 21 : ... .. . ... ... : ... .. . ... : ... .. . ... : ... .. . ... : ... .. . F01 ...
ROW 22 : ... .. . ... ... : ... .. . ... : ... .. . ... : ... .. . ... : ... .. . F02 ...
ROW 23 : ... .. . ... ... : ... .. . ... : --- .. . ... : ... .. . ... : ... .. . F01 ...
ROW 24 : F-3 01 . ... ... : ... .. . ... : F#3 19 . ... : F-# 03 . ... : ... .. . F02 ...
ROW 25 : ... .. . ... ... : ... .. . ... : A#2 00 . ... : ... .. . ... : ... .. . F01 ...
ROW 26 : ... .. . ... ... : ... .. . ... : ... .. . ... : ... .. . ... : ... .. . F02 ...
ROW 27 : ... .. . ... ... : ... .. . ... : ... .. . ... : ... .. . ... : ... .. . F01 ...
ROW 28 : ... .. . ... ... : ... .. . ... : ... .. . ... : ... .. . ... : ... .. . F02 ...
ROW 29 : ... .. . ... ... : ... .. . ... : ... .. . ... : ... .. . ... : ... .. . F01 ...
ROW 2A : ... .. . ... ... : ... .. . ... : ... .. . ... : F-# 04 . ... : ... .. . F02 ...
ROW 2B : ... .. . ... ... : ... .. . ... : ... .. . ... : ... .. . ... : ... .. . F01 ...
ROW 2C : ... .. . ... ... : ... .. . ... : ... .. . ... : ... .. . ... : ... .. . F02 ...
ROW 2D : ... .. . ... ... : ... .. . ... : ... .. . ... : ... .. . ... : ... .. . F01 ...
ROW 2E : ... .. . ... ... : ... .. . ... : ... .. . ... : ... .. . ... : ... .. . F02 ...
ROW 2F : ... .. . ... ... : ... .. . ... : --- .. . ... : ... .. . ... : ... .. . F01 ...
ROW 30 : F-3 0B . ... ... : ... .. . ... : F#3 19 . ... : C-# 08 . ... : ... .. . F02 ...
ROW 31 : ... .. . ... ... : ... .. . ... : A#1 00 . ... : ... .. . ... : ... .. . F01 ...
ROW 32 : ... .. . ... ... : ... .. . ... : ... .. . ... : ... .. . ... : ... .. . F02 ...
ROW 33 : ... .. . ... ... : ... .. . ... : ... .. . ... : ... .. . ... : ... .. . F01 ...
ROW 34 : ... .. . ... ... : ... .. . ... : ... .. . ... : ... .. . ... : ... .. . F02 ...
ROW 35 : ... .. . ... ... : ... .. . ... : ... .. . ... : ... .. . ... : ... .. . F01 ...
ROW 36 : ... .. . ... ... : ... .. . ... : ... .. . ... : F-# 04 . ... : ... .. . F02 ...
ROW 37 : ... .. . ... ... : ... .. . ... : ... .. . ... : ... .. . ... : ... .. . F01 ...
ROW 38 : ... .. . ... ... : ... .. . ... : ... .. . ... : ... .. . ... : ... .. . F02 ...
ROW 39 : ... .. . ... ... : ... .. . ... : ... .. . ... : F-# 03 . ... : ... .. . F01 ...
ROW 3A : ... .. . ... ... : ... .. . ... : ... .. . ... : ... .. . ... : ... .. . F02 ...
ROW 3B : --- .. . ... ... : ... .. . ... : --- .. . ... : ... .. . ... : ... .. . F01 ...

PATTERN 13
ROW 00 : A#3 01 . ... ... : ... .. . ... : F#3 19 . ... : F-# 03 . ... : ... .. . F02 ...
ROW 01 : ... .. . ... ... : C-3 13 . ... : C-3 00 . ... : ... .. . ... : ... .. . F01 ...
ROW 02 : ... .. . ... ... : ... .. . ... : ... .. . ... : ... .. . ... : ... .. . F02 ...
ROW 03 : ... .. . ... ... : ... .. . ... : ... .. . ... : ... .. . ... : ... .. . F01 ...
ROW 04 : ... .. . ... ... : ... .. . ... : ... .. . ... : ... .. . ... : ... .. . F02 ...
ROW 05 : ... .. . ... ... : ... .. . ... : ... .. . ... : ... .. . ... : ... .. . F01 ...
ROW 06 : A-3 01 . ... ... : ... .. . ... : ... .. . ... : F-# 04 . ... : ... .. . F02 ...
ROW 07 : ... .. . ... ... : ... .. . ... : ... .. . ... : ... .. . ... : ... .. . F01 ...
ROW 08 : ... .. . ... ... : ... .. . ... : ... .. . ... : ... .. . ... : ... .. . F02 ...
ROW 09 : ... .. . ... ... : ... .. . ... : ... .. . ... : ... .. . ... : ... .. . F01 ...
ROW 0A : ... .. . ... ... : ... .. . ... : ... .. . ... : ... .. . ... : ... .. . F02 ...
ROW 0B : --- .. . ... ... : ... .. . ... : ... .. . ... : ... .. . ... : ... .. . F01 ...
ROW 0C : G-3 01 . ... ... : ... .. . ... : C-3 05 . ... : F-# 04 . ... : ... .. . F02 ...
ROW 0D : ... .. . ... ... : ... .. . ... : ... .. . ... : ... .. . ... : ... .. . F01 ...
ROW 0E : ... .. . ... ... : ... .. . ... : ... .. . ... : ... .. . ... : ... .. . F02 ...
ROW 0F : ... .. . ... ... : ... .. . ... : ... .. . ... : ... .. . ... : ... .. . F01 ...
ROW 10 : ... .. . ... ... : ... .. . ... : ... .. . ... : ... .. . ... : ... .. . F02 ...
ROW 11 : ... .. . ... ... : ... .. . ... : --- .. . ... : ... .. . ... : ... .. . F01 ...
ROW 12 : ... .. . ... ... : ... .. . ... : F#3 19 . ... : C-# 08 . ... : ... .. . F02 ...
ROW 13 : ... .. . ... ... : ... .. . ... : C-3 01 . ... : ... .. . ... : ... .. . F01 ...
ROW 14 : ... .. . ... ... : ... .. . ... : ... .. . ... : ... .. . ... : ... .. . F02 ...
ROW 15 : ... .. . ... ... : ... .. . ... : ... .. . ... : ... .. . ... : ... .. . F01 ...
ROW 16 : ... .. . ... ... : ... .. . ... : ... .. . ... : ... .. . ... : ... .. . F02 ...
ROW 17 : ... .. . ... ... : ... .. . ... : ... .. . ... : ... .. . ... : ... .. . F01 ...
ROW 18 : ... .. . ... ... : C-4 12 . ... : --- .. . ... : F-# 04 . ... : ... .. . F02 ...
ROW 19 : ... .. . ... ... : ... .. . ... : ... .. . ... : ... .. . ... : ... .. . F01 ...
ROW 1A : ... .. . ... ... : ... .. . ... : ... .. . ... : ... .. . ... : ... .. . F02 ...
ROW 1B : ... .. . ... ... : F-4 12 . ... : ... .. . ... : ... .. . ... : ... .. . F01 ...
ROW 1C : ... .. . ... ... : ... .. . ... : ... .. . ... : ... .. . ... : ... .. . F02 ...
ROW 1D : ... .. . ... ... : ... .. . ... : ... .. . ... : ... .. . ... : ... .. . F01 ...
ROW 1E : G-3 0B . ... ... : G-4 12 . ... : F#3 19 . ... : F-# 04 . ... : ... .. . ... ...
ROW 1F : ... .. . ... ... : ... .. . ... : G-2 01 . ... : ... .. . ... : ... .. . F01 ...
ROW 20 : ... .. . ... ... : ... .. . ... : ... .. . ... : ... .. . ... : ... .. . F02 ...
ROW 21 : ... .. . ... ... : C-5 12 . ... : ... .. . ... : ... .. . ... : ... .. . F01 ...
ROW 22 : ... .. . ... ... : ... .. . ... : ... .. . ... : ... .. . ... : ... .. . F02 ...
ROW 23 : ... .. . ... ... : --- .. . ... : --- .. . ... : ... .. . ... : ... .. . F01 ...
ROW 24 : ... .. . ... ... : C-3 10 . ... : F#3 19 . ... : F-# 03 . ... : ... .. . F02 ...
ROW 25 : ... .. . ... ... : ... .. . ... : C-3 01 . ... : ... .. . ... : ... .. . F01 ...
ROW 26 : ... .. . ... ... : ... .. . ... : ... .. . ... : ... .. . ... : ... .. . F02 ...
ROW 27 : ... .. . ... ... : ... .. . ... : ... .. . ... : ... .. . ... : ... .. . F01 ...
ROW 28 : ... .. . ... ... : ... .. . ... : ... .. . ... : ... .. . ... : ... .. . F02 ...
ROW 29 : ... .. . ... ... : ... .. . ... : ... .. . ... : ... .. . ... : ... .. . F01 ...
ROW 2A : ... .. . ... ... : ... .. . ... : ... .. . ... : F-# 04 . ... : ... .. . F02 ...
ROW 2B : ... .. . ... ... : ... .. . ... : ... .. . ... : ... .. . ... : ... .. . F01 ...
ROW 2C : ... .. . ... ... : ... .. . ... : ... .. . ... : ... .. . ... : ... .. . F02 ...
ROW 2D : ... .. . ... ... : ... .. . ... : ... .. . ... : ... .. . ... : ... .. . F01 ...
ROW 2E : ... .. . ... ... : ... .. . ... : ... .. . ... : ... .. . ... : ... .. . F02 ...
ROW 2F : --- .. . ... ... : ... .. . ... : --- .. . ... : ... .. . ... : ... .. . F01 ...
ROW 30 : F-3 01 . ... ... : ... .. . ... : F#3 19 . ... : C-# 08 . ... : ... .. . F02 ...
ROW 31 : ... .. . ... ... : ... .. . ... : C-2 01 . ... : ... .. . ... : ... .. . F01 ...
ROW 32 : ... .. . ... ... : ... .. . ... : ... .. . ... : ... .. . ... : ... .. . F02 ...
ROW 33 : ... .. . ... ... : ... .. . ... : ... .. . ... : ... .. . ... : ... .. . F01 ...
ROW 34 : ... .. . ... ... : ... .. . ... : ... .. . ... : ... .. . ... : ... .. . F02 ...
ROW 35 : --- .. . ... ... : ... .. . ... : ... .. . ... : ... .. . ... : ... .. . F01 ...
ROW 36 : F#3 01 . ... ... : ... .. . ... : ... .. . ... : C-# 08 . ... : ... .. . F02 ...
ROW 37 : G-3 01 . ... ... : ... .. . ... : ... .. . ... : ... .. . ... : ... .. . F01 ...
ROW 38 : ... .. . ... ... : ... .. . ... : ... .. . ... : ... .. . ... : ... .. . F02 ...
ROW 39 : ... .. . ... ... : ... .. . ... : ... .. . ... : F-# 03 . ... : ... .. . F01 ...
ROW 3A : ... .. . ... ... : ... .. . ... : ... .. . ... : ... .. . ... : ... .. . F02 ...
ROW 3B : ... .. . ... ... : ... .. . ... : --- .. . ... : ... .. . ... : ... .. . F01 ...

PATTERN 14
ROW 00 : ... .. . ... ... : D#3 10 . ... : F#3 19 . ... : 9-# 06 . ... : ... .. . F02 ...
ROW 01 : ... .. . ... ... : ... .. . ... : D#2 00 . ... : ... .. . ... : ... .. . F01 ...
ROW 02 : ... .. . ... ... : ... .. . ... : ... .. . ... : ... .. . ... : ... .. . F02 ...
ROW 03 : ... .. . ... ... : ... .. . ... : ... .. . ... : ... .. . ... : ... .. . F01 ...
ROW 04 : ... .. . ... ... : ... .. . ... : ... .. . ... : ... .. . ... : ... .. . F02 ...
ROW 05 : ... .. . ... ... : ... .. . ... : ... .. . ... : ... .. . ... : ... .. . F01 ...
ROW 06 : ... .. . ... ... : ... .. . ... : ... .. . ... : ... .. . ... : ... .. . F02 ...
ROW 07 : ... .. . ... ... : ... .. . ... : ... .. . ... : ... .. . ... : ... .. . F01 ...
ROW 08 : ... .. . ... ... : ... .. . ... : ... .. . ... : ... .. . ... : ... .. . F02 ...
ROW 09 : ... .. . ... ... : ... .. . ... : ... .. . ... : ... .. . ... : ... .. . F01 ...
ROW 0A : ... .. . ... ... : ... .. . ... : ... .. . ... : ... .. . ... : ... .. . F02 ...
ROW 0B : --- .. . ... ... : ... .. . ... : ... .. . ... : ... .. . ... : ... .. . F01 ...
ROW 0C : G-3 01 . ... ... : ... .. . ... : D#2 05 . ... : ... .. . ... : ... .. . F02 ...
ROW 0D : ... .. . ... ... : ... .. . ... : ... .. . ... : ... .. . ... : ... .. . F01 ...
ROW 0E : ... .. . ... ... : ... .. . ... : ... .. . ... : ... .. . ... : ... .. . F02 ...
ROW 0F : ... .. . ... ... : ... .. . ... : ... .. . ... : ... .. . ... : ... .. . F01 ...
ROW 10 : ... .. . ... ... : ... .. . ... : ... .. . ... : ... .. . ... : ... .. . F02 ...
ROW 11 : ... .. . ... ... : ... .. . ... : --- .. . ... : ... .. . ... : ... .. . F01 ...
ROW 12 : ... .. . ... ... : ... .. . ... : F#3 19 . ... : C-# 08 . ... : ... .. . F02 ...
ROW 13 : ... .. . ... ... : ... .. . ... : D#2 01 . ... : ... .. . ... : ... .. . F01 ...
ROW 14 : ... .. . ... ... : ... .. . ... : ... .. . ... : ... .. . ... : ... .. . F02 ...
ROW 15 : ... .. . ... ... : ... .. . ... : ... .. . ... : ... .. . ... : ... .. . F01 ...
ROW 16 : ... .. . ... ... : ... .. . ... : ... .. . ... : ... .. . ... : ... .. . F02 ...
ROW 17 : --- .. . ... ... : ... .. . ... : ... .. . ... : ... .. . ... : ... .. . F01 ...
ROW 18 : G-3 0C . ... ... : ... .. . ... : --- .. . ... : F-# 04 . ... : ... .. . F02 ...
ROW 19 : ... .. . ... ... : ... .. . ... : ... .. . ... : ... .. . ... : ... .. . F01 ...
ROW 1A : ... .. . ... ... : ... .. . ... : ... .. . ... : ... .. . ... : ... .. . F02 ...
ROW 1B : ... .. . ... ... : ... .. . ... : ... .. . ... : ... .. . ... : ... .. . F01 ...
ROW 1C : ... .. . ... ... : ... .. . ... : ... .. . ... : ... .. . ... : ... .. . F02 ...
ROW 1D : ... .. . ... ... : ... .. . ... : ... .. . ... : ... .. . ... : ... .. . F01 ...
ROW 1E : ... .. . ... ... : ... .. . ... : F#3 19 . ... : F-# 04 . ... : ... .. . F02 ...
ROW 1F : ... .. . ... ... : ... .. . ... : A#1 01 . ... : ... .. . ... : ... .. . F01 ...
ROW 20 : ... .. . ... ... : ... .. . ... : ... .. . ... : ... .. . ... : ... .. . F02 ...
ROW 21 : ... .. . ... ... : ... .. . ... : ... .. . ... : ... .. . ... : ... .. . F01 ...
ROW 22 : ... .. . ... ... : ... .. . ... : ... .. . ... : ... .. . ... : ... .. . F02 ...
ROW 23 : --- .. . ... ... : ... .. . ... : --- .. . ... : ... .. . ... : ... .. . F01 ...
ROW 24 : G-3 0D . ... ... : ... .. . ... : F#3 19 . ... : F-# 03 . ... : ... .. . F02 ...
ROW 25 : ... .. . ... ... : ... .. . ... : D#2 01 . ... : ... .. . ... : ... .. . F01 ...
ROW 26 : ... .. . ... ... : ... .. . ... : ... .. . ... : ... .. . ... : ... .. . F02 ...
ROW 27 : ... .. . ... ... : ... .. . ... : ... .. . ... : ... .. . ... : ... .. . F01 ...
ROW 28 : ... .. . ... ... : ... .. . ... : ... .. . ... : ... .. . ... : ... .. . F02 ...
ROW 29 : ... .. . ... ... : ... .. . ... : ... .. . ... : ... .. . ... : ... .. . F01 ...
ROW 2A : ... .. . ... ... : ... .. . ... : ... .. . ... : F-# 04 . ... : ... .. . F02 ...
ROW 2B : ... .. . ... ... : ... .. . ... : ... .. . ... : ... .. . ... : ... .. . F01 ...
ROW 2C : ... .. . ... ... : ... .. . ... : ... .. . ... : ... .. . ... : ... .. . F02 ...
ROW 2D : ... .. . ... ... : ... .. . ... : ... .. . ... : ... .. . ... : ... .. . F01 ...
ROW 2E : ... .. . ... ... : ... .. . ... : ... .. . ... : ... .. . ... : ... .. . F02 ...
ROW 2F : --- .. . ... ... : ... .. . ... : --- .. . ... : ... .. . ... : ... .. . F01 ...
ROW 30 : ... .. . ... ... : ... .. . ... : F#3 19 . ... : C-# 08 . ... : ... .. . F02 ...
ROW 31 : ... .. . ... ... : ... .. . ... : D#1 01 . ... : ... .. . ... : ... .. . F01 ...
ROW 32 : ... .. . ... ... : ... .. . ... : ... .. . ... : ... .. . ... : ... .. . F02 ...
ROW 33 : ... .. . ... ... : ... .. . ... : ... .. . ... : ... .. . ... : ... .. . F01 ...
ROW 34 : ... .. . ... ... : ... .. . ... : ... .. . ... : ... .. . ... : ... .. . F02 ...
ROW 35 : ... .. . ... ... : ... .. . ... : ... .. . ... : ... .. . ... : ... .. . F01 ...
ROW 36 : ... .. . ... ... : C#4 04 . ... : ... .. . ... : F-# 04 . ... : ... .. . F02 ...
ROW 37 : ... .. . ... ... : ... .. . ... : ... .. . ... : ... .. . ... : ... .. . F01 ...
ROW 38 : ... .. . ... ... : ... .. . ... : ... .. . ... : ... .. . ... : ... .. . F02 ...
ROW 39 : ... .. . ... ... : D-4 04 . ... : ... .. . ... : F-# 03 . ... : ... .. . F01 ...
ROW 3A : ... .. . ... ... : ... .. . ... : ... .. . ... : ... .. . ... : ... .. . F02 ...
ROW 3B : ... .. . ... ... : ... .. . ... : --- .. . ... : ... .. . ... : ... .. . F01 ...

PATTERN 15
ROW 00 : ... .. . ... ... : D#4 04 . ... : F#3 19 . ... : C-# 08 . ... : ... .. . F02 ...
ROW 01 : D-5 0C . ... ... : ... .. . ... : D#2 01 . ... : ... .. . ... : ... .. . F01 ...
ROW 02 : D#5 0C . ... ... : ... .. . ... : ... .. . ... : ... .. . ... : ... .. . F02 ...
ROW 03 : ... .. . ... ... : D#4 15 . ... : ... .. . ... : ... .. . ... : ... .. . F01 ...
ROW 04 : ... .. . ... ... : ... .. . ... : ... .. . ... : ... .. . ... : ... .. . F02 ...
ROW 05 : ... .. . ... ... : ... .. . ... : --- .. . ... : ... .. . ... : ... .. . F01 ...
ROW 06 : ... .. . ... ... : G-4 04 . ... : F#3 19 . ... : C-# 08 . ... : ... .. . F02 ...
ROW 07 : ... .. . ... ... : ... .. . ... : D#2 01 . ... : ... .. . ... : ... .. . F01 ...
ROW 08 : ... .. . ... ... : ... .. . ... : ... .. . ... : ... .. . ... : ... .. . F02 ...
ROW 09 : ... .. . ... ... : G-4 15 . ... : ... .. . ... : ... .. . ... : ... .. . F01 ...
ROW 0A : ... .. . ... ... : ... .. . ... : ... .. . ... : ... .. . ... : ... .. . F02 ...
ROW 0B : ... .. . ... ... : ... .. . ... : ... .. . ... : ... .. . ... : ... .. . F01 ...
ROW 0C : ... .. . ... ... : D#4 04 . ... : --- .. . ... : F-# 08 . ... : ... .. . F02 ...
ROW 0D : ... .. . ... ... : ... .. . ... : ... .. . ... : ... .. . ... : ... .. . F01 ...
ROW 0E : ... .. . ... ... : ... .. . ... : ... .. . ... : ... .. . ... : ... .. . F02 ...
ROW 0F : ... .. . ... ... : D#4 15 . ... : ... .. . ... : ... .. . ... : ... .. . F01 ...
ROW 10 : ... .. . ... ... : ... .. . ... : ... .. . ... : ... .. . ... : ... .. . F02 ...
ROW 11 : ... .. . ... ... : ... .. . ... : ... .. . ... : ... .. . ... : ... .. . F01 ...
ROW 12 : D-5 0C . ... ... : A#3 04 . ... : F#3 19 . ... : F-# 07 . ... : ... .. . ... ...
ROW 13 : ... .. . ... ... : ... .. . ... : D#2 01 . ... : ... .. . ... : ... .. . F01 ...
ROW 14 : ... .. . ... ... : ... .. . ... : ... .. . ... : ... .. . ... : ... .. . F02 ...
ROW 15 : D#5 0C . ... ... : A#3 15 . ... : ... .. . ... : ... .. . ... : ... .. . F01 ...
ROW 16 : ... .. . ... ... : ... .. . ... : ... .. . ... : ... .. . ... : ... .. . F02 ...
ROW 17 : ... .. . ... ... : ... .. . ... : ... .. . ... : ... .. . ... : ... .. . F01 ...
ROW 18 : C-5 0C . ... ... : D#4 04 . ... : --- .. . ... : F-# 08 . ... : ... .. . ... ...
ROW 19 : B-4 0C . ... ... : ... .. . ... : ... .. . ... : ... .. . ... : ... .. . F01 ...
ROW 1A : A#4 0C . ... ... : ... .. . ... : ... .. . ... : ... .. . ... : ... .. . F02 ...
ROW 1B : ... .. . ... ... : D#4 15 . ... : ... .. . ... : ... .. . ... : ... .. . F01 ...
ROW 1C : ... .. . ... ... : ... .. . ... : ... .. . ... : ... .. . ... : ... .. . F02 ...
ROW 1D : ... .. . ... ... : ... .. . ... : ... .. . ... : ... .. . ... : ... .. . F01 ...
ROW 1E : ... .. . ... ... : A#3 04 . ... : F#3 19 . ... : F-# 07 . ... : ... .. . F02 ...
ROW 1F : ... .. . ... ... : ... .. . ... : A#1 01 . ... : ... .. . ... : ... .. . F01 ...
ROW 20 : ... .. . ... ... : ... .. . ... : ... .. . ... : ... .. . ... : ... .. . F02 ...
ROW 21 : ... .. . ... ... : A#3 15 . ... : ... .. . ... : ... .. . ... : ... .. . F01 ...
ROW 22 : ... .. . ... ... : ... .. . ... : ... .. . ... : ... .. . ... : ... .. . F02 ...
ROW 23 : ... .. . ... ... : ... .. . ... : --- .. . ... : ... .. . ... : ... .. . F01 ...
ROW 24 : G-4 0C . ... ... : G-3 04 . ... : F#3 19 . ... : C-# 08 . ... : ... .. . ... ...
ROW 25 : ... .. . ... ... : ... .. . ... : D#2 01 . ... : ... .. . ... : ... .. . F01 ...
ROW 26 : ... .. . ... ... : ... .. . ... : ... .. . ... : ... .. . ... : ... .. . F02 ...
ROW 27 : ... .. . ... ... : G-3 15 . ... : ... .. . ... : ... .. . ... : ... .. . F01 ...
ROW 28 : ... .. . ... ... : ... .. . ... : ... .. . ... : ... .. . ... : ... .. . F02 ...
ROW 29 : ... .. . ... ... : ... .. . ... : ... .. . ... : ... .. . ... : ... .. . F01 ...
ROW 2A : ... .. . ... ... : A#3 04 . ... : ... .. . ... : F-# 08 . ... : ... .. . F02 ...
ROW 2B : ... .. . ... ... : ... .. . ... : ... .. . ... : ... .. . ... : ... .. . F01 ...
ROW 2C : ... .. . ... ... : ... .. . ... : ... .. . ... : ... .. . ... : ... .. . F02 ...
ROW 2D : ... .. . ... ... : A#3 15 . ... : ... .. . ... : ... .. . ... : ... .. . F01 ...
ROW 2E : ... .. . ... ... : ... .. . ... : ... .. . ... : ... .. . ... : ... .. . F02 ...
ROW 2F : ... .. . ... ... : ... .. . ... : --- .. . ... : ... .. . ... : ... .. . F01 ...
ROW 30 : G#3 01 . ... ... : G-3 04 . ... : F#3 19 . ... : F-# 07 . ... : ... .. . ... ...
ROW 31 : A-3 01 . ... ... : ... .. . ... : D#2 01 . ... : ... .. . ... : ... .. . F01 ...
ROW 32 : A#3 01 . ... ... : ... .. . ... : ... .. . ... : ... .. . ... : ... .. . F02 ...
ROW 33 : ... .. . ... ... : G-3 15 . ... : ... .. . ... : ... .. . ... : ... .. . F01 ...
ROW 34 : ... .. . ... ... : ... .. . ... : ... .. . ... : ... .. . ... : ... .. . F02 ...
ROW 35 : ... .. . ... ... : ... .. . ... : --- .. . ... : ... .. . ... : ... .. . F01 ...
ROW 36 : A-3 01 . ... ... : D#3 04 . ... : F#3 19 . ... : C-# 08 . ... : ... .. . ... ...
ROW 37 : ... .. . ... ... : ... .. . ... : D#2 01 . ... : ... .. . ... : ... .. . F01 ...
ROW 38 : ... .. . ... ... : ... .. . ... : ... .. . ... : ... .. . ... : ... .. . F02 ...
ROW 39 : ... .. . ... ... : D#3 15 . ... : ... .. . ... : ... .. . ... : ... .. . F01 ...
ROW 3A : ... .. . ... ... : ... .. . ... : ... .. . ... : ... .. . ... : ... .. . F02 ...
ROW 3B : --- .. . ... ... : ... .. . ... : --- .. . ... : ... .. . ... : ... .. . F01 ...

PATTERN 16
ROW 00 : A#3 01 . ... ... : ... .. . ... : F#3 19 . ... : 9-# 06 . ... : ... .. . F02 ...
ROW 01 : ... .. . ... ... : G-3 0F . ... : G-2 01 . ... : ... .. . ... : ... .. . F01 ...
ROW 02 : ... .. . ... ... : ... .. . ... : ... .. . ... : ... .. . ... : ... .. . F02 ...
ROW 03 : ... .. . ... ... : ... .. . ... : ... .. . ... : ... .. . ... : ... .. . F01 ...
ROW 04 : ... .. . ... ... : ... .. . ... : ... .. . ... : ... .. . ... : ... .. . F02 ...
ROW 05 : ... .. . ... ... : ... .. . ... : ... .. . ... : ... .. . ... : ... .. . F01 ...
ROW 06 : A-3 01 . ... ... : ... .. . ... : ... .. . ... : ... .. . ... : ... .. . F02 ...
ROW 07 : ... .. . ... ... : ... .. . ... : ... .. . ... : ... .. . ... : ... .. . F01 ...
ROW 08 : ... .. . ... ... : ... .. . ... : ... .. . ... : ... .. . ... : ... .. . F02 ...
ROW 09 : ... .. . ... ... : ... .. . ... : ... .. . ... : ... .. . ... : ... .. . F01 ...
ROW 0A : ... .. . ... ... : ... .. . ... : ... .. . ... : ... .. . ... : ... .. . F02 ...
ROW 0B : --- .. . ... ... : ... .. . ... : ... .. . ... : ... .. . ... : ... .. . F01 ...
ROW 0C : G-3 01 . ... ... : ... .. . ... : G-2 05 . ... : ... .. . ... : ... .. . F02 ...
ROW 0D : ... .. . ... ... : ... .. . ... : ... .. . ... : ... .. . ... : ... .. . F01 ...
ROW 0E : ... .. . ... ... : ... .. . ... : ... .. . ... : ... .. . ... : ... .. . F02 ...
ROW 0F : ... .. . ... ... : ... .. . ... : ... .. . ... : ... .. . ... : ... .. . F01 ...
ROW 10 : ... .. . ... ... : ... .. . ... : ... .. . ... : ... .. . ... : ... .. . F02 ...
ROW 11 : ... .. . ... ... : ... .. . ... : --- .. . ... : --- .. . ... : ... .. . F01 ...
ROW 12 : ... .. . ... ... : ... .. . ... : F#3 19 . ... : C-# 08 . ... : ... .. . F02 ...
ROW 13 : ... .. . ... ... : ... .. . ... : G-2 01 . ... : ... .. . ... : ... .. . F01 ...
ROW 14 : ... .. . ... ... : ... .. . ... : ... .. . ... : ... .. . ... : ... .. . F02 ...
ROW 15 : ... .. . ... ... : ... .. . ... : ... .. . ... : ... .. . ... : ... .. . F01 ...
ROW 16 : ... .. . ... ... : ... .. . ... : ... .. . ... : ... .. . ... : ... .. . F02 ...
ROW 17 : ... .. . ... ... : ... .. . ... : ... .. . ... : ... .. . ... : ... .. . F01 ...
ROW 18 : ... .. . ... ... : ... .. . ... : --- .. . ... : F-# 04 . ... : ... .. . F02 ...
ROW 19 : ... .. . ... ... : ... .. . ... : ... .. . ... : ... .. . ... : ... .. . F01 ...
ROW 1A : ... .. . ... ... : ... .. . ... : ... .. . ... : ... .. . ... : ... .. . F02 ...
ROW 1B : ... .. . ... ... : ... .. . ... : ... .. . ... : ... .. . ... : ... .. . F01 ...
ROW 1C : ... .. . ... ... : ... .. . ... : ... .. . ... : ... .. . ... : ... .. . F02 ...
ROW 1D : ... .. . ... ... : ... .. . ... : ... .. . ... : ... .. . ... : ... .. . F01 ...
ROW 1E : G-3 0B . ... ... : ... .. . ... : F#3 19 . ... : F-# 04 . ... : ... .. . F02 ...
ROW 1F : ... .. . ... ... : ... .. . ... : G-2 01 . ... : ... .. . ... : ... .. . F01 ...
ROW 20 : ... .. . ... ... : ... .. . ... : ... .. . ... : ... .. . ... : ... .. . F02 ...
ROW 21 : ... .. . ... ... : ... .. . ... : ... .. . ... : ... .. . ... : ... .. . F01 ...
ROW 22 : ... .. . ... ... : ... .. . ... : ... .. . ... : ... .. . ... : ... .. . F02 ...
ROW 23 : ... .. . ... ... : ... .. . ... : --- .. . ... : ... .. . ... : ... .. . F01 ...
ROW 24 : ... .. . ... ... : ... .. . ... : F#3 19 . ... : F-# 03 . ... : ... .. . F02 ...
ROW 25 : ... .. . ... ... : ... .. . ... : G-2 01 . ... : ... .. . ... : ... .. . F01 ...
ROW 26 : ... .. . ... ... : ... .. . ... : ... .. . ... : ... .. . ... : ... .. . F02 ...
ROW 27 : ... .. . ... ... : ... .. . ... : ... .. . ... : ... .. . ... : ... .. . F01 ...
ROW 28 : ... .. . ... ... : ... .. . ... : ... .. . ... : ... .. . ... : ... .. . F02 ...
ROW 29 : ... .. . ... ... : ... .. . ... : ... .. . ... : ... .. . ... : ... .. . F01 ...
ROW 2A : ... .. . ... ... : ... .. . ... : G-2 05 . ... : F-# 04 . ... : ... .. . F02 ...
ROW 2B : ... .. . ... ... : ... .. . ... : ... .. . ... : ... .. . ... : ... .. . F01 ...
ROW 2C : ... .. . ... ... : ... .. . ... : ... .. . ... : ... .. . ... : ... .. . F02 ...
ROW 2D : ... .. . ... ... : ... .. . ... : ... .. . ... : ... .. . ... : ... .. . F01 ...
ROW 2E : ... .. . ... ... : ... .. . ... : ... .. . ... : ... .. . ... : ... .. . F02 ...
ROW 2F : ... .. . ... ... : ... .. . ... : --- .. . ... : ... .. . ... : ... .. . F01 ...
ROW 30 : G-3 02 . ... ... : ... .. . ... : F#3 19 . ... : C-# 08 . ... : ... .. . F02 ...
ROW 31 : ... .. . ... ... : ... .. . ... : G-2 01 . ... : ... .. . ... : ... .. . F01 ...
ROW 32 : ... .. . ... ... : ... .. . ... : ... .. . ... : ... .. . ... : ... .. . F02 ...
ROW 33 : ... .. . ... ... : ... .. . ... : ... .. . ... : ... .. . ... : ... .. . F01 ...
ROW 34 : ... .. . ... ... : ... .. . ... : ... .. . ... : ... .. . ... : ... .. . F02 ...
ROW 35 : ... .. . ... ... : ... .. . ... : ... .. . ... : ... .. . ... : ... .. . F01 ...
ROW 36 : ... .. . ... ... : ... .. . ... : D-2 05 . ... : F-# 04 . ... : ... .. . F02 ...
ROW 37 : ... .. . ... ... : ... .. . ... : ... .. . ... : ... .. . ... : ... .. . F01 ...
ROW 38 : ... .. . ... ... : ... .. . ... : ... .. . ... : ... .. . ... : ... .. . F02 ...
ROW 39 : ... .. . ... ... : ... .. . ... : ... .. . ... : F-# 03 . ... : ... .. . F01 ...
ROW 3A : ... .. . ... ... : ... .. . ... : ... .. . ... : ... .. . ... : ... .. . F02 ...
ROW 3B : ... .. . ... ... : ... .. . ... : --- .. . ... : ... .. . ... : ... .. . F01 ...

PATTERN 17
ROW 00 : D-3 09 . ... ... : ... .. . ... : F#3 19 . ... : F-# 03 . ... : ... .. . F02 ...
ROW 01 : ... .. . ... ... : A#2 09 . ... : G-2 01 . ... : ... .. . ... : ... .. . F01 ...
ROW 02 : ... .. . ... ... : ... .. . ... : ... .. . ... : ... .. . ... : ... .. . F02 ...
ROW 03 : ... .. . ... ... : ... .. . ... : ... .. . ... : ... .. . ... : ... .. . F01 ...
ROW 04 : ... .. . ... ... : ... .. . ... : ... .. . ... : ... .. . ... : ... .. . F02 ...
ROW 05 : ... .. . ... ... : ... .. . ... : ... .. . ... : ... .. . ... : ... .. . F01 ...
ROW 06 : ... .. . ... ... : ... .. . ... : ... .. . ... : F-# 04 . ... : ... .. . F02 ...
ROW 07 : ... .. . ... ... : ... .. . ... : ... .. . ... : ... .. . ... : ... .. . F01 ...
ROW 08 : ... .. . ... ... : ... .. . ... : ... .. . ... : ... .. . ... : ... .. . F02 ...
ROW 09 : ... .. . ... ... : ... .. . ... : ... .. . ... : ... .. . ... : ... .. . F01 ...
ROW 0A : ... .. . ... ... : ... .. . ... : ... .. . ... : ... .. . ... : ... .. . F02 ...
ROW 0B : ... .. . ... ... : ... .. . ... : ... .. . ... : ... .. . ... : ... .. . F01 ...
ROW 0C : ... .. . ... ... : ... .. . ... : G-2 05 . ... : F-# 04 . ... : ... .. . F02 ...
ROW 0D : ... .. . ... ... : ... .. . ... : ... .. . ... : ... .. . ... : ... .. . F01 ...
ROW 0E : ... .. . ... ... : ... .. . ... : ... .. . ... : ... .. . ... : ... .. . F02 ...
ROW 0F : ... .. . ... ... : ... .. . ... : ... .. . ... : ... .. . ... : ... .. . F01 ...
ROW 10 : ... .. . ... ... : ... .. . ... : ... .. . ... : ... .. . ... : ... .. . F02 ...
ROW 11 : ... .. . ... ... : ... .. . ... : --- .. . ... : ... .. . ... : ... .. . F01 ...
ROW 12 : G-3 09 . ... ... : C-3 09 . ... : F#3 19 . ... : C-# 08 . ... : ... .. . ... ...
ROW 13 : ... .. . ... ... : ... .. . ... : G-2 01 . ... : ... .. . ... : ... .. . F01 ...
ROW 14 : ... .. . ... ... : ... .. . ... : ... .. . ... : ... .. . ... : ... .. . F02 ...
ROW 15 : ... .. . ... ... : ... .. . ... : ... .. . ... : ... .. . ... : ... .. . F01 ...
ROW 16 : ... .. . ... ... : ... .. . ... : ... .. . ... : ... .. . ... : ... .. . F02 ...
ROW 17 : ... .. . ... ... : ... .. . ... : ... .. . ... : ... .. . ... : ... .. . F01 ...
ROW 18 : ... .. . ... ... : ... .. . ... : --- .. . ... : F-# 04 . ... : ... .. . F02 ...
ROW 19 : ... .. . ... ... : ... .. . ... : ... .. . ... : ... .. . ... : ... .. . F01 ...
ROW 1A : ... .. . ... ... : ... .. . ... : ... .. . ... : ... .. . ... : ... .. . F02 ...
ROW 1B : ... .. . ... ... : ... .. . ... : ... .. . ... : ... .. . ... : ... .. . F01 ...
ROW 1C : ... .. . ... ... : ... .. . ... : ... .. . ... : ... .. . ... : ... .. . F02 ...
ROW 1D : ... .. . ... ... : ... .. . ... : ... .. . ... : ... .. . ... : ... .. . F01 ...
ROW 1E : ... .. . ... ... : ... .. . ... : F#3 19 . ... : F-# 04 . ... : ... .. . F02 ...
ROW 1F : ... .. . ... ... : ... .. . ... : G-2 01 . ... : ... .. . ... : ... .. . F01 ...
ROW 20 : ... .. . ... ... : ... .. . ... : ... .. . ... : ... .. . ... : ... .. . F02 ...
ROW 21 : ... .. . ... ... : ... .. . ... : ... .. . ... : ... .. . ... : ... .. . F01 ...
ROW 22 : ... .. . ... ... : ... .. . ... : ... .. . ... : ... .. . ... : ... .. . F02 ...
ROW 23 : ... .. . ... ... : ... .. . ... : --- 19 . ... : ... .. . ... : ... .. . F01 ...
ROW 24 : A#3 09 . ... ... : D-3 09 . ... : F#3 19 . ... : F-# 03 . ... : ... .. . ... ...
ROW 25 : ... .. . ... ... : ... .. . ... : G-2 01 . ... : ... .. . ... : ... .. . F01 ...
ROW 26 : ... .. . ... ... : ... .. . ... : ... .. . ... : ... .. . ... : ... .. . F02 ...
ROW 27 : ... .. . ... ... : ... .. . ... : ... .. . ... : ... .. . ... : ... .. . F01 ...
ROW 28 : ... .. . ... ... : ... .. . ... : ... .. . ... : ... .. . ... : ... .. . F02 ...
ROW 29 : ... .. . ... ... : ... .. . ... : ... .. . ... : ... .. . ... : ... .. . F01 ...
ROW 2A : ... .. . ... ... : ... .. . ... : G-2 05 . ... : F-# 04 . ... : ... .. . F02 ...
ROW 2B : ... .. . ... ... : ... .. . ... : ... .. . ... : ... .. . ... : ... .. . F01 ...
ROW 2C : ... .. . ... ... : ... .. . ... : ... .. . ... : ... .. . ... : ... .. . F02 ...
ROW 2D : ... .. . ... ... : ... .. . ... : ... .. . ... : ... .. . ... : ... .. . F01 ...
ROW 2E : ... .. . ... ... : ... .. . ... : ... .. . ... : ... .. . ... : ... .. . F02 ...
ROW 2F : ... .. . ... ... : ... .. . ... : --- .. . ... : ... .. . ... : ... .. . F01 ...
ROW 30 : F-3 01 . ... ... : G-3 18 . ... : F#3 19 . ... : C-# 08 . ... : ... .. . ... ...
ROW 31 : ... .. . ... ... : ... .. . ... : D-2 01 . ... : ... .. . ... : ... .. . F01 ...
ROW 32 : ... .. . ... ... : ... .. . ... : ... .. . ... : ... .. . ... : ... .. . F02 ...
ROW 33 : ... .. . ... ... : A#3 18 . ... : ... .. . ... : ... .. . ... : ... .. . F01 ...
ROW 34 : ... .. . ... ... : ... .. . ... : ... .. . ... : ... .. . ... : ... .. . F02 ...
ROW 35 : --- .. . ... ... : ... .. . ... : --- .. . ... : ... .. . ... : ... .. . F01 ...
ROW 36 : G-3 01 . ... ... : D-4 18 . ... : F#3 19 . ... : C-# 08 . ... : ... .. . ... ...
ROW 37 : ... .. . ... ... : ... .. . ... : D-2 01 . ... : ... .. . ... : ... .. . F01 ...
ROW 38 : ... .. . ... ... : ... .. . ... : ... .. . ... : ... .. . ... : ... .. . F02 ...
ROW 39 : ... .. . ... ... : G-4 18 . ... : ... .. . ... : ... .. . ... : ... .. . F01 ...
ROW 3A : ... .. . ... ... : ... .. . ... : ... .. . ... : ... .. . ... : ... .. . F02 ...
ROW 3B : ... .. . ... ... : ... .. . ... : --- .. . ... : ... .. . ... : ... .. . F01 ...

PATTERN 18
ROW 00 : ... .. . ... ... : D#3 10 . ... : F#3 19 . ... : 9-# 06 . ... : ... .. . F02 ...
ROW 01 : ... .. . ... ... : ... .. . ... : D#2 00 . ... : ... .. . ... : ... .. . F01 ...
ROW 02 : ... .. . ... ... : ... .. . ... : ... .. . ... : ... .. . ... : ... .. . F02 ...
ROW 03 : ... .. . ... ... : ... .. . ... : ... .. . ... : ... .. . ... : ... .. . F01 ...
ROW 04 : ... .. . ... ... : ... .. . ... : ... .. . ... : ... .. . ... : ... .. . F02 ...
ROW 05 : ... .. . ... ... : ... .. . ... : ... .. . ... : ... .. . ... : ... .. . F01 ...
ROW 06 : ... .. . ... ... : ... .. . ... : ... .. . ... : ... .. . ... : ... .. . F02 ...
ROW 07 : ... .. . ... ... : ... .. . ... : ... .. . ... : ... .. . ... : ... .. . F01 ...
ROW 08 : ... .. . ... ... : ... .. . ... : ... .. . ... : ... .. . ... : ... .. . F02 ...
ROW 09 : ... .. . ... ... : ... .. . ... : ... .. . ... : ... .. . ... : ... .. . F01 ...
ROW 0A : ... .. . ... ... : ... .. . ... : ... .. . ... : ... .. . ... : ... .. . F02 ...
ROW 0B : ... .. . ... ... : ... .. . ... : ... .. . ... : ... .. . ... : ... .. . F01 ...
ROW 0C : G-3 0B . ... ... : ... .. . ... : D#2 05 . ... : ... .. . ... : ... .. . F02 ...
ROW 0D : ... .. . ... ... : ... .. . ... : ... .. . ... : ... .. . ... : ... .. . F01 ...
ROW 0E : ... .. . ... ... : ... .. . ... : ... .. . ... : ... .. . ... : ... .. . F02 ...
ROW 0F : ... .. . ... ... : ... .. . ... : ... .. . ... : ... .. . ... : ... .. . F01 ...
ROW 10 : ... .. . ... ... : ... .. . ... : ... .. . ... : ... .. . ... : ... .. . F02 ...
ROW 11 : ... .. . ... ... : ... .. . ... : --- 19 . ... : ... .. . ... : ... .. . F01 ...
ROW 12 : ... .. . ... ... : ... .. . ... : F#3 19 . ... : C-# 08 . ... : ... .. . F02 ...
ROW 13 : ... .. . ... ... : ... .. . ... : D#2 01 . ... : ... .. . ... : ... .. . F01 ...
ROW 14 : ... .. . ... ... : ... .. . ... : ... .. . ... : ... .. . ... : ... .. . F02 ...
ROW 15 : ... .. . ... ... : ... .. . ... : ... .. . ... : ... .. . ... : ... .. . F01 ...
ROW 16 : ... .. . ... ... : ... .. . ... : ... .. . ... : ... .. . ... : ... .. . F02 ...
ROW 17 : --- .. . ... ... : ... .. . ... : ... .. . ... : ... .. . ... : ... .. . F01 ...
ROW 18 : G-3 01 . ... ... : ... .. . ... : --- .. . ... : ... .. . ... : ... .. . F02 ...
ROW 19 : ... .. . ... ... : ... .. . ... : ... .. . ... : ... .. . ... : ... .. . F01 ...
ROW 1A : ... .. . ... ... : ... .. . ... : ... .. . ... : ... .. . ... : ... .. . F02 ...
ROW 1B : ... .. . ... ... : ... .. . ... : ... .. . ... : ... .. . ... : ... .. . F01 ...
ROW 1C : ... .. . ... ... : ... .. . ... : ... .. . ... : ... .. . ... : ... .. . F02 ...
ROW 1D : ... .. . ... ... : ... .. . ... : ... .. . ... : ... .. . ... : ... .. . F01 ...
ROW 1E : ... .. . ... ... : ... .. . ... : F#3 19 . ... : F-# 04 . ... : ... .. . F02 ...
ROW 1F : ... .. . ... ... : ... .. . ... : A#1 01 . ... : ... .. . ... : ... .. . F01 ...
ROW 20 : ... .. . ... ... : ... .. . ... : ... .. . ... : ... .. . ... : ... .. . F02 ...
ROW 21 : ... .. . ... ... : ... .. . ... : ... .. . ... : ... .. . ... : ... .. . F01 ...
ROW 22 : ... .. . ... ... : ... .. . ... : ... .. . ... : ... .. . ... : ... .. . F02 ...
ROW 23 : --- .. . ... ... : ... .. . ... : --- .. . ... : ... .. . ... : ... .. . F01 ...
ROW 24 : G-3 0C . ... ... : G-2 0F . ... : F#3 19 . ... : F-# 03 . ... : ... .. . ... ...
ROW 25 : ... .. . ... ... : ... .. . ... : D#2 01 . ... : ... .. . ... : ... .. . F01 ...
ROW 26 : ... .. . ... ... : ... .. . ... : ... .. . ... : ... .. . ... : ... .. . F02 ...
ROW 27 : ... .. . ... ... : ... .. . ... : ... .. . ... : ... .. . ... : ... .. . F01 ...
ROW 28 : ... .. . ... ... : ... .. . ... : ... .. . ... : ... .. . ... : ... .. . F02 ...
ROW 29 : ... .. . ... ... : ... .. . ... : ... .. . ... : ... .. . ... : ... .. . F01 ...
ROW 2A : ... .. . ... ... : ... .. . ... : ... .. . ... : F-# 04 . ... : ... .. . F02 ...
ROW 2B : ... .. . ... ... : ... .. . ... : ... .. . ... : ... .. . ... : ... .. . F01 ...
ROW 2C : ... .. . ... ... : ... .. . ... : ... .. . ... : ... .. . ... : ... .. . F02 ...
ROW 2D : ... .. . ... ... : ... .. . ... : ... .. . ... : ... .. . ... : ... .. . F01 ...
ROW 2E : ... .. . ... ... : ... .. . ... : ... .. . ... : ... .. . ... : ... .. . F02 ...
ROW 2F : --- .. . ... ... : ... .. . ... : --- .. . ... : ... .. . ... : ... .. . F01 ...
ROW 30 : G-3 0D . ... ... : ... .. . ... : F#3 19 . ... : C-# 08 . ... : ... .. . F02 ...
ROW 31 : ... .. . ... ... : ... .. . ... : D#1 01 . ... : ... .. . ... : ... .. . F01 ...
ROW 32 : ... .. . ... ... : ... .. . ... : ... .. . ... : ... .. . ... : ... .. . F02 ...
ROW 33 : ... .. . ... ... : ... .. . ... : ... .. . ... : ... .. . ... : ... .. . F01 ...
ROW 34 : ... .. . ... ... : ... .. . ... : ... .. . ... : ... .. . ... : ... .. . F02 ...
ROW 35 : ... .. . ... ... : ... .. . ... : ... .. . ... : ... .. . ... : ... .. . F01 ...
ROW 36 : ... .. . ... ... : ... .. . ... : ... .. . ... : F-# 04 . ... : ... .. . F02 ...
ROW 37 : ... .. . ... ... : ... .. . ... : ... .. . ... : ... .. . ... : ... .. . F01 ...
ROW 38 : ... .. . ... ... : ... .. . ... : ... .. . ... : ... .. . ... : ... .. . F02 ...
ROW 39 : ... .. . ... ... : ... .. . ... : ... .. . ... : F-# 03 . ... : ... .. . F01 ...
ROW 3A : ... .. . ... ... : ... .. . ... : ... .. . ... : ... .. . ... : ... .. . F02 ...
ROW 3B : ... .. . ... ... : ... .. . ... : --- .. . ... : ... .. . ... : ... .. . F01 ...

PATTERN 19
ROW 00 : F-3 01 . ... ... : ... .. . ... : F#3 19 . ... : F-# 03 . ... : ... .. . F02 ...
ROW 01 : F#3 01 . ... ... : D#3 10 . ... : D#2 00 . ... : ... .. . ... : ... .. . F01 ...
ROW 02 : G-3 01 . ... ... : ... .. . ... : ... .. . ... : ... .. . ... : ... .. . F02 ...
ROW 03 : ... .. . ... ... : ... .. . ... : ... .. . ... : ... .. . ... : ... .. . F01 ...
ROW 04 : ... .. . ... ... : ... .. . ... : ... .. . ... : ... .. . ... : ... .. . F02 ...
ROW 05 : ... .. . ... ... : ... .. . ... : ... .. . ... : ... .. . ... : ... .. . F01 ...
ROW 06 : ... .. . ... ... : ... .. . ... : ... .. . ... : F-# 04 . ... : ... .. . F02 ...
ROW 07 : ... .. . ... ... : ... .. . ... : ... .. . ... : ... .. . ... : ... .. . F01 ...
ROW 08 : ... .. . ... ... : ... .. . ... : ... .. . ... : ... .. . ... : ... .. . F02 ...
ROW 09 : ... .. . ... ... : ... .. . ... : ... .. . ... : ... .. . ... : ... .. . F01 ...
ROW 0A : ... .. . ... ... : ... .. . ... : ... .. . ... : ... .. . ... : ... .. . F02 ...
ROW 0B : ... .. . ... ... : ... .. . ... : ... .. . ... : ... .. . ... : ... .. . F01 ...
ROW 0C : ... .. . ... ... : ... .. . ... : D#2 05 . ... : F-# 04 . ... : ... .. . F02 ...
ROW 0D : ... .. . ... ... : ... .. . ... : ... .. . ... : ... .. . ... : ... .. . F01 ...
ROW 0E : ... .. . ... ... : ... .. . ... : ... .. . ... : ... .. . ... : ... .. . F02 ...
ROW 0F : ... .. . ... ... : ... .. . ... : ... .. . ... : ... .. . ... : ... .. . F01 ...
ROW 10 : ... .. . ... ... : ... .. . ... : ... .. . ... : ... .. . ... : ... .. . F02 ...
ROW 11 : --- .. . ... ... : ... .. . ... : --- .. . ... : ... .. . ... : ... .. . F01 ...
ROW 12 : A-3 01 . ... ... : ... .. . ... : F#3 19 . ... : C-# 08 . ... : ... .. . F02 ...
ROW 13 : ... .. . ... ... : ... .. . ... : D#2 01 . ... : ... .. . ... : ... .. . F01 ...
ROW 14 : ... .. . ... ... : ... .. . ... : ... .. . ... : ... .. . ... : ... .. . F02 ...
ROW 15 : ... .. . ... ... : ... .. . ... : ... .. . ... : ... .. . ... : ... .. . F01 ...
ROW 16 : ... .. . ... ... : ... .. . ... : ... .. . ... : ... .. . ... : ... .. . F02 ...
ROW 17 : ... .. . ... ... : ... .. . ... : ... .. . ... : ... .. . ... : ... .. . F01 ...
ROW 18 : ... .. . ... ... : ... .. . ... : --- .. . ... : F-# 04 . ... : ... .. . F02 ...
ROW 19 : ... .. . ... ... : ... .. . ... : ... .. . ... : ... .. . ... : ... .. . F01 ...
ROW 1A : ... .. . ... ... : ... .. . ... : ... .. . ... : ... .. . ... : ... .. . F02 ...
ROW 1B : ... .. . ... ... : ... .. . ... : ... .. . ... : ... .. . ... : ... .. . F01 ...
ROW 1C : A#3 01 . ... ... : ... .. . ... : ... .. . ... : ... .. . ... : ... .. . F02 ...
ROW 1D : ... .. . ... ... : ... .. . ... : ... .. . ... : ... .. . ... : ... .. . F01 ...
ROW 1E : A-3 01 . ... ... : ... .. . ... : F#3 19 . ... : F-# 04 . ... : ... .. . F02 ...
ROW 1F : ... .. . ... ... : ... .. . ... : A#1 01 . ... : ... .. . ... : ... .. . F01 ...
ROW 20 : G-3 01 . ... ... : ... .. . ... : ... .. . ... : ... .. . ... : ... .. . F02 ...
ROW 21 : ... .. . ... ... : ... .. . ... : ... .. . ... : ... .. . ... : ... .. . F01 ...
ROW 22 : A-3 01 . ... ... : ... .. . ... : ... .. . ... : ... .. . ... : ... .. . F02 ...
ROW 23 : ... .. . ... ... : ... .. . ... : --- .. . ... : ... .. . ... : ... .. . F01 ...
ROW 24 : A#3 01 . ... ... : D#3 12 . ... : F#3 19 . ... : F-# 03 . ... : ... .. . ... ...
ROW 25 : ... .. . ... ... : ... .. . ... : D#2 01 . ... : ... .. . ... : ... .. . F01 ...
ROW 26 : ... .. . ... ... : ... .. . ... : ... .. . ... : ... .. . ... : ... .. . F02 ...
ROW 27 : ... .. . ... ... : ... .. . ... : ... .. . ... : ... .. . ... : ... .. . F01 ...
ROW 28 : ... .. . ... ... : D-3 12 . ... : ... .. . ... : ... .. . ... : ... .. . F02 ...
ROW 29 : ... .. . ... ... : ... .. . ... : ... .. . ... : ... .. . ... : ... .. . F01 ...
ROW 2A : ... .. . ... ... : ... .. . ... : ... .. . ... : F-# 04 . ... : ... .. . F02 ...
ROW 2B : ... .. . ... ... : ... .. . ... : ... .. . ... : ... .. . ... : ... .. . F01 ...
ROW 2C : ... .. . ... ... : D#3 12 . ... : ... .. . ... : ... .. . ... : ... .. . F02 ...
ROW 2D : ... .. . ... ... : ... .. . ... : ... .. . ... : ... .. . ... : ... .. . F01 ...
ROW 2E : ... .. . ... ... : ... .. . ... : ... .. . ... : ... .. . ... : ... .. . F02 ...
ROW 2F : --- .. . ... ... : ... .. . ... : --- .. . ... : ... .. . ... : ... .. . F01 ...
ROW 30 : C-4 01 . ... ... : F-3 12 . ... : F#3 19 . ... : C-# 08 . ... : ... .. . ... ...
ROW 31 : ... .. . ... ... : ... .. . ... : F-1 01 . ... : ... .. . ... : ... .. . F01 ...
ROW 32 : ... .. . ... ... : ... .. . ... : ... .. . ... : ... .. . ... : ... .. . F02 ...
ROW 33 : ... .. . ... ... : ... .. . ... : ... .. . ... : ... .. . ... : ... .. . F01 ...
ROW 34 : ... .. . ... ... : D#3 12 . ... : F#3 19 . ... : C-# 08 . ... : ... .. . F02 ...
ROW 35 : ... .. . ... ... : ... .. . ... : F-1 01 . ... : ... .. . ... : ... .. . F01 ...
ROW 36 : ... .. . ... ... : ... .. . ... : ... .. . ... : ... .. . ... : ... .. . F02 ...
ROW 37 : ... .. . ... ... : ... .. . ... : ... .. . ... : ... .. . ... : ... .. . F01 ...
ROW 38 : ... .. . ... ... : F-3 12 . ... : F#3 19 . ... : C-# 08 . ... : ... .. . F02 ...
ROW 39 : ... .. . ... ... : ... .. . ... : F-1 01 . ... : ... .. . ... : ... .. . F01 ...
ROW 3A : ... .. . ... ... : ... .. . ... : ... .. . ... : ... .. . ... : ... .. . F02 ...
ROW 3B : --- .. . ... ... : ... .. . ... : ... .. . ... : ... .. . ... : ... .. . F01 ...

PATTERN 1A
ROW 00 : C-4 01 . ... ... : ... .. . ... : F#3 19 . ... : 9-# 06 . ... : ... .. . F02 ...
ROW 01 : C#4 01 . ... ... : A#2 13 . ... : A#2 01 . ... : ... .. . ... : ... .. . F01 ...
ROW 02 : D-4 01 . ... ... : ... .. . ... : ... .. . ... : ... .. . ... : ... .. . F02 ...
ROW 03 : ... .. . ... ... : ... .. . ... : ... .. . ... : ... .. . ... : ... .. . F01 ...
ROW 04 : ... .. . ... ... : ... .. . ... : ... .. . ... : ... .. . ... : ... .. . F02 ...
ROW 05 : ... .. . ... ... : ... .. . ... : ... .. . ... : ... .. . ... : ... .. . F01 ...
ROW 06 : ... .. . ... ... : ... .. . ... : ... .. . ... : ... .. . ... : ... .. . F02 ...
ROW 07 : ... .. . ... ... : ... .. . ... : ... .. . ... : ... .. . ... : ... .. . F01 ...
ROW 08 : ... .. . ... ... : ... .. . ... : ... .. . ... : ... .. . ... : ... .. . F02 ...
ROW 09 : ... .. . ... ... : ... .. . ... : ... .. . ... : ... .. . ... : ... .. . F01 ...
ROW 0A : ... .. . ... ... : ... .. . ... : ... .. . ... : ... .. . ... : ... .. . F02 ...
ROW 0B : ... .. . ... ... : ... .. . ... : ... .. . ... : ... .. . ... : ... .. . F01 ...
ROW 0C : ... .. . ... ... : ... .. . ... : A#2 05 . ... : ... .. . ... : ... .. . F02 ...
ROW 0D : ... .. . ... ... : ... .. . ... : ... .. . ... : ... .. . ... : ... .. . F01 ...
ROW 0E : ... .. . ... ... : ... .. . ... : ... .. . ... : ... .. . ... : ... .. . F02 ...
ROW 0F : ... .. . ... ... : ... .. . ... : ... .. . ... : ... .. . ... : ... .. . F01 ...
ROW 10 : ... .. . ... ... : ... .. . ... : ... .. . ... : ... .. . ... : ... .. . F02 ...
ROW 11 : ... .. . ... ... : ... .. . ... : --- .. . ... : ... .. . ... : ... .. . F01 ...
ROW 12 : D-4 0B . ... ... : A#2 13 . ... : F#3 19 . ... : C-# 08 . ... : ... .. . ... ...
ROW 13 : ... .. . ... ... : ... .. . ... : A#2 01 . ... : ... .. . ... : ... .. . F01 ...
ROW 14 : ... .. . ... ... : ... .. . ... : ... .. . ... : ... .. . ... : ... .. . F02 ...
ROW 15 : ... .. . ... ... : ... .. . ... : ... .. . ... : ... .. . ... : ... .. . F01 ...
ROW 16 : ... .. . ... ... : ... .. . ... : ... .. . ... : ... .. . ... : ... .. . F02 ...
ROW 17 : ... .. . ... ... : ... .. . ... : ... .. . ... : ... .. . ... : ... .. . F01 ...
ROW 18 : ... .. . ... ... : ... .. . ... : --- .. . ... : ... .. . ... : ... .. . F02 ...
ROW 19 : ... .. . ... ... : ... .. . ... : ... .. . ... : ... .. . ... : ... .. . F01 ...
ROW 1A : ... .. . ... ... : ... .. . ... : ... .. . ... : ... .. . ... : ... .. . F02 ...
ROW 1B : ... .. . ... ... : ... .. . ... : ... .. . ... : ... .. . ... : ... .. . F01 ...
ROW 1C : ... .. . ... ... : ... .. . ... : ... .. . ... : ... .. . ... : ... .. . F02 ...
ROW 1D : ... .. . ... ... : ... .. . ... : ... .. . ... : ... .. . ... : ... .. . F01 ...
ROW 1E : ... .. . ... ... : ... .. . ... : F#3 19 . ... : F-# 04 . ... : ... .. . F02 ...
ROW 1F : ... .. . ... ... : ... .. . ... : F-2 01 . ... : ... .. . ... : ... .. . F01 ...
ROW 20 : ... .. . ... ... : ... .. . ... : ... .. . ... : ... .. . ... : ... .. . F02 ...
ROW 21 : ... .. . ... ... : ... .. . ... : ... .. . ... : ... .. . ... : ... .. . F01 ...
ROW 22 : ... .. . ... ... : ... .. . ... : ... .. . ... : ... .. . ... : ... .. . F02 ...
ROW 23 : --- .. . ... ... : ... .. . ... : --- .. . ... : ... .. . ... : ... .. . F01 ...
ROW 24 : F-3 01 . ... ... : A#2 10 . ... : F#3 19 . ... : F-# 03 . ... : ... .. . ... ...
ROW 25 : ... .. . ... ... : ... .. . ... : A#2 01 . ... : ... .. . ... : ... .. . F01 ...
ROW 26 : ... .. . ... ... : ... .. . ... : ... .. . ... : ... .. . ... : ... .. . F02 ...
ROW 27 : ... .. . ... ... : ... .. . ... : ... .. . ... : ... .. . ... : ... .. . F01 ...
ROW 28 : ... .. . ... ... : ... .. . ... : ... .. . ... : ... .. . ... : ... .. . F02 ...
ROW 29 : ... .. . ... ... : ... .. . ... : ... .. . ... : ... .. . ... : ... .. . F01 ...
ROW 2A : F-3 05 . ... ... : ... .. . ... : ... .. . ... : F-# 04 . ... : ... .. . F02 ...
ROW 2B : ... .. . ... ... : ... .. . ... : ... .. . ... : ... .. . ... : ... .. . F01 ...
ROW 2C : ... .. . ... ... : ... .. . ... : ... .. . ... : ... .. . ... : ... .. . F02 ...
ROW 2D : ... .. . ... ... : ... .. . ... : ... .. . ... : ... .. . ... : ... .. . F01 ...
ROW 2E : ... .. . ... ... : ... .. . ... : ... .. . ... : ... .. . ... : ... .. . F02 ...
ROW 2F : --- .. . ... ... : ... .. . ... : --- .. . ... : ... .. . ... : ... .. . F01 ...
ROW 30 : D-4 01 . ... ... : ... .. . ... : F#3 19 . ... : C-# 08 . ... : ... .. . F02 ...
ROW 31 : ... .. . ... ... : ... .. . ... : A#1 01 . ... : ... .. . ... : ... .. . F01 ...
ROW 32 : ... .. . ... ... : ... .. . ... : ... .. . ... : ... .. . ... : ... .. . F02 ...
ROW 33 : ... .. . ... ... : ... .. . ... : ... .. . ... : ... .. . ... : ... .. . F01 ...
ROW 34 : D#4 01 . ... ... : ... .. . ... : ... .. . ... : ... .. . ... : ... .. . F02 ...
ROW 35 : ... .. . ... ... : ... .. . ... : ... .. . ... : ... .. . ... : ... .. . F01 ...
ROW 36 : ... .. . ... ... : ... .. . ... : ... .. . ... : F-# 04 . ... : ... .. . F02 ...
ROW 37 : ... .. . ... ... : ... .. . ... : ... .. . ... : ... .. . ... : ... .. . F01 ...
ROW 38 : D-4 01 . ... ... : ... .. . ... : ... .. . ... : ... .. . ... : ... .. . F02 ...
ROW 39 : ... .. . ... ... : ... .. . ... : ... .. . ... : F-# 03 . ... : ... .. . F01 ...
ROW 3A : ... .. . ... ... : ... .. . ... : ... .. . ... : ... .. . ... : ... .. . F02 ...
ROW 3B : --- .. . ... ... : ... .. . ... : --- .. . ... : ... .. . ... : ... .. . F01 ...

PATTERN 1B
ROW 00 : C-4 01 . ... ... : ... .. . ... : F#3 19 . ... : 8-# 06 . ... : ... .. . F02 ...
ROW 01 : ... .. . ... ... : F-4 13 . ... : F-2 01 . ... : ... .. . ... : ... .. . F01 ...
ROW 02 : ... .. . ... ... : ... .. . ... : ... .. . ... : ... .. . ... : ... .. . F02 ...
ROW 03 : ... .. . ... ... : ... .. . ... : ... .. . ... : ... .. . ... : ... .. . F01 ...
ROW 04 : ... .. . ... ... : ... .. . ... : ... .. . ... : ... .. . ... : ... .. . F02 ...
ROW 05 : ... .. . ... ... : ... .. . ... : ... .. . ... : ... .. . ... : ... .. . F01 ...
ROW 06 : ... .. . ... ... : ... .. . ... : ... .. . ... : ... .. . ... : ... .. . F02 ...
ROW 07 : ... .. . ... ... : ... .. . ... : ... .. . ... : ... .. . ... : ... .. . F01 ...
ROW 08 : ... .. . ... ... : ... .. . ... : ... .. . ... : ... .. . ... : ... .. . F02 ...
ROW 09 : ... .. . ... ... : ... .. . ... : ... .. . ... : ... .. . ... : ... .. . F01 ...
ROW 0A : ... .. . ... ... : ... .. . ... : ... .. . ... : ... .. . ... : ... .. . F02 ...
ROW 0B : ... .. . ... ... : ... .. . ... : ... .. . ... : ... .. . ... : ... .. . F01 ...
ROW 0C : ... .. . ... ... : ... .. . ... : F-2 05 . ... : ... .. . ... : ... .. . F02 ...
ROW 0D : ... .. . ... ... : ... .. . ... : ... .. . ... : ... .. . ... : ... .. . F01 ...
ROW 0E : ... .. . ... ... : ... .. . ... : ... .. . ... : ... .. . ... : ... .. . F02 ...
ROW 0F : ... .. . ... ... : ... .. . ... : ... .. . ... : ... .. . ... : ... .. . F01 ...
ROW 10 : ... .. . ... ... : ... .. . ... : ... .. . ... : ... .. . ... : ... .. . F02 ...
ROW 11 : ... .. . ... ... : ... .. . ... : --- .. . ... : ... .. . ... : ... .. . F01 ...
ROW 12 : C-4 0B . ... ... : F-4 13 . ... : F#3 19 . ... : C-# 08 . ... : ... .. . ... ...
ROW 13 : ... .. . ... ... : ... .. . ... : F-2 01 . ... : ... .. . ... : ... .. . F01 ...
ROW 14 : ... .. . ... ... : ... .. . ... : ... .. . ... : ... .. . ... : ... .. . F02 ...
ROW 15 : ... .. . ... ... : ... .. . ... : ... .. . ... : ... .. . ... : ... .. . F01 ...
ROW 16 : ... .. . ... ... : ... .. . ... : ... .. . ... : ... .. . ... : ... .. . F02 ...
ROW 17 : ... .. . ... ... : ... .. . ... : ... .. . ... : ... .. . ... : ... .. . F01 ...
ROW 18 : ... .. . ... ... : ... .. . ... : --- .. . ... : ... .. . ... : ... .. . F02 ...
ROW 19 : ... .. . ... ... : ... .. . ... : ... .. . ... : ... .. . ... : ... .. . F01 ...
ROW 1A : ... .. . ... ... : ... .. . ... : ... .. . ... : ... .. . ... : ... .. . F02 ...
ROW 1B : ... .. . ... ... : ... .. . ... : ... .. . ... : ... .. . ... : ... .. . F01 ...
ROW 1C : ... .. . ... ... : ... .. . ... : ... .. . ... : ... .. . ... : ... .. . F02 ...
ROW 1D : ... .. . ... ... : ... .. . ... : ... .. . ... : ... .. . ... : ... .. . F01 ...
ROW 1E : ... .. . ... ... : ... .. . ... : F#3 19 . ... : F-# 04 . ... : ... .. . F02 ...
ROW 1F : ... .. . ... ... : ... .. . ... : C-2 01 . ... : ... .. . ... : ... .. . F01 ...
ROW 20 : ... .. . ... ... : ... .. . ... : ... .. . ... : ... .. . ... : ... .. . F02 ...
ROW 21 : ... .. . ... ... : ... .. . ... : ... .. . ... : ... .. . ... : ... .. . F01 ...
ROW 22 : ... .. . ... ... : ... .. . ... : ... .. . ... : ... .. . ... : ... .. . F02 ...
ROW 23 : --- .. . ... ... : ... .. . ... : --- .. . ... : ... .. . ... : ... .. . F01 ...
ROW 24 : A#3 01 . ... ... : F-3 10 . ... : F#3 19 . ... : F-# 03 . ... : ... .. . ... ...
ROW 25 : ... .. . ... ... : ... .. . ... : F-2 01 . ... : ... .. . ... : ... .. . F01 ...
ROW 26 : ... .. . ... ... : ... .. . ... : ... .. . ... : ... .. . ... : ... .. . F02 ...
ROW 27 : ... .. . ... ... : ... .. . ... : ... .. . ... : ... .. . ... : ... .. . F01 ...
ROW 28 : ... .. . ... ... : ... .. . ... : ... .. . ... : ... .. . ... : ... .. . F02 ...
ROW 29 : ... .. . ... ... : ... .. . ... : ... .. . ... : ... .. . ... : ... .. . F01 ...
ROW 2A : ... .. . ... ... : ... .. . ... : ... .. . ... : F-# 04 . ... : ... .. . F02 ...
ROW 2B : ... .. . ... ... : ... .. . ... : ... .. . ... : ... .. . ... : ... .. . F01 ...
ROW 2C : ... .. . ... ... : ... .. . ... : ... .. . ... : ... .. . ... : ... .. . F02 ...
ROW 2D : ... .. . ... ... : ... .. . ... : ... .. . ... : ... .. . ... : ... .. . F01 ...
ROW 2E : ... .. . ... ... : ... .. . ... : ... .. . ... : ... .. . ... : ... .. . F02 ...
ROW 2F : ... .. . ... ... : ... .. . ... : --- .. . ... : ... .. . ... : ... .. . F01 ...
ROW 30 : A#3 05 . ... ... : ... .. . ... : F#3 19 . ... : C-# 08 . ... : ... .. . F02 ...
ROW 31 : ... .. . ... ... : ... .. . ... : F-1 01 . ... : ... .. . ... : ... .. . F01 ...
ROW 32 : ... .. . ... ... : ... .. . ... : ... .. . ... : ... .. . ... : ... .. . F02 ...
ROW 33 : ... .. . ... ... : ... .. . ... : ... .. . ... : ... .. . ... : ... .. . F01 ...
ROW 34 : ... .. . ... ... : ... .. . ... : ... .. . ... : ... .. . ... : ... .. . F02 ...
ROW 35 : --- .. . ... ... : ... .. . ... : ... .. . ... : ... .. . ... : ... .. . F01 ...
ROW 36 : A-3 01 . ... ... : ... .. . ... : ... .. . ... : F-# 04 . ... : ... .. . F02 ...
ROW 37 : ... .. . ... ... : ... .. . ... : ... .. . ... : ... .. . ... : ... .. . F01 ...
ROW 38 : ... .. . ... ... : ... .. . ... : ... .. . ... : ... .. . ... : ... .. . F02 ...
ROW 39 : ... .. . ... ... : ... .. . ... : ... .. . ... : F-# 03 . ... : ... .. . F01 ...
ROW 3A : ... .. . ... ... : ... .. . ... : ... .. . ... : ... .. . ... : ... .. . F02 ...
ROW 3B : --- .. . ... ... : ... .. . ... : --- .. . ... : ... .. . ... : ... .. . F01 ...

PATTERN 1C
ROW 00 : A#3 01 . ... ... : ... .. . ... : F#3 19 . ... : 9-# 11 . ... : ... .. . F02 ...
ROW 01 : ... .. . ... ... : C-4 0F . ... : C-2 01 . ... : ... .. . ... : ... .. . F01 ...
ROW 02 : ... .. . ... ... : ... .. . ... : ... .. . ... : ... .. . ... : ... .. . F02 ...
ROW 03 : ... .. . ... ... : ... .. . ... : ... .. . ... : ... .. . ... : ... .. . F01 ...
ROW 04 : ... .. . ... ... : ... .. . ... : ... .. . ... : ... .. . ... : ... .. . F02 ...
ROW 05 : ... .. . ... ... : ... .. . ... : ... .. . ... : ... .. . ... : ... .. . F01 ...
ROW 06 : A-3 01 . ... ... : ... .. . ... : ... .. . ... : ... .. . ... : ... .. . F02 ...
ROW 07 : ... .. . ... ... : ... .. . ... : ... .. . ... : ... .. . ... : ... .. . F01 ...
ROW 08 : ... .. . ... ... : ... .. . ... : ... .. . ... : ... .. . ... : ... .. . F02 ...
ROW 09 : ... .. . ... ... : ... .. . ... : ... .. . ... : ... .. . ... : ... .. . F01 ...
ROW 0A : ... .. . ... ... : ... .. . ... : ... .. . ... : ... .. . ... : ... .. . F02 ...
ROW 0B : --- .. . ... ... : ... .. . ... : ... .. . ... : ... .. . ... : ... .. . F01 ...
ROW 0C : G-3 01 . ... ... : ... .. . ... : C-2 05 . ... : ... .. . ... : ... .. . F02 ...
ROW 0D : ... .. . ... ... : ... .. . ... : ... .. . ... : ... .. . ... : ... .. . F01 ...
ROW 0E : ... .. . ... ... : ... .. . ... : ... .. . ... : ... .. . ... : ... .. . F02 ...
ROW 0F : ... .. . ... ... : ... .. . ... : ... .. . ... : ... .. . ... : ... .. . F01 ...
ROW 10 : ... .. . ... ... : ... .. . ... : ... .. . ... : --- .. . ... : ... .. . F02 ...
ROW 11 : ... .. . ... ... : ... .. . ... : --- .. . ... : ... .. . ... : ... .. . F01 ...
ROW 12 : ... .. . ... ... : ... .. . ... : F#3 19 . ... : C-# 08 . ... : ... .. . F02 ...
ROW 13 : ... .. . ... ... : ... .. . ... : C-2 01 . ... : ... .. . ... : ... .. . F01 ...
ROW 14 : ... .. . ... ... : ... .. . ... : ... .. . ... : ... .. . ... : ... .. . F02 ...
ROW 15 : ... .. . ... ... : ... .. . ... : ... .. . ... : ... .. . ... : ... .. . F01 ...
ROW 16 : ... .. . ... ... : ... .. . ... : ... .. . ... : ... .. . ... : ... .. . F02 ...
ROW 17 : ... .. . ... ... : ... .. . ... : ... .. . ... : ... .. . ... : ... .. . F01 ...
ROW 18 : ... .. . ... ... : ... .. . ... : --- .. . ... : ... .. . ... : ... .. . F02 ...
ROW 19 : ... .. . ... ... : ... .. . ... : ... .. . ... : ... .. . ... : ... .. . F01 ...
ROW 1A : ... .. . ... ... : ... .. . ... : ... .. . ... : ... .. . ... : ... .. . F02 ...
ROW 1B : ... .. . ... ... : ... .. . ... : ... .. . ... : ... .. . ... : ... .. . F01 ...
ROW 1C : ... .. . ... ... : ... .. . ... : ... .. . ... : ... .. . ... : ... .. . F02 ...
ROW 1D : ... .. . ... ... : ... .. . ... : ... .. . ... : ... .. . ... : ... .. . F01 ...
ROW 1E : G-3 0B . ... ... : ... .. . ... : F#3 19 . ... : F-# 04 . ... : ... .. . F02 ...
ROW 1F : ... .. . ... ... : ... .. . ... : G-1 01 . ... : ... .. . ... : ... .. . F01 ...
ROW 20 : ... .. . ... ... : ... .. . ... : ... .. . ... : ... .. . ... : ... .. . F02 ...
ROW 21 : ... .. . ... ... : ... .. . ... : ... .. . ... : ... .. . ... : ... .. . F01 ...
ROW 22 : ... .. . ... ... : ... .. . ... : ... .. . ... : ... .. . ... : ... .. . F02 ...
ROW 23 : ... .. . ... ... : ... .. . ... : --- .. . ... : ... .. . ... : ... .. . F01 ...
ROW 24 : ... .. . ... ... : C-5 12 . ... : F#3 19 . ... : F-# 03 . ... : ... .. . F02 ...
ROW 25 : ... .. . ... ... : ... .. . ... : C-2 01 . ... : ... .. . ... : ... .. . F01 ...
ROW 26 : ... .. . ... ... : ... .. . ... : ... .. . ... : ... .. . ... : ... .. . F02 ...
ROW 27 : ... .. . ... ... : ... .. . ... : ... .. . ... : ... .. . ... : ... .. . F01 ...
ROW 28 : ... .. . ... ... : G-4 12 . ... : ... .. . ... : ... .. . ... : ... .. . F02 ...
ROW 29 : ... .. . ... ... : ... .. . ... : ... .. . ... : ... .. . ... : ... .. . F01 ...
ROW 2A : ... .. . ... ... : ... .. . ... : ... .. . ... : F-# 04 . ... : ... .. . F02 ...
ROW 2B : ... .. . ... ... : ... .. . ... : ... .. . ... : ... .. . ... : ... .. . F01 ...
ROW 2C : ... .. . ... ... : D#4 12 . ... : ... .. . ... : ... .. . ... : ... .. . F02 ...
ROW 2D : ... .. . ... ... : ... .. . ... : ... .. . ... : ... .. . ... : ... .. . F01 ...
ROW 2E : ... .. . ... ... : ... .. . ... : ... .. . ... : ... .. . ... : ... .. . F02 ...
ROW 2F : ... .. . ... ... : ... .. . ... : --- .. . ... : ... .. . ... : ... .. . F01 ...
ROW 30 : ... .. . ... ... : G-4 12 . ... : F#3 19 . ... : C-# 08 . ... : ... .. . F02 ...
ROW 31 : ... .. . ... ... : ... .. . ... : C-1 01 . ... : ... .. . ... : ... .. . F01 ...
ROW 32 : ... .. . ... ... : ... .. . ... : ... .. . ... : ... .. . ... : ... .. . F02 ...
ROW 33 : ... .. . ... ... : ... .. . ... : ... .. . ... : ... .. . ... : ... .. . F01 ...
ROW 34 : ... .. . ... ... : D#4 12 . ... : ... .. . ... : ... .. . ... : ... .. . F02 ...
ROW 35 : ... .. . ... ... : ... .. . ... : ... .. . ... : ... .. . ... : ... .. . F01 ...
ROW 36 : ... .. . ... ... : ... .. . ... : ... .. . ... : F-# 04 . ... : ... .. . F02 ...
ROW 37 : ... .. . ... ... : ... .. . ... : ... .. . ... : ... .. . ... : ... .. . F01 ...
ROW 38 : ... .. . ... ... : C-4 12 . ... : ... .. . ... : ... .. . ... : ... .. . F02 ...
ROW 39 : ... .. . ... ... : ... .. . ... : ... .. . ... : F-# 03 . ... : ... .. . F01 ...
ROW 3A : ... .. . ... ... : ... .. . ... : ... .. . ... : ... .. . ... : ... .. . F02 ...
ROW 3B : ... .. . ... ... : ... .. . ... : --- .. . ... : ... .. . ... : ... .. . F01 ...

PATTERN 1D
ROW 00 : G-3 02 . ... ... : ... .. . ... : F#3 19 . ... : 9-# 11 . ... : ... .. . F02 ...
ROW 01 : ... .. . ... ... : C-3 13 . ... : C-2 01 . ... : ... .. . ... : ... .. . F01 ...
ROW 02 : ... .. . ... ... : ... .. . ... : ... .. . ... : ... .. . ... : ... .. . F02 ...
ROW 03 : ... .. . ... ... : ... .. . ... : ... .. . ... : ... .. . ... : ... .. . F01 ...
ROW 04 : ... .. . ... ... : ... .. . ... : ... .. . ... : ... .. . ... : ... .. . F02 ...
ROW 05 : ... .. . ... ... : ... .. . ... : ... .. . ... : ... .. . ... : ... .. . F01 ...
ROW 06 : ... .. . ... ... : ... .. . ... : ... .. . ... : ... .. . ... : ... .. . F02 ...
ROW 07 : ... .. . ... ... : ... .. . ... : ... .. . ... : ... .. . ... : ... .. . F01 ...
ROW 08 : ... .. . ... ... : ... .. . ... : ... .. . ... : ... .. . ... : ... .. . F02 ...
ROW 09 : ... .. . ... ... : ... .. . ... : ... .. . ... : ... .. . ... : ... .. . F01 ...
ROW 0A : ... .. . ... ... : ... .. . ... : ... .. . ... : ... .. . ... : ... .. . F02 ...
ROW 0B : ... .. . ... ... : ... .. . ... : ... .. . ... : ... .. . ... : ... .. . F01 ...
ROW 0C : ... .. . ... ... : ... .. . ... : C-2 05 . ... : ... .. . ... : ... .. . F02 ...
ROW 0D : ... .. . ... ... : ... .. . ... : ... .. . ... : ... .. . ... : ... .. . F01 ...
ROW 0E : ... .. . ... ... : ... .. . ... : ... .. . ... : ... .. . ... : ... .. . F02 ...
ROW 0F : ... .. . ... ... : ... .. . ... : ... .. . ... : ... .. . ... : ... .. . F01 ...
ROW 10 : ... .. . ... ... : ... .. . ... : ... .. . ... : --- .. . ... : ... .. . F02 ...
ROW 11 : ... .. . ... ... : ... .. . ... : --- .. . ... : ... .. . ... : ... .. . F01 ...
ROW 12 : ... .. . ... ... : C-3 13 . ... : F#3 19 . ... : C-# 08 . ... : ... .. . F02 ...
ROW 13 : ... .. . ... ... : ... .. . ... : C-2 01 . ... : ... .. . ... : ... .. . F01 ...
ROW 14 : ... .. . ... ... : ... .. . ... : ... .. . ... : ... .. . ... : ... .. . F02 ...
ROW 15 : ... .. . ... ... : ... .. . ... : ... .. . ... : ... .. . ... : ... .. . F01 ...
ROW 16 : ... .. . ... ... : ... .. . ... : ... .. . ... : ... .. . ... : ... .. . F02 ...
ROW 17 : ... .. . ... ... : ... .. . ... : ... .. . ... : ... .. . ... : ... .. . F01 ...
ROW 18 : ... .. . ... ... : ... .. . ... : --- .. . ... : F-# 04 . ... : ... .. . F02 ...
ROW 19 : ... .. . ... ... : ... .. . ... : ... .. . ... : ... .. . ... : ... .. . F01 ...
ROW 1A : ... .. . ... ... : ... .. . ... : ... .. . ... : ... .. . ... : ... .. . F02 ...
ROW 1B : ... .. . ... ... : ... .. . ... : ... .. . ... : ... .. . ... : ... .. . F01 ...
ROW 1C : ... .. . ... ... : ... .. . ... : ... .. . ... : ... .. . ... : ... .. . F02 ...
ROW 1D : ... .. . ... ... : ... .. . ... : ... .. . ... : ... .. . ... : ... .. . F01 ...
ROW 1E : ... .. . ... ... : ... .. . ... : F#3 19 . ... : F-# 04 . ... : ... .. . F02 ...
ROW 1F : ... .. . ... ... : ... .. . ... : G-1 01 . ... : ... .. . ... : ... .. . F01 ...
ROW 20 : ... .. . ... ... : ... .. . ... : ... .. . ... : ... .. . ... : ... .. . F02 ...
ROW 21 : ... .. . ... ... : ... .. . ... : ... .. . ... : ... .. . ... : ... .. . F01 ...
ROW 22 : ... .. . ... ... : ... .. . ... : ... .. . ... : ... .. . ... : ... .. . F02 ...
ROW 23 : ... .. . ... ... : ... .. . ... : --- .. . ... : ... .. . ... : ... .. . F01 ...
ROW 24 : ... .. . ... ... : C-3 0F . ... : F#3 19 . ... : F-# 03 . ... : ... .. . F02 ...
ROW 25 : ... .. . ... ... : ... .. . ... : C-2 01 . ... : ... .. . ... : ... .. . F01 ...
ROW 26 : ... .. . ... ... : ... .. . ... : ... .. . ... : ... .. . ... : ... .. . F02 ...
ROW 27 : ... .. . ... ... : ... .. . ... : ... .. . ... : ... .. . ... : ... .. . F01 ...
ROW 28 : ... .. . ... ... : ... .. . ... : ... .. . ... : ... .. . ... : ... .. . F02 ...
ROW 29 : ... .. . ... ... : ... .. . ... : ... .. . ... : ... .. . ... : ... .. . F01 ...
ROW 2A : ... .. . ... ... : ... .. . ... : ... .. . ... : F-# 04 . ... : ... .. . F02 ...
ROW 2B : ... .. . ... ... : ... .. . ... : ... .. . ... : ... .. . ... : ... .. . F01 ...
ROW 2C : ... .. . ... ... : ... .. . ... : ... .. . ... : ... .. . ... : ... .. . F02 ...
ROW 2D : ... .. . ... ... : ... .. . ... : ... .. . ... : ... .. . ... : ... .. . F01 ...
ROW 2E : ... .. . ... ... : ... .. . ... : ... .. . ... : ... .. . ... : ... .. . F02 ...
ROW 2F : --- .. . ... ... : ... .. . ... : --- .. . ... : ... .. . ... : ... .. . F01 ...
ROW 30 : F-3 01 . ... ... : ... .. . ... : F#3 19 . ... : C-# 08 . ... : ... .. . F02 ...
ROW 31 : ... .. . ... ... : ... .. . ... : C-2 01 . ... : ... .. . ... : ... .. . F01 ...
ROW 32 : ... .. . ... ... : ... .. . ... : ... .. . ... : ... .. . ... : ... .. . F02 ...
ROW 33 : ... .. . ... ... : ... .. . ... : ... .. . ... : ... .. . ... : ... .. . F01 ...
ROW 34 : ... .. . ... ... : ... .. . ... : ... .. . ... : ... .. . ... : ... .. . F02 ...
ROW 35 : --- .. . ... ... : ... .. . ... : --- .. . ... : ... .. . ... : ... .. . F01 ...
ROW 36 : G-3 01 . ... ... : ... .. . ... : F#3 19 . ... : F-# 04 . ... : ... .. . F02 ...
ROW 37 : ... .. . ... ... : ... .. . ... : D-2 01 . ... : ... .. . ... : ... .. . F01 ...
ROW 38 : ... .. . ... ... : ... .. . ... : ... .. . ... : ... .. . ... : ... .. . F02 ...
ROW 39 : ... .. . ... ... : ... .. . ... : ... .. . ... : F-# 03 . ... : ... .. . F01 ...
ROW 3A : ... .. . ... ... : ... .. . ... : ... .. . ... : ... .. . ... : ... .. . F02 ...
ROW 3B : ... .. . ... ... : ... .. . ... : --- .. . ... : ... .. . ... : ... .. . F01 ...

PATTERN 1E
ROW 00 : G-3 01 . ... ... : ... .. . ... : F#3 19 . ... : F-# 03 . ... : ... .. . F02 ...
ROW 01 : ... .. . ... ... : D#3 10 . ... : D#2 01 . ... : ... .. . ... : ... .. . F01 ...
ROW 02 : ... .. . ... ... : ... .. . ... : ... .. . ... : ... .. . ... : ... .. . F02 ...
ROW 03 : ... .. . ... ... : ... .. . ... : ... .. . ... : ... .. . ... : ... .. . F01 ...
ROW 04 : ... .. . ... ... : ... .. . ... : ... .. . ... : ... .. . ... : ... .. . F02 ...
ROW 05 : ... .. . ... ... : ... .. . ... : ... .. . ... : ... .. . ... : ... .. . F01 ...
ROW 06 : ... .. . ... ... : ... .. . ... : ... .. . ... : F-# 04 . ... : ... .. . F02 ...
ROW 07 : ... .. . ... ... : ... .. . ... : ... .. . ... : ... .. . ... : ... .. . F01 ...
ROW 08 : ... .. . ... ... : ... .. . ... : ... .. . ... : ... .. . ... : ... .. . F02 ...
ROW 09 : ... .. . ... ... : ... .. . ... : ... .. . ... : ... .. . ... : ... .. . F01 ...
ROW 0A : ... .. . ... ... : ... .. . ... : ... .. . ... : ... .. . ... : ... .. . F02 ...
ROW 0B : ... .. . ... ... : ... .. . ... : ... .. . ... : ... .. . ... : ... .. . F01 ...
ROW 0C : ... .. . ... ... : ... .. . ... : D#2 05 . ... : F-# 04 . ... : ... .. . F02 ...
ROW 0D : ... .. . ... ... : ... .. . ... : ... .. . ... : ... .. . ... : ... .. . F01 ...
ROW 0E : ... .. . ... ... : ... .. . ... : ... .. . ... : ... .. . ... : ... .. . F02 ...
ROW 0F : ... .. . ... ... : ... .. . ... : ... .. . ... : ... .. . ... : ... .. . F01 ...
ROW 10 : ... .. . ... ... : ... .. . ... : ... .. . ... : ... .. . ... : ... .. . F02 ...
ROW 11 : ... .. . ... ... : ... .. . ... : --- .. . ... : ... .. . ... : ... .. . F01 ...
ROW 12 : G-3 0B . ... ... : ... .. . ... : F#3 19 . ... : C-# 08 . ... : ... .. . F02 ...
ROW 13 : ... .. . ... ... : ... .. . ... : D#2 01 . ... : ... .. . ... : ... .. . F01 ...
ROW 14 : ... .. . ... ... : ... .. . ... : ... .. . ... : ... .. . ... : ... .. . F02 ...
ROW 15 : ... .. . ... ... : ... .. . ... : ... .. . ... : ... .. . ... : ... .. . F01 ...
ROW 16 : ... .. . ... ... : ... .. . ... : ... .. . ... : ... .. . ... : ... .. . F02 ...
ROW 17 : ... .. . ... ... : ... .. . ... : ... .. . ... : ... .. . ... : ... .. . F01 ...
ROW 18 : ... .. . ... ... : ... .. . ... : --- .. . ... : F-# 04 . ... : ... .. . F02 ...
ROW 19 : ... .. . ... ... : ... .. . ... : ... .. . ... : ... .. . ... : ... .. . F01 ...
ROW 1A : ... .. . ... ... : ... .. . ... : ... .. . ... : ... .. . ... : ... .. . F02 ...
ROW 1B : ... .. . ... ... : ... .. . ... : ... .. . ... : ... .. . ... : ... .. . F01 ...
ROW 1C : ... .. . ... ... : ... .. . ... : ... .. . ... : ... .. . ... : ... .. . F02 ...
ROW 1D : ... .. . ... ... : ... .. . ... : ... .. . ... : ... .. . ... : ... .. . F01 ...
ROW 1E : ... .. . ... ... : ... .. . ... : F#3 19 . ... : F-# 04 . ... : ... .. . F02 ...
ROW 1F : ... .. . ... ... : ... .. . ... : A#1 01 . ... : ... .. . ... : ... .. . F01 ...
ROW 20 : ... .. . ... ... : ... .. . ... : ... .. . ... : ... .. . ... : ... .. . F02 ...
ROW 21 : ... .. . ... ... : ... .. . ... : ... .. . ... : ... .. . ... : ... .. . F01 ...
ROW 22 : ... .. . ... ... : ... .. . ... : ... .. . ... : ... .. . ... : ... .. . F02 ...
ROW 23 : ... .. . ... ... : ... .. . ... : --- .. . ... : ... .. . ... : ... .. . F01 ...
ROW 24 : ... .. . ... ... : ... .. . ... : F#3 19 . ... : F-# 03 . ... : ... .. . F02 ...
ROW 25 : ... .. . ... ... : ... .. . ... : D#2 01 . ... : ... .. . ... : ... .. . F01 ...
ROW 26 : ... .. . ... ... : ... .. . ... : ... .. . ... : ... .. . ... : ... .. . F02 ...
ROW 27 : ... .. . ... ... : ... .. . ... : ... .. . ... : ... .. . ... : ... .. . F01 ...
ROW 28 : ... .. . ... ... : ... .. . ... : ... .. . ... : ... .. . ... : ... .. . F02 ...
ROW 29 : ... .. . ... ... : ... .. . ... : ... .. . ... : ... .. . ... : ... .. . F01 ...
ROW 2A : ... .. . ... ... : ... .. . ... : ... .. . ... : F-# 04 . ... : ... .. . F02 ...
ROW 2B : ... .. . ... ... : ... .. . ... : ... .. . ... : ... .. . ... : ... .. . F01 ...
ROW 2C : ... .. . ... ... : ... .. . ... : ... .. . ... : ... .. . ... : ... .. . F02 ...
ROW 2D : ... .. . ... ... : ... .. . ... : ... .. . ... : ... .. . ... : ... .. . F01 ...
ROW 2E : ... .. . ... ... : ... .. . ... : ... .. . ... : ... .. . ... : ... .. . F02 ...
ROW 2F : ... .. . ... ... : ... .. . ... : --- .. . ... : ... .. . ... : ... .. . F01 ...
ROW 30 : ... .. . ... ... : ... .. . ... : F#3 19 . ... : C-# 08 . ... : ... .. . F02 ...
ROW 31 : ... .. . ... ... : ... .. . ... : D#2 01 . ... : ... .. . ... : ... .. . F01 ...
ROW 32 : ... .. . ... ... : ... .. . ... : ... .. . ... : ... .. . ... : ... .. . F02 ...
ROW 33 : ... .. . ... ... : ... .. . ... : ... .. . ... : ... .. . ... : ... .. . F01 ...
ROW 34 : ... .. . ... ... : ... .. . ... : F#3 19 . ... : ... .. . ... : ... .. . F02 ...
ROW 35 : ... .. . ... ... : ... .. . ... : D#2 01 . ... : ... .. . ... : ... .. . F01 ...
ROW 36 : ... .. . ... ... : ... .. . ... : ... .. . ... : F-# 04 . ... : ... .. . F02 ...
ROW 37 : ... .. . ... ... : ... .. . ... : ... .. . ... : ... .. . ... : ... .. . F01 ...
ROW 38 : ... .. . ... ... : ... .. . ... : F#3 19 . ... : ... .. . ... : ... .. . F02 ...
ROW 39 : ... .. . ... ... : ... .. . ... : D#2 01 . ... : F-# 03 . ... : ... .. . F01 ...
ROW 3A : ... .. . ... ... : ... .. . ... : ... .. . ... : ... .. . ... : ... .. . F02 ...
ROW 3B : ... .. . ... ... : ... .. . ... : ... .. . ... : ... .. . ... : ... .. . F01 ...

PATTERN 1F
ROW 00 : ... .. . ... ... : D#5 0C . ... : F#3 19 . ... : F-# 03 . ... : ... .. . F02 ...
ROW 01 : G-3 02 . ... ... : ... .. . ... : D#2 01 . ... : ... .. . ... : ... .. . F01 ...
ROW 02 : ... .. . ... ... : ... .. . ... : ... .. . ... : ... .. . ... : ... .. . F02 ...
ROW 03 : ... .. . ... ... : ... .. . ... : ... .. . ... : ... .. . ... : ... .. . F01 ...
ROW 04 : ... .. . ... ... : ... .. . ... : ... .. . ... : ... .. . ... : ... .. . F02 ...
ROW 05 : ... .. . ... ... : ... .. . ... : ... .. . ... : ... .. . ... : ... .. . F01 ...
ROW 06 : ... .. . ... ... : ... .. . ... : ... .. . ... : F-# 04 . ... : ... .. . F02 ...
ROW 07 : ... .. . ... ... : ... .. . ... : ... .. . ... : ... .. . ... : ... .. . F01 ...
ROW 08 : ... .. . ... ... : ... .. . ... : ... .. . ... : ... .. . ... : ... .. . F02 ...
ROW 09 : ... .. . ... ... : ... .. . ... : ... .. . ... : ... .. . ... : ... .. . F01 ...
ROW 0A : ... .. . ... ... : ... .. . ... : ... .. . ... : ... .. . ... : ... .. . F02 ...
ROW 0B : ... .. . ... ... : --- .. . ... : ... .. . ... : ... .. . ... : ... .. . F01 ...
ROW 0C : ... .. . ... ... : D#5 0C . ... : D#2 05 . ... : F-# 04 . ... : ... .. . F02 ...
ROW 0D : ... .. . ... ... : ... .. . ... : ... .. . ... : ... .. . ... : ... .. . F01 ...
ROW 0E : ... .. . ... ... : ... .. . ... : ... .. . ... : ... .. . ... : ... .. . F02 ...
ROW 0F : ... .. . ... ... : ... .. . ... : ... .. . ... : ... .. . ... : ... .. . F01 ...
ROW 10 : ... .. . ... ... : ... .. . ... : ... .. . ... : ... .. . ... : ... .. . F02 ...
ROW 11 : ... .. . ... ... : ... .. . ... : --- .. . ... : ... .. . ... : ... .. . F01 ...
ROW 12 : ... .. . ... ... : ... .. . ... : F#3 19 . ... : C-# 08 . ... : ... .. . F02 ...
ROW 13 : ... .. . ... ... : ... .. . ... : D#2 01 . ... : ... .. . ... : ... .. . F01 ...
ROW 14 : ... .. . ... ... : ... .. . ... : ... .. . ... : ... .. . ... : ... .. . F02 ...
ROW 15 : ... .. . ... ... : ... .. . ... : ... .. . ... : ... .. . ... : ... .. . F01 ...
ROW 16 : ... .. . ... ... : ... .. . ... : ... .. . ... : ... .. . ... : ... .. . F02 ...
ROW 17 : ... .. . ... ... : --- .. . ... : ... .. . ... : ... .. . ... : ... .. . F01 ...
ROW 18 : ... .. . ... ... : D#5 0D . ... : --- .. . ... : F-# 04 . ... : ... .. . F02 ...
ROW 19 : ... .. . ... ... : ... .. . ... : ... .. . ... : ... .. . ... : ... .. . F01 ...
ROW 1A : ... .. . ... ... : ... .. . ... : ... .. . ... : ... .. . ... : ... .. . F02 ...
ROW 1B : ... .. . ... ... : ... .. . ... : ... .. . ... : ... .. . ... : ... .. . F01 ...
ROW 1C : ... .. . ... ... : ... .. . ... : ... .. . ... : ... .. . ... : ... .. . F02 ...
ROW 1D : ... .. . ... ... : ... .. . ... : ... .. . ... : ... .. . ... : ... .. . F01 ...
ROW 1E : ... .. . ... ... : ... .. . ... : F#3 19 . ... : F-# 04 . ... : ... .. . F02 ...
ROW 1F : ... .. . ... ... : ... .. . ... : A#1 01 . ... : ... .. . ... : ... .. . F01 ...
ROW 20 : ... .. . ... ... : ... .. . ... : ... .. . ... : ... .. . ... : ... .. . F02 ...
ROW 21 : ... .. . ... ... : ... .. . ... : ... .. . ... : ... .. . ... : ... .. . F01 ...
ROW 22 : ... .. . ... ... : ... .. . ... : ... .. . ... : ... .. . ... : ... .. . F02 ...
ROW 23 : ... .. . ... ... : --- .. . ... : --- .. . ... : ... .. . ... : ... .. . F01 ...
ROW 24 : ... .. . ... ... : D#5 0D . ... : F#3 19 . ... : F-# 03 . ... : ... .. . F02 ...
ROW 25 : ... .. . ... ... : ... .. . ... : D#2 01 . ... : ... .. . ... : ... .. . F01 ...
ROW 26 : ... .. . ... ... : ... .. . ... : ... .. . ... : ... .. . ... : ... .. . F02 ...
ROW 27 : ... .. . ... ... : ... .. . ... : ... .. . ... : ... .. . ... : ... .. . F01 ...
ROW 28 : ... .. . ... ... : ... .. . ... : ... .. . ... : ... .. . ... : ... .. . F02 ...
ROW 29 : ... .. . ... ... : ... .. . ... : ... .. . ... : ... .. . ... : ... .. . F01 ...
ROW 2A : ... .. . ... ... : ... .. . ... : ... .. . ... : F-# 04 . ... : ... .. . F02 ...
ROW 2B : ... .. . ... ... : ... .. . ... : ... .. . ... : ... .. . ... : ... .. . F01 ...
ROW 2C : ... .. . ... ... : ... .. . ... : ... .. . ... : ... .. . ... : ... .. . F02 ...
ROW 2D : ... .. . ... ... : ... .. . ... : ... .. . ... : ... .. . ... : ... .. . F01 ...
ROW 2E : ... .. . ... ... : ... .. . ... : ... .. . ... : ... .. . ... : ... .. . F02 ...
ROW 2F : --- .. . ... ... : --- .. . ... : --- .. . ... : ... .. . ... : ... .. . F01 ...
ROW 30 : F-3 01 . ... ... : ... .. . ... : F#3 19 . ... : C-# 08 . ... : ... .. . F02 ...
ROW 31 : ... .. . ... ... : ... .. . ... : D#2 01 . ... : ... .. . ... : ... .. . F01 ...
ROW 32 : ... .. . ... ... : ... .. . ... : ... .. . ... : ... .. . ... : ... .. . F02 ...
ROW 33 : ... .. . ... ... : ... .. . ... : ... .. . ... : ... .. . ... : ... .. . F01 ...
ROW 34 : ... .. . ... ... : ... .. . ... : F#3 19 . ... : C-# 08 . ... : ... .. . F02 ...
ROW 35 : --- .. . ... ... : ... .. . ... : D#2 01 . ... : ... .. . ... : ... .. . F01 ...
ROW 36 : D-3 01 . ... ... : ... .. . ... : ... .. . ... : ... .. . ... : ... .. . F02 ...
ROW 37 : ... .. . ... ... : ... .. . ... : ... .. . ... : ... .. . ... : ... .. . F01 ...
ROW 38 : ... .. . ... ... : ... .. . ... : F#3 19 . ... : C-# 07 . ... : ... .. . F02 ...
ROW 39 : ... .. . ... ... : ... .. . ... : D#2 01 . ... : ... .. . ... : ... .. . F01 ...
ROW 3A : ... .. . ... ... : ... .. . ... : ... .. . ... : ... .. . ... : ... .. . F02 ...
ROW 3B : ... .. . ... ... : ... .. . ... : ... .. . ... : ... .. . ... : ... .. . F01 ...

PATTERN 20
ROW 00 : ... .. . ... ... : --- .. . ... : F#3 19 . ... : 9-# 06 . ... : ... .. . F02 ...
ROW 01 : ... .. . ... ... : ... .. . ... : G-2 01 . ... : ... .. . ... : ... .. . F01 ...
ROW 02 : ... .. . ... ... : ... .. . ... : ... .. . ... : ... .. . ... : ... .. . F02 ...
ROW 03 : ... .. . ... ... : ... .. . ... : ... .. . ... : ... .. . ... : ... .. . F01 ...
ROW 04 : ... .. . ... ... : ... .. . ... : ... .. . ... : ... .. . ... : ... .. . F02 ...
ROW 05 : ... .. . ... ... : ... .. . ... : ... .. . ... : ... .. . ... : ... .. . F01 ...
ROW 06 : ... .. . ... ... : ... .. . ... : ... .. . ... : ... .. . ... : ... .. . F02 ...
ROW 07 : ... .. . ... ... : ... .. . ... : ... .. . ... : ... .. . ... : ... .. . F01 ...
ROW 08 : ... .. . ... ... : ... .. . ... : ... .. . ... : ... .. . ... : ... .. . F02 ...
ROW 09 : ... .. . ... ... : ... .. . ... : ... .. . ... : ... .. . ... : ... .. . F01 ...
ROW 0A : ... .. . ... ... : ... .. . ... : ... .. . ... : ... .. . ... : ... .. . F02 ...
ROW 0B : --- .. . ... ... : ... .. . ... : ... .. . ... : ... .. . ... : ... .. . F01 ...
ROW 0C : D-3 0C . ... ... : ... .. . ... : G-2 05 . ... : ... .. . ... : ... .. . F02 ...
ROW 0D : ... .. . ... ... : ... .. . ... : ... .. . ... : ... .. . ... : ... .. . F01 ...
ROW 0E : ... .. . ... ... : ... .. . ... : ... .. . ... : ... .. . ... : ... .. . F02 ...
ROW 0F : ... .. . ... ... : ... .. . ... : ... .. . ... : ... .. . ... : ... .. . F01 ...
ROW 10 : ... .. . ... ... : ... .. . ... : ... .. . ... : ... .. . ... : ... .. . F02 ...
ROW 11 : ... .. . ... ... : ... .. . ... : --- .. . ... : --- .. . ... : ... .. . F01 ...
ROW 12 : ... .. . ... ... : ... .. . ... : F#3 19 . ... : C-# 08 . ... : ... .. . F02 ...
ROW 13 : ... .. . ... ... : ... .. . ... : G-2 01 . ... : ... .. . ... : ... .. . F01 ...
ROW 14 : ... .. . ... ... : ... .. . ... : ... .. . ... : ... .. . ... : ... .. . F02 ...
ROW 15 : ... .. . ... ... : ... .. . ... : ... .. . ... : ... .. . ... : ... .. . F01 ...
ROW 16 : ... .. . ... ... : ... .. . ... : ... .. . ... : ... .. . ... : ... .. . F02 ...
ROW 17 : --- .. . ... ... : ... .. . ... : ... .. . ... : ... .. . ... : ... .. . F01 ...
ROW 18 : D-3 0D . ... ... : ... .. . ... : --- .. . ... : F-# 04 . ... : ... .. . F02 ...
ROW 19 : ... .. . ... ... : ... .. . ... : ... .. . ... : ... .. . ... : ... .. . F01 ...
ROW 1A : ... .. . ... ... : ... .. . ... : ... .. . ... : ... .. . ... : ... .. . F02 ...
ROW 1B : ... .. . ... ... : ... .. . ... : ... .. . ... : ... .. . ... : ... .. . F01 ...
ROW 1C : ... .. . ... ... : ... .. . ... : ... .. . ... : ... .. . ... : ... .. . F02 ...
ROW 1D : ... .. . ... ... : ... .. . ... : ... .. . ... : ... .. . ... : ... .. . F01 ...
ROW 1E : ... .. . ... ... : ... .. . ... : F#3 19 . ... : F-# 04 . ... : ... .. . F02 ...
ROW 1F : ... .. . ... ... : ... .. . ... : G-2 01 . ... : ... .. . ... : ... .. . F01 ...
ROW 20 : ... .. . ... ... : ... .. . ... : ... .. . ... : ... .. . ... : ... .. . F02 ...
ROW 21 : ... .. . ... ... : ... .. . ... : ... .. . ... : ... .. . ... : ... .. . F01 ...
ROW 22 : ... .. . ... ... : ... .. . ... : ... .. . ... : ... .. . ... : ... .. . F02 ...
ROW 23 : --- .. . ... ... : ... .. . ... : --- .. . ... : ... .. . ... : ... .. . F01 ...
ROW 24 : ... .. . ... ... : ... .. . ... : F#3 19 . ... : F-# 03 . ... : ... .. . F02 ...
ROW 25 : ... .. . ... ... : ... .. . ... : G-2 01 . ... : ... .. . ... : ... .. . F01 ...
ROW 26 : ... .. . ... ... : ... .. . ... : ... .. . ... : ... .. . ... : ... .. . F02 ...
ROW 27 : ... .. . ... ... : ... .. . ... : ... .. . ... : ... .. . ... : ... .. . F01 ...
ROW 28 : ... .. . ... ... : ... .. . ... : ... .. . ... : ... .. . ... : ... .. . F02 ...
ROW 29 : ... .. . ... ... : ... .. . ... : ... .. . ... : ... .. . ... : ... .. . F01 ...
ROW 2A : ... .. . ... ... : ... .. . ... : G-2 05 . ... : F-# 04 . ... : ... .. . F02 ...
ROW 2B : ... .. . ... ... : ... .. . ... : ... .. . ... : ... .. . ... : ... .. . F01 ...
ROW 2C : ... .. . ... ... : ... .. . ... : ... .. . ... : ... .. . ... : ... .. . F02 ...
ROW 2D : ... .. . ... ... : ... .. . ... : ... .. . ... : ... .. . ... : ... .. . F01 ...
ROW 2E : ... .. . ... ... : ... .. . ... : ... .. . ... : ... .. . ... : ... .. . F02 ...
ROW 2F : ... .. . ... ... : ... .. . ... : --- .. . ... : ... .. . ... : ... .. . F01 ...
ROW 30 : ... .. . ... ... : ... .. . ... : F#3 19 . ... : C-# 08 . ... : ... .. . F02 ...
ROW 31 : ... .. . ... ... : ... .. . ... : D-2 01 . ... : ... .. . ... : ... .. . F01 ...
ROW 32 : ... .. . ... ... : ... .. . ... : ... .. . ... : ... .. . ... : ... .. . F02 ...
ROW 33 : ... .. . ... ... : ... .. . ... : ... .. . ... : ... .. . ... : ... .. . F01 ...
ROW 34 : ... .. . ... ... : ... .. . ... : ... .. . ... : ... .. . ... : ... .. . F02 ...
ROW 35 : ... .. . ... ... : ... .. . ... : ... .. . ... : ... .. . ... : ... .. . F01 ...
ROW 36 : ... .. . ... ... : ... .. . ... : D-2 05 . ... : F-# 04 . ... : ... .. . F02 ...
ROW 37 : ... .. . ... ... : ... .. . ... : ... .. . ... : ... .. . ... : ... .. . F01 ...
ROW 38 : ... .. . ... ... : ... .. . ... : ... .. . ... : ... .. . ... : ... .. . F02 ...
ROW 39 : ... .. . ... ... : ... .. . ... : ... .. . ... : F-# 03 . ... : ... .. . F01 ...
ROW 3A : ... .. . ... ... : ... .. . ... : ... .. . ... : ... .. . ... : ... .. . F02 ...
ROW 3B : ... .. . ... ... : ... .. . ... : --- .. . ... : ... .. . ... : ... .. . F01 ...

PATTERN 21
ROW 00 : ... .. . ... ... : ... .. . ... : F#3 19 . ... : F-# 03 . ... : ... .. . F02 ...
ROW 01 : ... .. . ... ... : ... .. . ... : G-2 01 . ... : ... .. . ... : ... .. . F01 ...
ROW 02 : ... .. . ... ... : ... .. . ... : ... .. . ... : ... .. . ... : ... .. . F02 ...
ROW 03 : ... .. . ... ... : ... .. . ... : ... .. . ... : ... .. . ... : ... .. . F01 ...
ROW 04 : ... .. . ... ... : ... .. . ... : ... .. . ... : ... .. . ... : ... .. . F02 ...
ROW 05 : ... .. . ... ... : ... .. . ... : ... .. . ... : ... .. . ... : ... .. . F01 ...
ROW 06 : ... .. . ... ... : ... .. . ... : ... .. . ... : F-# 04 . ... : ... .. . F02 ...
ROW 07 : ... .. . ... ... : ... .. . ... : ... .. . ... : ... .. . ... : ... .. . F01 ...
ROW 08 : ... .. . ... ... : ... .. . ... : ... .. . ... : ... .. . ... : ... .. . F02 ...
ROW 09 : ... .. . ... ... : ... .. . ... : ... .. . ... : ... .. . ... : ... .. . F01 ...
ROW 0A : ... .. . ... ... : ... .. . ... : ... .. . ... : ... .. . ... : ... .. . F02 ...
ROW 0B : ... .. . ... ... : ... .. . ... : ... .. . ... : ... .. . ... : ... .. . F01 ...
ROW 0C : ... .. . ... ... : ... .. . ... : G-2 05 . ... : F-# 04 . ... : ... .. . F02 ...
ROW 0D : ... .. . ... ... : ... .. . ... : ... .. . ... : ... .. . ... : ... .. . F01 ...
ROW 0E : ... .. . ... ... : ... .. . ... : ... .. . ... : ... .. . ... : ... .. . F02 ...
ROW 0F : ... .. . ... ... : ... .. . ... : ... .. . ... : ... .. . ... : ... .. . F01 ...
ROW 10 : ... .. . ... ... : ... .. . ... : ... .. . ... : ... .. . ... : ... .. . F02 ...
ROW 11 : ... .. . ... ... : ... .. . ... : --- .. . ... : ... .. . ... : ... .. . F01 ...
ROW 12 : ... .. . ... ... : ... .. . ... : F#3 19 . ... : C-# 08 . ... : ... .. . F02 ...
ROW 13 : ... .. . ... ... : ... .. . ... : G-2 01 . ... : ... .. . ... : ... .. . F01 ...
ROW 14 : ... .. . ... ... : ... .. . ... : ... .. . ... : ... .. . ... : ... .. . F02 ...
ROW 15 : ... .. . ... ... : ... .. . ... : ... .. . ... : ... .. . ... : ... .. . F01 ...
ROW 16 : ... .. . ... ... : ... .. . ... : ... .. . ... : ... .. . ... : ... .. . F02 ...
ROW 17 : ... .. . ... ... : ... .. . ... : ... .. . ... : ... .. . ... : ... .. . F01 ...
ROW 18 : ... .. . ... ... : ... .. . ... : --- .. . ... : F-# 04 . ... : ... .. . F02 ...
ROW 19 : ... .. . ... ... : ... .. . ... : ... .. . ... : ... .. . ... : ... .. . F01 ...
ROW 1A : ... .. . ... ... : ... .. . ... : ... .. . ... : ... .. . ... : ... .. . F02 ...
ROW 1B : ... .. . ... ... : ... .. . ... : ... .. . ... : ... .. . ... : ... .. . F01 ...
ROW 1C : ... .. . ... ... : ... .. . ... : ... .. . ... : ... .. . ... : ... .. . F02 ...
ROW 1D : ... .. . ... ... : ... .. . ... : ... .. . ... : ... .. . ... : ... .. . F01 ...
ROW 1E : ... .. . ... ... : ... .. . ... : F#3 19 . ... : F-# 04 . ... : ... .. . F02 ...
ROW 1F : ... .. . ... ... : ... .. . ... : G-2 01 . ... : ... .. . ... : ... .. . F01 ...
ROW 20 : ... .. . ... ... : ... .. . ... : ... .. . ... : ... .. . ... : ... .. . F02 ...
ROW 21 : ... .. . ... ... : ... .. . ... : ... .. . ... : ... .. . ... : ... .. . F01 ...
ROW 22 : ... .. . ... ... : ... .. . ... : ... .. . ... : ... .. . ... : ... .. . F02 ...
ROW 23 : ... .. . ... ... : ... .. . ... : --- .. . ... : ... .. . ... : ... .. . F01 ...
ROW 24 : ... .. . ... ... : ... .. . ... : F#3 19 . ... : F-# 03 . ... : ... .. . F02 ...
ROW 25 : ... .. . ... ... : ... .. . ... : G-2 01 . ... : ... .. . ... : ... .. . F01 ...
ROW 26 : ... .. . ... ... : ... .. . ... : ... .. . ... : ... .. . ... : ... .. . F02 ...
ROW 27 : ... .. . ... ... : ... .. . ... : ... .. . ... : ... .. . ... : ... .. . F01 ...
ROW 28 : ... .. . ... ... : ... .. . ... : ... .. . ... : ... .. . ... : ... .. . F02 ...
ROW 29 : ... .. . ... ... : ... .. . ... : ... .. . ... : ... .. . ... : ... .. . F01 ...
ROW 2A : ... .. . ... ... : ... .. . ... : G-2 05 . ... : F-# 04 . ... : ... .. . F02 ...
ROW 2B : ... .. . ... ... : ... .. . ... : ... .. . ... : ... .. . ... : ... .. . F01 ...
ROW 2C : ... .. . ... ... : ... .. . ... : ... .. . ... : ... .. . ... : ... .. . F02 ...
ROW 2D : ... .. . ... ... : ... .. . ... : ... .. . ... : ... .. . ... : ... .. . F01 ...
ROW 2E : ... .. . ... ... : ... .. . ... : ... .. . ... : ... .. . ... : ... .. . F02 ...
ROW 2F : ... .. . ... ... : ... .. . ... : --- .. . ... : ... .. . ... : ... .. . F01 ...
ROW 30 : ... .. . ... ... : ... .. . ... : F#3 19 . ... : C-# 08 . ... : ... .. . F02 ...
ROW 31 : ... .. . ... ... : ... .. . ... : D-2 01 . ... : ... .. . ... : ... .. . F01 ...
ROW 32 : ... .. . ... ... : ... .. . ... : ... .. . ... : ... .. . ... : ... .. . F02 ...
ROW 33 : ... .. . ... ... : ... .. . ... : ... .. . ... : ... .. . ... : ... .. . F01 ...
ROW 34 : ... .. . ... ... : ... .. . ... : ... .. . ... : ... .. . ... : ... .. . F02 ...
ROW 35 : ... .. . ... ... : ... .. . ... : --- .. . ... : ... .. . ... : ... .. . F01 ...
ROW 36 : ... .. . ... ... : ... .. . ... : F#3 19 . ... : C-# 08 . ... : ... .. . F02 ...
ROW 37 : ... .. . ... ... : ... .. . ... : D-2 01 . ... : ... .. . ... : ... .. . F01 ...
ROW 38 : ... .. . ... ... : ... .. . ... : ... .. . ... : ... .. . ... : ... .. . F02 ...
ROW 39 : ... .. . ... ... : ... .. . ... : ... .. . ... : ... .. . ... : ... .. . F01 ...
ROW 3A : ... .. . ... ... : ... .. . ... : ... .. . ... : ... .. . ... : ... .. . F02 ...
ROW 3B : ... .. . ... ... : ... .. . ... : --- .. . ... : ... .. . ... : ... .. . F01 ...

PATTERN 22
ROW 00 : ... .. . ... ... : ... .. . ... : F#3 19 . ... : F-# 03 . ... : ... .. . F02 ...
ROW 01 : ... .. . ... ... : ... .. . ... : G-2 01 . ... : ... .. . ... : ... .. . F01 ...
ROW 02 : ... .. . ... ... : ... .. . ... : ... .. . ... : ... .. . ... : ... .. . F02 ...
ROW 03 : ... .. . ... ... : ... .. . ... : ... .. . ... : ... .. . ... : ... .. . F01 ...
ROW 04 : ... .. . ... ... : ... .. . ... : ... .. . ... : ... .. . ... : ... .. . F02 ...
ROW 05 : ... .. . ... ... : ... .. . ... : ... .. . ... : ... .. . ... : ... .. . F01 ...
ROW 06 : ... .. . ... ... : ... .. . ... : ... .. . ... : F-# 04 . ... : ... .. . F02 ...
ROW 07 : ... .. . ... ... : ... .. . ... : ... .. . ... : ... .. . ... : ... .. . F01 ...
ROW 08 : ... .. . ... ... : ... .. . ... : ... .. . ... : ... .. . ... : ... .. . F02 ...
ROW 09 : ... .. . ... ... : ... .. . ... : ... .. . ... : ... .. . ... : ... .. . F01 ...
ROW 0A : ... .. . ... ... : ... .. . ... : ... .. . ... : ... .. . ... : ... .. . F02 ...
ROW 0B : ... .. . ... ... : ... .. . ... : ... .. . ... : ... .. . ... : ... .. . F01 ...
ROW 0C : ... .. . ... ... : ... .. . ... : G-2 05 . ... : F-# 04 . ... : ... .. . F02 ...
ROW 0D : ... .. . ... ... : ... .. . ... : ... .. . ... : ... .. . ... : ... .. . F01 ...
ROW 0E : ... .. . ... ... : ... .. . ... : ... .. . ... : ... .. . ... : ... .. . F02 ...
ROW 0F : ... .. . ... ... : ... .. . ... : ... .. . ... : ... .. . ... : ... .. . F01 ...
ROW 10 : ... .. . ... ... : ... .. . ... : ... .. . ... : ... .. . ... : ... .. . F02 ...
ROW 11 : ... .. . ... ... : ... .. . ... : --- .. . ... : ... .. . ... : ... .. . F01 ...
ROW 12 : ... .. . ... ... : ... .. . ... : F#3 19 . ... : C-# 08 . ... : ... .. . F02 ...
ROW 13 : ... .. . ... ... : ... .. . ... : G-2 01 . ... : ... .. . ... : ... .. . F01 ...
ROW 14 : ... .. . ... ... : ... .. . ... : ... .. . ... : ... .. . ... : ... .. . F02 ...
ROW 15 : ... .. . ... ... : ... .. . ... : ... .. . ... : ... .. . ... : ... .. . F01 ...
ROW 16 : ... .. . ... ... : ... .. . ... : ... .. . ... : ... .. . ... : ... .. . F02 ...
ROW 17 : ... .. . ... ... : ... .. . ... : ... .. . ... : ... .. . ... : ... .. . F01 ...
ROW 18 : ... .. . ... ... : ... .. . ... : --- .. . ... : F-# 04 . ... : ... .. . F02 ...
ROW 19 : ... .. . ... ... : ... .. . ... : ... .. . ... : ... .. . ... : ... .. . F01 ...
ROW 1A : ... .. . ... ... : ... .. . ... : ... .. . ... : ... .. . ... : ... .. . F02 ...
ROW 1B : ... .. . ... ... : ... .. . ... : ... .. . ... : ... .. . ... : ... .. . F01 ...
ROW 1C : ... .. . ... ... : ... .. . ... : ... .. . ... : ... .. . ... : ... .. . F02 ...
ROW 1D : ... .. . ... ... : ... .. . ... : ... .. . ... : ... .. . ... : ... .. . F01 ...
ROW 1E : ... .. . ... ... : ... .. . ... : F#3 19 . ... : F-# 04 . ... : ... .. . F02 ...
ROW 1F : ... .. . ... ... : ... .. . ... : G-2 01 . ... : ... .. . ... : ... .. . F01 ...
ROW 20 : ... .. . ... ... : ... .. . ... : ... .. . ... : ... .. . ... : ... .. . F02 ...
ROW 21 : ... .. . ... ... : ... .. . ... : ... .. . ... : ... .. . ... : ... .. . F01 ...
ROW 22 : ... .. . ... ... : ... .. . ... : ... .. . ... : ... .. . ... : ... .. . F02 ...
ROW 23 : ... .. . ... ... : ... .. . ... : --- .. . ... : ... .. . ... : ... .. . F01 ...
ROW 24 : ... .. . ... ... : ... .. . ... : F#3 19 . ... : F-# 03 . ... : ... .. . F02 ...
ROW 25 : ... .. . ... ... : ... .. . ... : G-2 01 . ... : ... .. . ... : ... .. . F01 ...
ROW 26 : ... .. . ... ... : ... .. . ... : ... .. . ... : ... .. . ... : ... .. . F02 ...
ROW 27 : ... .. . ... ... : ... .. . ... : ... .. . ... : ... .. . ... : ... .. . F01 ...
ROW 28 : ... .. . ... ... : ... .. . ... : ... .. . ... : ... .. . ... : ... .. . F02 ...
ROW 29 : ... .. . ... ... : ... .. . ... : ... .. . ... : ... .. . ... : ... .. . F01 ...
ROW 2A : ... .. . ... ... : ... .. . ... : G-2 05 . ... : F-# 04 . ... : ... .. . F02 ...
ROW 2B : ... .. . ... ... : ... .. . ... : ... .. . ... : ... .. . ... : ... .. . F01 ...
ROW 2C : ... .. . ... ... : ... .. . ... : ... .. . ... : ... .. . ... : ... .. . F02 ...
ROW 2D : ... .. . ... ... : ... .. . ... : ... .. . ... : ... .. . ... : ... .. . F01 ...
ROW 2E : ... .. . ... ... : ... .. . ... : ... .. . ... : ... .. . ... : ... .. . F02 ...
ROW 2F : ... .. . ... ... : ... .. . ... : --- .. . ... : ... .. . ... : ... .. . F01 ...
ROW 30 : ... .. . ... ... : ... .. . ... : F#3 19 . ... : C-# 08 . ... : ... .. . F02 ...
ROW 31 : ... .. . ... ... : ... .. . ... : D-2 01 . ... : ... .. . ... : ... .. . F01 ...
ROW 32 : ... .. . ... ... : ... .. . ... : ... .. . ... : ... .. . ... : ... .. . F02 ...
ROW 33 : ... .. . ... ... : ... .. . ... : ... .. . ... : ... .. . ... : ... .. . F01 ...
ROW 34 : ... .. . ... ... : ... .. . ... : ... .. . ... : ... .. . ... : ... .. . F02 ...
ROW 35 : ... .. . ... ... : ... .. . ... : ... .. . ... : ... .. . ... : ... .. . F01 ...
ROW 36 : ... .. . ... ... : ... .. . ... : D-2 05 . ... : F-# 04 . ... : ... .. . F02 ...
ROW 37 : ... .. . ... ... : ... .. . ... : ... .. . ... : ... .. . ... : ... .. . F01 ...
ROW 38 : ... .. . ... ... : ... .. . ... : ... .. . ... : ... .. . ... : ... .. . F02 ...
ROW 39 : ... .. . ... ... : ... .. . ... : ... .. . ... : F-# 03 . ... : ... .. . F01 ...
ROW 3A : ... .. . ... ... : ... .. . ... : ... .. . ... : ... .. . ... : ... .. . F02 ...
ROW 3B : ... .. . ... ... : ... .. . ... : --- .. . ... : ... .. . ... : ... .. . F01 ...

PATTERN 23
ROW 00 : ... .. . ... ... : ... .. . ... : F#3 19 . ... : F-# 03 . ... : ... .. . F02 ...
ROW 01 : ... .. . ... ... : ... .. . ... : G-2 01 . ... : ... .. . ... : ... .. . F01 ...
ROW 02 : ... .. . ... ... : ... .. . ... : ... .. . ... : ... .. . ... : ... .. . F02 ...
ROW 03 : ... .. . ... ... : ... .. . ... : ... .. . ... : ... .. . ... : ... .. . F01 ...
ROW 04 : ... .. . ... ... : ... .. . ... : ... .. . ... : ... .. . ... : ... .. . F02 ...
ROW 05 : ... .. . ... ... : ... .. . ... : ... .. . ... : ... .. . ... : ... .. . F01 ...
ROW 06 : ... .. . ... ... : ... .. . ... : ... .. . ... : F-# 04 . ... : ... .. . F02 ...
ROW 07 : ... .. . ... ... : ... .. . ... : ... .. . ... : ... .. . ... : ... .. . F01 ...
ROW 08 : ... .. . ... ... : ... .. . ... : ... .. . ... : ... .. . ... : ... .. . F02 ...
ROW 09 : ... .. . ... ... : ... .. . ... : ... .. . ... : ... .. . ... : ... .. . F01 ...
ROW 0A : ... .. . ... ... : ... .. . ... : ... .. . ... : ... .. . ... : ... .. . F02 ...
ROW 0B : ... .. . ... ... : ... .. . ... : --- .. . ... : ... .. . ... : ... .. . F01 ...
ROW 0C : ... .. . ... ... : ... .. . ... : G-2 05 . ... : F-# 04 . ... : ... .. . F02 ...
ROW 0D : ... .. . ... ... : ... .. . ... : ... .. . ... : ... .. . ... : ... .. . F01 ...
ROW 0E : ... .. . ... ... : ... .. . ... : ... .. . ... : ... .. . ... : ... .. . F02 ...
ROW 0F : ... .. . ... ... : ... .. . ... : ... .. . ... : ... .. . ... : ... .. . F01 ...
ROW 10 : ... .. . ... ... : ... .. . ... : ... .. . ... : ... .. . ... : ... .. . F02 ...
ROW 11 : ... .. . ... ... : ... .. . ... : ... .. . ... : ... .. . ... : ... .. . F01 ...
ROW 12 : ... .. . ... ... : ... .. . ... : F#3 19 . ... : C-# 08 . ... : ... .. . F02 ...
ROW 13 : ... .. . ... ... : ... .. . ... : G-2 01 . ... : ... .. . ... : ... .. . F01 ...
ROW 14 : ... .. . ... ... : ... .. . ... : ... .. . ... : ... .. . ... : ... .. . F02 ...
ROW 15 : ... .. . ... ... : ... .. . ... : ... .. . ... : ... .. . ... : ... .. . F01 ...
ROW 16 : ... .. . ... ... : ... .. . ... : ... .. . ... : ... .. . ... : ... .. . F02 ...
ROW 17 : ... .. . ... ... : ... .. . ... : ... .. . ... : ... .. . ... : ... .. . F01 ...
ROW 18 : ... .. . ... ... : ... .. . ... : --- .. . ... : F-# 04 . ... : ... .. . F02 ...
ROW 19 : ... .. . ... ... : ... .. . ... : ... .. . ... : ... .. . ... : ... .. . F01 ...
ROW 1A : ... .. . ... ... : ... .. . ... : ... .. . ... : ... .. . ... : ... .. . F02 ...
ROW 1B : ... .. . ... ... : ... .. . ... : ... .. . ... : ... .. . ... : ... .. . F01 ...
ROW 1C : ... .. . ... ... : ... .. . ... : ... .. . ... : ... .. . ... : ... .. . F02 ...
ROW 1D : ... .. . ... ... : ... .. . ... : ... .. . ... : ... .. . ... : ... .. . F01 ...
ROW 1E : ... .. . ... ... : ... .. . ... : F#3 19 . ... : F-# 04 . ... : ... .. . F02 ...
ROW 1F : ... .. . ... ... : ... .. . ... : D-2 01 . ... : ... .. . ... : ... .. . F01 ...
ROW 20 : ... .. . ... ... : ... .. . ... : ... .. . ... : ... .. . ... : ... .. . F02 ...
ROW 21 : ... .. . ... ... : ... .. . ... : ... .. . ... : ... .. . ... : ... .. . F01 ...
ROW 22 : ... .. . ... ... : ... .. . ... : ... .. . ... : ... .. . ... : ... .. . F02 ...
ROW 23 : ... .. . ... ... : ... .. . ... : --- .. . ... : ... .. . ... : ... .. . F01 ...
ROW 24 : ... .. . ... ... : ... .. . ... : F#3 19 . ... : F-# 03 . ... : ... .. . F02 ...
ROW 25 : ... .. . ... ... : ... .. . ... : D-2 01 . ... : ... .. . ... : ... .. . F01 ...
ROW 26 : ... .. . ... ... : ... .. . ... : ... .. . ... : ... .. . ... : ... .. . F02 ...
ROW 27 : ... .. . ... ... : ... .. . ... : ... .. . ... : ... .. . ... : ... .. . F01 ...
ROW 28 : ... .. . ... ... : ... .. . ... : ... .. . ... : ... .. . ... : ... .. . F02 ...
ROW 29 : ... .. . ... ... : ... .. . ... : ... .. . ... : ... .. . ... : ... .. . F01 ...
ROW 2A : ... .. . ... ... : ... .. . ... : D-2 05 . ... : F-# 04 . ... : ... .. . F02 ...
ROW 2B : ... .. . ... ... : ... .. . ... : ... .. . ... : ... .. . ... : ... .. . F01 ...
ROW 2C : ... .. . ... ... : ... .. . ... : ... .. . ... : ... .. . ... : ... .. . F02 ...
ROW 2D : ... .. . ... ... : ... .. . ... : ... .. . ... : ... .. . ... : ... .. . F01 ...
ROW 2E : ... .. . ... ... : ... .. . ... : ... .. . ... : ... .. . ... : ... .. . F02 ...
ROW 2F : ... .. . ... ... : ... .. . ... : --- .. . ... : ... .. . ... : ... .. . F01 ...
ROW 30 : ... .. . ... ... : ... .. . ... : F#3 19 . ... : C-# 07 . ... : ... .. . F02 ...
ROW 31 : ... .. . ... ... : ... .. . ... : D-2 01 . ... : ... .. . ... : ... .. . F01 ...
ROW 32 : ... .. . ... ... : ... .. . ... : ... .. . ... : ... .. . ... : ... .. . F02 ...
ROW 33 : ... .. . ... ... : ... .. . ... : ... .. . ... : ... .. . ... : ... .. . F01 ...
ROW 34 : ... .. . ... ... : ... .. . ... : F#3 19 . ... : C-# 07 . ... : ... .. . F02 ...
ROW 35 : ... .. . ... ... : ... .. . ... : D-2 05 . ... : ... .. . ... : ... .. . F01 ...
ROW 36 : ... .. . ... ... : ... .. . ... : ... .. . ... : ... .. . ... : ... .. . F02 ...
ROW 37 : ... .. . ... ... : ... .. . ... : ... .. . ... : ... .. . ... : ... .. . F01 ...
ROW 38 : ... .. . ... ... : ... .. . ... : F#3 19 . ... : C-# 07 . ... : ... .. . F02 ...
ROW 39 : ... .. . ... ... : ... .. . ... : D-2 05 . ... : ... .. . ... : ... .. . F01 ...
ROW 3A : ... .. . ... ... : ... .. . ... : ... .. . ... : ... .. . ... : ... .. . F02 ...
ROW 3B : ... .. . ... ... : ... .. . ... : ... .. . ... : ... .. . ... : ... .. . F01 ...

TRACK  64   4 150 "gameplay"
COLUMNS : 1 1 1 1 1

ORDER 00 : 00 00 00 00 00
ORDER 01 : 01 01 01 01 01
ORDER 02 : 02 02 02 02 02
ORDER 03 : 03 03 03 03 03
ORDER 04 : 04 04 04 04 04
ORDER 05 : 05 05 05 05 05

PATTERN 00
ROW 00 : ... .. . ... : ... .. . ... : ... .. . ... : ... .. . ... : ... .. . F01
ROW 01 : ... .. . ... : ... .. . ... : ... .. . ... : ... .. . ... : ... .. . ...
ROW 02 : ... .. . ... : ... .. . ... : ... .. . ... : ... .. . ... : ... .. . ...
ROW 03 : ... .. . ... : ... .. . ... : ... .. . ... : ... .. . ... : ... .. . ...
ROW 04 : ... .. . ... : ... .. . ... : ... .. . ... : ... .. . ... : ... .. . ...
ROW 05 : ... .. . ... : ... .. . ... : ... .. . ... : ... .. . ... : ... .. . ...
ROW 06 : ... .. . ... : ... .. . ... : ... .. . ... : ... .. . ... : ... .. . ...
ROW 07 : ... .. . ... : ... .. . ... : ... .. . ... : ... .. . ... : ... .. . ...
ROW 08 : ... .. . ... : ... .. . ... : ... .. . ... : ... .. . ... : ... .. . ...
ROW 09 : ... .. . ... : ... .. . ... : ... .. . ... : ... .. . ... : ... .. . ...
ROW 0A : ... .. . ... : ... .. . ... : ... .. . ... : ... .. . ... : ... .. . ...
ROW 0B : ... .. . ... : ... .. . ... : ... .. . ... : ... .. . ... : ... .. . ...
ROW 0C : ... .. . ... : ... .. . ... : ... .. . ... : ... .. . ... : ... .. . ...
ROW 0D : ... .. . ... : ... .. . ... : ... .. . ... : ... .. . ... : ... .. . ...
ROW 0E : ... .. . ... : ... .. . ... : ... .. . ... : ... .. . ... : ... .. . ...
ROW 0F : ... .. . ... : ... .. . ... : ... .. . ... : ... .. . ... : ... .. . ...
ROW 10 : ... .. . ... : ... .. . ... : ... .. . ... : ... .. . ... : ... .. . ...
ROW 11 : ... .. . ... : ... .. . ... : ... .. . ... : ... .. . ... : ... .. . ...
ROW 12 : ... .. . ... : ... .. . ... : ... .. . ... : ... .. . ... : ... .. . ...
ROW 13 : ... .. . ... : ... .. . ... : ... .. . ... : ... .. . ... : ... .. . ...
ROW 14 : ... .. . ... : ... .. . ... : ... .. . ... : ... .. . ... : ... .. . ...
ROW 15 : ... .. . ... : ... .. . ... : ... .. . ... : ... .. . ... : ... .. . ...
ROW 16 : ... .. . ... : ... .. . ... : ... .. . ... : ... .. . ... : ... .. . ...
ROW 17 : ... .. . ... : ... .. . ... : ... .. . ... : ... .. . ... : ... .. . ...
ROW 18 : ... .. . ... : ... .. . ... : ... .. . ... : ... .. . ... : ... .. . ...
ROW 19 : ... .. . ... : ... .. . ... : ... .. . ... : ... .. . ... : ... .. . ...
ROW 1A : ... .. . ... : ... .. . ... : ... .. . ... : ... .. . ... : ... .. . ...
ROW 1B : ... .. . ... : ... .. . ... : ... .. . ... : ... .. . ... : ... .. . ...
ROW 1C : ... .. . ... : ... .. . ... : ... .. . ... : ... .. . ... : ... .. . ...
ROW 1D : ... .. . ... : ... .. . ... : ... .. . ... : ... .. . ... : ... .. . ...
ROW 1E : ... .. . ... : ... .. . ... : ... .. . ... : ... .. . ... : ... .. . ...
ROW 1F : ... .. . ... : ... .. . ... : ... .. . ... : ... .. . D00 : ... .. . ...
ROW 20 : ... .. . ... : ... .. . ... : ... .. . ... : ... .. . ... : ... .. . ...
ROW 21 : ... .. . ... : ... .. . ... : ... .. . ... : ... .. . ... : ... .. . ...
ROW 22 : ... .. . ... : ... .. . ... : ... .. . ... : ... .. . ... : ... .. . ...
ROW 23 : ... .. . ... : ... .. . ... : ... .. . ... : ... .. . ... : ... .. . ...
ROW 24 : ... .. . ... : ... .. . ... : ... .. . ... : ... .. . ... : ... .. . ...
ROW 25 : ... .. . ... : ... .. . ... : ... .. . ... : ... .. . ... : ... .. . ...
ROW 26 : ... .. . ... : ... .. . ... : ... .. . ... : ... .. . ... : ... .. . ...
ROW 27 : ... .. . ... : ... .. . ... : ... .. . ... : ... .. . ... : ... .. . ...
ROW 28 : ... .. . ... : ... .. . ... : ... .. . ... : ... .. . ... : ... .. . ...
ROW 29 : ... .. . ... : ... .. . ... : ... .. . ... : ... .. . ... : ... .. . ...
ROW 2A : ... .. . ... : ... .. . ... : ... .. . ... : ... .. . ... : ... .. . ...
ROW 2B : ... .. . ... : ... .. . ... : ... .. . ... : ... .. . ... : ... .. . ...
ROW 2C : ... .. . ... : ... .. . ... : ... .. . ... : ... .. . ... : ... .. . ...
ROW 2D : ... .. . ... : ... .. . ... : ... .. . ... : ... .. . ... : ... .. . ...
ROW 2E : ... .. . ... : ... .. . ... : ... .. . ... : ... .. . ... : ... .. . ...
ROW 2F : ... .. . ... : ... .. . ... : ... .. . ... : ... .. . ... : ... .. . ...
ROW 30 : ... .. . ... : ... .. . ... : ... .. . ... : ... .. . ... : ... .. . ...
ROW 31 : ... .. . ... : ... .. . ... : ... .. . ... : ... .. . ... : ... .. . ...
ROW 32 : ... .. . ... : ... .. . ... : ... .. . ... : ... .. . ... : ... .. . ...
ROW 33 : ... .. . ... : ... .. . ... : ... .. . ... : ... .. . ... : ... .. . ...
ROW 34 : ... .. . ... : ... .. . ... : ... .. . ... : ... .. . ... : ... .. . ...
ROW 35 : ... .. . ... : ... .. . ... : ... .. . ... : ... .. . ... : ... .. . ...
ROW 36 : ... .. . ... : ... .. . ... : ... .. . ... : ... .. . ... : ... .. . ...
ROW 37 : ... .. . ... : ... .. . ... : ... .. . ... : ... .. . ... : ... .. . ...
ROW 38 : ... .. . ... : ... .. . ... : ... .. . ... : ... .. . ... : ... .. . ...
ROW 39 : ... .. . ... : ... .. . ... : ... .. . ... : ... .. . ... : ... .. . ...
ROW 3A : ... .. . ... : ... .. . ... : ... .. . ... : ... .. . ... : ... .. . ...
ROW 3B : ... .. . ... : ... .. . ... : ... .. . ... : ... .. . ... : ... .. . ...
ROW 3C : ... .. . ... : ... .. . ... : ... .. . ... : ... .. . ... : ... .. . ...
ROW 3D : ... .. . ... : ... .. . ... : ... .. . ... : ... .. . ... : ... .. . ...
ROW 3E : ... .. . ... : ... .. . ... : ... .. . ... : ... .. . ... : ... .. . ...
ROW 3F : ... .. . ... : ... .. . ... : ... .. . ... : ... .. . ... : ... .. . ...

PATTERN 01
ROW 00 : G#1 14 . ... : ... .. . ... : F#3 19 . ... : 9-# 06 . ... : ... .. . F03
ROW 01 : ... .. . ... : ... .. . ... : G#2 14 . ... : ... .. . ... : ... .. . F02
ROW 02 : ... .. . ... : ... .. . ... : ... .. . ... : ... .. . ... : ... .. . ...
ROW 03 : --- .. . ... : ... .. . ... : ... .. . ... : ... .. . ... : ... .. . ...
ROW 04 : G#1 14 . ... : ... .. . ... : F#3 19 . ... : ... .. . ... : ... .. . F03
ROW 05 : ... .. . ... : ... .. . ... : G#2 14 . ... : ... .. . ... : ... .. . F02
ROW 06 : ... .. . ... : ... .. . ... : ... .. . ... : ... .. . ... : ... .. . ...
ROW 07 : --- .. . ... : ... .. . ... : --- .. . ... : ... .. . ... : ... .. . ...
ROW 08 : F#1 14 . ... : ... .. . ... : A#3 1A . ... : ... .. . ... : ... .. . F03
ROW 09 : ... .. . ... : ... .. . ... : F#2 14 . ... : ... .. . ... : ... .. . F02
ROW 0A : ... .. . ... : ... .. . ... : ... .. . ... : ... .. . ... : ... .. . ...
ROW 0B : --- .. . ... : ... .. . ... : --- .. . ... : ... .. . ... : ... .. . ...
ROW 0C : D#1 14 . ... : ... .. . ... : D#2 14 . ... : F-# 04 . ... : ... .. . F03
ROW 0D : ... .. . ... : ... .. . ... : ... .. . ... : ... .. . ... : ... .. . F02
ROW 0E : ... .. . ... : ... .. . ... : ... .. . ... : D-# 04 . ... : ... .. . ...
ROW 0F : --- .. . ... : ... .. . ... : --- .. . ... : ... .. . ... : ... .. . ...
ROW 10 : F#1 14 . ... : ... .. . ... : F#3 19 . ... : F-# 03 . ... : ... .. . F03
ROW 11 : ... .. . ... : ... .. . ... : F#2 14 . ... : ... .. . ... : ... .. . F02
ROW 12 : ... .. . ... : ... .. . ... : ... .. . ... : ... .. . ... : ... .. . ...
ROW 13 : --- .. . ... : ... .. . ... : --- .. . ... : ... .. . ... : ... .. . ...
ROW 14 : G#1 14 . ... : ... .. . ... : F#3 19 . ... : F-# 04 . ... : ... .. . F03
ROW 15 : ... .. . ... : ... .. . ... : G#2 14 . ... : ... .. . ... : ... .. . F02
ROW 16 : ... .. . ... : ... .. . ... : ... .. . ... : ... .. . ... : ... .. . ...
ROW 17 : --- .. . ... : ... .. . ... : --- .. . ... : ... .. . ... : ... .. . ...
ROW 18 : ... .. . ... : ... .. . ... : A#3 1A . ... : 4-# 03 . ... : ... .. . F03
ROW 19 : ... .. . ... : ... .. . ... : --- .. . ... : ... .. . ... : ... .. . F02
ROW 1A : ... .. . ... : ... .. . ... : ... .. . ... : ... .. . ... : ... .. . ...
ROW 1B : ... .. . ... : ... .. . ... : --- .. . ... : ... .. . ... : ... .. . ...
ROW 1C : A-3 00 . ... : ... .. . ... : F#3 19 . ... : F-# 04 . ... : ... .. . F03
ROW 1D : ... .. . ... : ... .. . ... : A#1 14 . ... : ... .. . ... : ... .. . F02
ROW 1E : ... .. . ... : ... .. . ... : ... .. . ... : ... .. . ... : ... .. . ...
ROW 1F : ... .. . ... : ... .. . ... : ... .. . ... : ... .. . ... : ... .. . ...
ROW 20 : ... .. . ... : ... .. . ... : ... .. . ... : F-# 03 . ... : ... .. . F03
ROW 21 : ... .. . ... : ... .. . ... : ... .. . ... : ... .. . ... : ... .. . F02
ROW 22 : ... .. . ... : ... .. . ... : ... .. . ... : ... .. . ... : ... .. . ...
ROW 23 : --- .. . ... : ... .. . ... : --- .. . ... : ... .. . ... : ... .. . ...
ROW 24 : G#1 14 . ... : ... .. . ... : F#3 19 . ... : F-# 04 . ... : ... .. . F03
ROW 25 : ... .. . ... : ... .. . ... : G#2 14 . ... : ... .. . ... : ... .. . F02
ROW 26 : ... .. . ... : ... .. . ... : ... .. . ... : ... .. . ... : ... .. . ...
ROW 27 : --- .. . ... : ... .. . ... : --- .. . ... : ... .. . ... : ... .. . ...
ROW 28 : F#1 14 . ... : ... .. . ... : A#3 1A . ... : 4-# 03 . ... : ... .. . F03
ROW 29 : ... .. . ... : ... .. . ... : F#2 14 . ... : ... .. . ... : ... .. . F02
ROW 2A : ... .. . ... : ... .. . ... : ... .. . ... : ... .. . ... : ... .. . ...
ROW 2B : --- .. . ... : ... .. . ... : --- .. . ... : ... .. . ... : ... .. . ...
ROW 2C : D#1 14 . ... : ... .. . ... : D#2 14 . ... : F-# 04 . ... : ... .. . F03
ROW 2D : ... .. . ... : ... .. . ... : ... .. . ... : ... .. . ... : ... .. . F02
ROW 2E : ... .. . ... : ... .. . ... : ... .. . ... : ... .. . ... : ... .. . ...
ROW 2F : --- .. . ... : ... .. . ... : --- .. . ... : ... .. . ... : ... .. . ...
ROW 30 : F#1 14 . ... : ... .. . ... : F#3 19 . ... : F-# 03 . ... : ... .. . F03
ROW 31 : ... .. . ... : ... .. . ... : F#2 14 . ... : ... .. . ... : ... .. . F02
ROW 32 : ... .. . ... : ... .. . ... : ... .. . ... : ... .. . ... : ... .. . ...
ROW 33 : --- .. . ... : ... .. . ... : --- .. . ... : ... .. . ... : ... .. . ...
ROW 34 : G#1 14 . ... : ... .. . ... : F#3 19 . ... : F-# 04 . ... : ... .. . F03
ROW 35 : ... .. . ... : ... .. . ... : G#2 14 . ... : ... .. . ... : ... .. . F02
ROW 36 : ... .. . ... : ... .. . ... : ... .. . ... : ... .. . ... : ... .. . ...
ROW 37 : --- .. . ... : ... .. . ... : --- .. . ... : ... .. . ... : ... .. . ...
ROW 38 : ... .. . ... : ... .. . ... : A#3 1A . ... : 4-# 03 . ... : ... .. . F03
ROW 39 : ... .. . ... : ... .. . ... : --- .. . ... : ... .. . ... : ... .. . F02
ROW 3A : ... .. . ... : ... .. . ... : ... .. . ... : ... .. . ... : ... .. . ...
ROW 3B : ... .. . ... : ... .. . ... : --- .. . ... : ... .. . ... : ... .. . ...
ROW 3C : B-3 00 . ... : ... .. . ... : F#3 19 . ... : F-# 04 . ... : ... .. . F03
ROW 3D : ... .. . ... : ... .. . ... : B-1 14 . ... : ... .. . ... : ... .. . F02
ROW 3E : ... .. . ... : ... .. . ... : ... .. . ... : ... .. . ... : ... .. . ...
ROW 3F : ... .. . ... : ... .. . ... : ... .. . ... : ... .. . ... : ... .. . ...

PATTERN 02
ROW 00 : ... .. . ... : ... .. . ... : ... .. . ... : F-# 03 . ... : ... .. . F03
ROW 01 : ... .. . ... : ... .. . ... : ... .. . ... : ... .. . ... : ... .. . F02
ROW 02 : ... .. . ... : ... .. . ... : ... .. . ... : ... .. . ... : ... .. . ...
ROW 03 : --- .. . ... : ... .. . ... : --- .. . ... : ... .. . ... : ... .. . ...
ROW 04 : G#1 14 . ... : ... .. . ... : F#3 19 . ... : F-# 04 . ... : ... .. . F03
ROW 05 : ... .. . ... : ... .. . ... : G#2 14 . ... : ... .. . ... : ... .. . F02
ROW 06 : ... .. . ... : ... .. . ... : ... .. . ... : ... .. . ... : ... .. . ...
ROW 07 : --- .. . ... : ... .. . ... : --- .. . ... : ... .. . ... : ... .. . ...
ROW 08 : F#1 14 . ... : ... .. . ... : A#3 1A . ... : 4-# 03 . ... : ... .. . F03
ROW 09 : ... .. . ... : ... .. . ... : F#2 14 . ... : ... .. . ... : ... .. . F02
ROW 0A : ... .. . ... : ... .. . ... : ... .. . ... : ... .. . ... : ... .. . ...
ROW 0B : --- .. . ... : ... .. . ... : --- .. . ... : ... .. . ... : ... .. . ...
ROW 0C : D#1 14 . ... : ... .. . ... : D#2 14 . ... : F-# 04 . ... : ... .. . F03
ROW 0D : ... .. . ... : ... .. . ... : ... .. . ... : ... .. . ... : ... .. . F02
ROW 0E : ... .. . ... : ... .. . ... : ... .. . ... : D-# 04 . ... : ... .. . ...
ROW 0F : --- .. . ... : ... .. . ... : --- .. . ... : ... .. . ... : ... .. . ...
ROW 10 : F#1 14 . ... : ... .. . ... : F#3 19 . ... : F-# 03 . ... : ... .. . F03
ROW 11 : ... .. . ... : ... .. . ... : F#2 14 . ... : ... .. . ... : ... .. . F02
ROW 12 : ... .. . ... : ... .. . ... : ... .. . ... : ... .. . ... : ... .. . ...
ROW 13 : --- .. . ... : ... .. . ... : --- .. . ... : ... .. . ... : ... .. . ...
ROW 14 : G#1 14 . ... : ... .. . ... : F#3 19 . ... : F-# 04 . ... : ... .. . F03
ROW 15 : ... .. . ... : ... .. . ... : G#2 14 . ... : ... .. . ... : ... .. . F02
ROW 16 : ... .. . ... : ... .. . ... : ... .. . ... : ... .. . ... : ... .. . ...
ROW 17 : --- .. . ... : ... .. . ... : --- .. . ... : ... .. . ... : ... .. . ...
ROW 18 : ... .. . ... : ... .. . ... : A#3 1A . ... : 4-# 03 . ... : ... .. . F03
ROW 19 : ... .. . ... : ... .. . ... : --- .. . ... : ... .. . ... : ... .. . F02
ROW 1A : ... .. . ... : ... .. . ... : ... .. . ... : ... .. . ... : ... .. . ...
ROW 1B : ... .. . ... : ... .. . ... : --- .. . ... : ... .. . ... : ... .. . ...
ROW 1C : C#1 14 . ... : ... .. . ... : F#3 19 . ... : F-# 04 . ... : ... .. . F03
ROW 1D : ... .. . ... : ... .. . ... : C#2 14 . ... : ... .. . ... : ... .. . F02
ROW 1E : ... .. . ... : ... .. . ... : ... .. . ... : ... .. . ... : ... .. . ...
ROW 1F : ... .. . ... : ... .. . ... : ... .. . ... : ... .. . ... : ... .. . ...
ROW 20 : ... .. . ... : ... .. . ... : ... .. . ... : F-# 03 . ... : ... .. . F03
ROW 21 : ... .. . ... : ... .. . ... : ... .. . ... : ... .. . ... : ... .. . F02
ROW 22 : ... .. . ... : ... .. . ... : ... .. . ... : ... .. . ... : ... .. . ...
ROW 23 : --- .. . ... : ... .. . ... : --- .. . ... : ... .. . ... : ... .. . ...
ROW 24 : F#1 14 . ... : ... .. . ... : F#3 19 . ... : F-# 04 . ... : ... .. . F03
ROW 25 : ... .. . ... : ... .. . ... : F#2 14 . ... : ... .. . ... : ... .. . F02
ROW 26 : ... .. . ... : ... .. . ... : ... .. . ... : ... .. . ... : ... .. . ...
ROW 27 : --- .. . ... : ... .. . ... : --- .. . ... : ... .. . ... : ... .. . ...
ROW 28 : G#1 14 . ... : ... .. . ... : A#3 1A . ... : 4-# 03 . ... : ... .. . F03
ROW 29 : ... .. . ... : ... .. . ... : G#2 14 . ... : ... .. . ... : ... .. . F02
ROW 2A : ... .. . ... : ... .. . ... : ... .. . ... : ... .. . ... : ... .. . ...
ROW 2B : --- .. . ... : ... .. . ... : --- .. . ... : ... .. . ... : ... .. . ...
ROW 2C : D#1 14 . ... : ... .. . ... : F#3 19 . ... : F-# 04 . ... : ... .. . F03
ROW 2D : ... .. . ... : ... .. . ... : D#2 14 . ... : ... .. . ... : ... .. . F02
ROW 2E : ... .. . ... : ... .. . ... : ... .. . ... : ... .. . ... : ... .. . ...
ROW 2F : ... .. . ... : ... .. . ... : ... .. . ... : ... .. . ... : ... .. . ...
ROW 30 : ... .. . ... : ... .. . ... : ... .. . ... : F-# 03 . ... : ... .. . F03
ROW 31 : ... .. . ... : ... .. . ... : ... .. . ... : ... .. . ... : ... .. . F02
ROW 32 : ... .. . ... : ... .. . ... : ... .. . ... : ... .. . ... : ... .. . ...
ROW 33 : --- .. . ... : ... .. . ... : --- .. . ... : ... .. . ... : ... .. . ...
ROW 34 : G-1 14 . ... : ... .. . ... : A#3 1A . ... : 4-# 03 . ... : ... .. . F03
ROW 35 : ... .. . ... : ... .. . ... : G-2 14 . ... : ... .. . ... : ... .. . F02
ROW 36 : ... .. . ... : ... .. . ... : ... .. . ... : ... .. . ... : ... .. . ...
ROW 37 : --- .. . ... : ... .. . ... : --- .. . ... : ... .. . ... : ... .. . ...
ROW 38 : G#1 14 . ... : ... .. . ... : A#3 1A . ... : 4-# 03 . ... : ... .. . F03
ROW 39 : ... .. . ... : ... .. . ... : G#2 14 . ... : ... .. . ... : ... .. . F02
ROW 3A : ... .. . ... : ... .. . ... : ... .. . ... : ... .. . ... : ... .. . ...
ROW 3B : --- .. . ... : ... .. . ... : --- .. . ... : ... .. . ... : ... .. . ...
ROW 3C : G#2 14 . ... : ... .. . ... : F#3 19 . ... : F-# 04 . ... : ... .. . F03
ROW 3D : ... .. . ... : ... .. . ... : G#3 14 . ... : ... .. . ... : ... .. . F02
ROW 3E : ... .. . ... : ... .. . ... : ... .. . ... : ... .. . ... : ... .. . ...
ROW 3F : --- .. . ... : ... .. . ... : --- .. . ... : ... .. . ... : ... .. . ...

TRACK  64   6 150 "pause"
COLUMNS : 1 1 1 1 1

ORDER 00 : 00 00 00 00 00

TRACK  64   6 150 "game over "
COLUMNS : 1 1 1 1 1

ORDER 00 : 00 00 00 00 00

# End of export
